<svg xmlns="http://www.w3.org/2000/svg" xmlns:xlink="http://www.w3.org/1999/xlink" width="1366" zoomAndPan="magnify" viewBox="0 0 1024.5 576" height="768" preserveAspectRatio="xMidYMid meet" version="1.0"><defs><clipPath id="e790a70f33"><path d="M 124.359375 28.933594 L 899.433594 28.933594 L 899.433594 546.921875 L 124.359375 546.921875 Z M 124.359375 28.933594 " clip-rule="nonzero"/></clipPath></defs><g clip-path="url(#e790a70f33)"><path fill="#ffffff" d="M 888.675781 437.28125 C 881.652344 426.539062 873.054688 417.640625 863.109375 410.828125 C 868.160156 393.777344 869.402344 377.507812 866.90625 361.300781 C 866.09375 356.121094 865.109375 351.511719 863.902344 347.207031 C 861.027344 336.972656 856.800781 328.21875 850.984375 320.464844 C 850.714844 319.257812 850.445312 317.875 850.140625 316.191406 C 849.902344 314.886719 849.679688 313.570312 849.441406 312.265625 C 848.710938 308.105469 847.964844 303.78125 846.867188 299.191406 C 846.773438 298.777344 846.675781 298.363281 846.566406 297.96875 C 850.539062 289.101562 853.335938 279.296875 854.925781 268.699219 C 857.625 250.730469 860.246094 229.738281 857.179688 207.910156 L 857.007812 206.667969 C 856.546875 203.394531 856.085938 200.121094 855.558594 196.867188 C 853.542969 184.203125 850.316406 169.347656 841.640625 155.015625 C 834.425781 143.082031 824.988281 135.40625 813.59375 132.179688 C 805.046875 129.765625 796.832031 129.195312 789.203125 128.925781 C 788.3125 128.890625 787.4375 128.890625 786.550781 128.890625 L 786.183594 128.890625 C 785.261719 128.890625 784.355469 128.910156 783.449219 128.941406 C 780.320312 120.25 776.0625 112.527344 770.578125 105.488281 C 764.222656 97.335938 756.421875 90.378906 747.410156 84.800781 C 747.222656 84.671875 747.015625 84.5625 746.824219 84.433594 C 749.78125 74.265625 749.953125 63.523438 747.285156 52.941406 C 745.679688 46.636719 742.359375 41.058594 737.703125 36.863281 C 731.503906 31.238281 723.527344 28.441406 715.3125 28.984375 C 706.972656 29.507812 699.472656 31.078125 692.75 33.703125 C 691.066406 32.875 689.300781 32.207031 687.539062 31.699219 C 683.039062 30.414062 678.449219 30.109375 673.984375 30.824219 C 673.507812 30.90625 673.046875 30.984375 672.570312 31.078125 C 671.441406 31.300781 670.359375 31.589844 669.328125 31.921875 C 656.964844 35.847656 648.195312 47.097656 647 60.554688 C 646.8125 62.730469 646.621094 65.144531 646.523438 67.75 C 643.710938 68.054688 640.914062 68.515625 638.152344 69.117188 C 616.859375 73.773438 598.042969 87.214844 585.15625 106.996094 C 579.929688 115.054688 576.035156 123.761719 573.589844 132.878906 C 571.363281 132.929688 569.0625 133.070312 566.691406 133.390625 C 566.167969 133.453125 565.644531 133.5 565.105469 133.546875 L 564.59375 133.59375 C 560.128906 133.992188 550.867188 134.835938 541.730469 141.398438 C 539.3125 143.128906 537.105469 145.113281 535.121094 147.324219 C 534.308594 148.230469 533.515625 149.152344 532.75 150.054688 C 527.652344 156.0625 523.011719 162.53125 518.5625 169.839844 C 517.894531 170.933594 517.242188 172.03125 516.605469 173.128906 C 515.957031 174.238281 515.335938 175.382812 514.699219 176.527344 C 509.058594 186.824219 504.640625 197.785156 501.558594 209.117188 C 499.160156 217.886719 497.394531 226.195312 496.203125 234.1875 C 493.804688 233.585938 491.421875 232.964844 489.023438 232.34375 C 478.472656 229.613281 467.554688 226.785156 455.667969 225.210938 C 453.570312 224.925781 451.472656 224.640625 449.375 224.335938 C 447.675781 224.097656 445.992188 223.859375 444.292969 223.621094 C 439.808594 223.003906 436.109375 222.574219 432.660156 222.273438 C 429.863281 222.035156 427.335938 221.875 424.984375 221.796875 C 421.074219 221.667969 417.152344 221.714844 412.972656 221.953125 C 411.335938 222.050781 409.730469 222.175781 408.140625 222.320312 C 408.410156 219.808594 408.425781 217.570312 408.363281 215.789062 C 409.316406 203.824219 404.4375 194.433594 402.214844 190.175781 C 401.324219 188.460938 400.277344 186.808594 399.148438 185.347656 C 394.730469 179.53125 388.660156 175.636719 382 173.90625 C 378.347656 163.671875 371.292969 154.980469 361.265625 148.660156 C 357.054688 146.003906 352.527344 144.382812 347.820312 143.859375 C 342.5625 143.257812 337.207031 144.050781 332.394531 146.117188 C 328.199219 147.910156 324.511719 150.566406 321.429688 153.980469 C 318.871094 156.824219 316.933594 160.019531 315.582031 163.402344 C 313.070312 163.355469 310.527344 163.46875 307.984375 163.722656 C 304.792969 164.039062 301.582031 164.46875 298.453125 165.039062 C 286.757812 167.121094 276.09375 170.871094 266.511719 176.257812 C 265.320312 174.953125 264.238281 174 263.460938 173.367188 C 257.265625 168.265625 246.664062 163.195312 231.316406 167.964844 L 230.535156 168.203125 C 219.144531 171.570312 208.988281 177.179688 200.378906 184.871094 L 200.457031 184.789062 C 199.851562 185.3125 199.25 185.839844 198.707031 186.347656 C 198.199219 186.824219 197.707031 187.316406 197.183594 187.871094 C 194.609375 190.429688 192.367188 192.988281 190.304688 195.671875 C 189.746094 196.40625 189.207031 197.136719 188.667969 197.867188 C 183.757812 196.421875 178.542969 196.152344 173.476562 197.167969 C 172.984375 197.261719 172.507812 197.375 172.03125 197.484375 C 171.425781 197.628906 170.835938 197.804688 170.234375 197.992188 C 163.71875 200.027344 158.03125 204.046875 153.882812 209.511719 C 143.09375 211.023438 133.78125 218.300781 129.363281 229.023438 C 128.492188 231.167969 127.695312 233.410156 127.027344 235.667969 C 125.597656 240.511719 124.722656 245.4375 124.375 250.746094 C 124.214844 253.191406 124.375 255.640625 124.851562 258.039062 C 125.4375 260.976562 126.171875 264.648438 126.886719 268.332031 L 126.933594 268.574219 C 127.425781 271.066406 128.1875 273.515625 129.15625 275.800781 C 133.78125 286.652344 143.347656 293.851562 154.660156 295.042969 C 155.789062 295.171875 156.917969 295.21875 158.0625 295.21875 C 160.046875 295.21875 162.019531 295.011719 164.003906 294.644531 C 165.515625 295.265625 167.085938 295.757812 168.691406 296.125 C 169.757812 299.601562 170.949219 302.636719 172.011719 305.164062 C 173.046875 307.613281 174.253906 310.058594 175.714844 312.664062 C 178.78125 318.144531 182.582031 323.246094 186.964844 327.820312 C 191.304688 332.351562 196.308594 336.449219 201.871094 340.023438 C 201.902344 340.058594 201.949219 340.074219 201.980469 340.105469 C 208.765625 352.6875 219.683594 361.886719 233.429688 366.433594 C 233.824219 366.558594 234.238281 366.703125 234.652344 366.8125 C 234.796875 366.863281 234.921875 366.894531 235.066406 366.941406 C 238.054688 369.277344 241.46875 371.070312 245.234375 372.214844 C 245.011719 382.589844 244.933594 393.808594 246.761719 405.488281 C 241.375 410.683594 237.019531 415.910156 233.476562 420.421875 C 230.757812 423.902344 228.265625 427.589844 226.085938 431.355469 C 219.335938 443.050781 215.378906 455.855469 214.359375 469.441406 C 213.105469 486.234375 218.125 502.472656 229.328125 517.757812 C 229.566406 518.078125 229.804688 518.410156 230.042969 518.710938 C 230.347656 519.109375 230.648438 519.492188 230.949219 519.871094 L 231.09375 520.0625 C 234.90625 524.910156 239.085938 529.152344 243.519531 532.648438 C 249.097656 537.046875 255.199219 540.417969 261.777344 542.6875 C 261.953125 542.753906 262.125 542.816406 262.285156 542.863281 C 262.476562 542.925781 262.652344 542.992188 262.824219 543.039062 C 266.035156 544.070312 269.371094 544.851562 272.742188 545.328125 C 281.542969 546.597656 290.269531 546.960938 298.417969 546.960938 C 304.585938 546.960938 310.417969 546.757812 315.691406 546.566406 C 340.671875 545.660156 366.574219 544.152344 392.648438 542.085938 C 402.167969 541.339844 410.730469 540.464844 418.835938 539.414062 C 428.351562 538.191406 437.09375 536.746094 445.53125 535.015625 C 450.328125 534.027344 455.652344 533.265625 461.800781 532.695312 C 469.316406 531.996094 477.136719 531.660156 484.492188 531.375 C 490.070312 531.152344 495.855469 531.042969 502.148438 531.027344 C 513.652344 530.996094 525.554688 531.3125 538.503906 531.980469 C 546.941406 532.425781 555.648438 533.726562 564.851562 535.109375 L 568.410156 535.632812 C 570.460938 535.9375 572.507812 536.238281 574.574219 536.523438 C 576.324219 536.761719 578.148438 537.078125 579.5625 537.335938 C 581.566406 537.683594 583.570312 538.066406 585.570312 538.445312 C 593.214844 539.890625 601.859375 541.511719 611.121094 541.957031 L 611.679688 541.988281 C 612.789062 542.054688 613.902344 542.101562 615.015625 542.101562 C 624.40625 542.195312 636.785156 542.085938 649.242188 540.417969 C 667.339844 538 682.882812 532.757812 696.816406 524.335938 C 706.605469 518.410156 712.738281 511.5 716.539062 504.652344 C 722.003906 504.652344 727.328125 504.394531 732.699219 504.015625 C 738.609375 511.039062 746.824219 515.980469 756.375 517.804688 C 760.535156 518.601562 764.984375 519.222656 769.976562 519.699219 C 772.3125 519.917969 774.789062 520.109375 777.285156 520.269531 C 779.492188 520.414062 781.71875 520.523438 783.976562 520.636719 C 789.3125 520.890625 794.636719 521.046875 799.785156 521.078125 C 824.191406 521.253906 846.214844 518.964844 867.03125 514.023438 C 868.035156 513.785156 868.84375 513.546875 869.480469 513.34375 C 877.203125 511.007812 883.890625 506.507812 888.816406 500.34375 C 891.089844 497.515625 893.011719 494.339844 894.730469 490.636719 C 897.921875 483.726562 899.480469 476.414062 899.335938 468.917969 C 899.132812 458.351562 895.621094 447.992188 888.597656 437.265625 Z M 888.675781 437.28125 " fill-opacity="1" fill-rule="nonzero"/></g><path fill="#f9c79a" d="M 865.394531 452.472656 C 856.894531 439.472656 845.199219 429.957031 830.054688 425.585938 C 825.589844 424.300781 826.703125 422.25 828.5 420.296875 C 831.3125 417.230469 832.867188 413.382812 834.171875 409.824219 C 839.367188 395.589844 841.816406 380.90625 839.449219 365.621094 C 837.796875 354.992188 834.949219 345.0625 828.199219 336.402344 C 826.433594 334.144531 825.035156 331.507812 824.289062 328.347656 C 821.9375 318.480469 821.207031 308.261719 817.851562 298.648438 C 816.964844 296.109375 817.34375 294.058594 818.550781 291.914062 C 823.335938 283.378906 826.050781 273.992188 827.464844 264.550781 C 830.089844 247.121094 832.1875 229.550781 829.691406 211.800781 C 827.625 197.121094 825.765625 182.390625 817.902344 169.394531 C 815.105469 164.769531 811.511719 160.464844 806.09375 158.9375 C 800.34375 157.316406 794.351562 156.921875 788.3125 156.714844 C 779.253906 156.394531 770.46875 158.335938 761.15625 159.636719 C 761.746094 155.585938 760.949219 152.105469 760.234375 148.625 C 758.265625 139.140625 754.816406 130.402344 748.730469 122.601562 C 742.40625 114.496094 734.476562 108.617188 725.371094 104.40625 C 717.902344 100.960938 710.085938 98.226562 701.570312 101.691406 C 698.375 102.992188 694.816406 102.546875 691.335938 101.101562 C 696.261719 100.863281 700.203125 98.417969 704.191406 96.242188 C 717.457031 89.027344 724.085938 74.425781 720.367188 59.777344 C 719.875 57.820312 718.570312 56.628906 717.125 56.726562 C 707.671875 57.328125 698.914062 59.710938 692.019531 66.894531 C 687.984375 71.105469 685.519531 76.21875 682.390625 82.703125 C 680.769531 75.839844 680.894531 70.40625 681.847656 64.972656 C 682.308594 62.367188 683.023438 59.316406 679.910156 58.425781 C 676.699219 57.503906 674.96875 60.570312 674.746094 63.03125 C 673.714844 74.550781 674.09375 85.960938 679.75 96.542969 C 680.308594 97.574219 681.898438 98.640625 680.6875 99.863281 C 679.765625 100.785156 678.164062 100.371094 676.988281 99.863281 C 673 98.179688 669.074219 96.734375 664.65625 95.9375 C 640.519531 91.664062 620.449219 103.820312 608.53125 122.140625 C 601.207031 133.390625 597.710938 146.449219 598.410156 160.210938 C 598.585938 163.515625 597.664062 163.5625 594.515625 163.179688 C 586.507812 162.179688 578.53125 159.875 570.410156 160.957031 C 565.390625 161.625 560.113281 161.148438 555.902344 165.851562 C 550.007812 172.445312 545.097656 179.53125 540.679688 187.125 C 535.292969 196.371094 531.195312 206.304688 528.429688 216.425781 C 524.363281 231.34375 521.722656 246.726562 522.296875 262.359375 C 522.40625 265.632812 520.976562 266.410156 518.261719 266.078125 C 512.316406 265.363281 506.308594 264.949219 500.480469 263.726562 C 484.285156 260.324219 468.539062 254.957031 452.046875 252.761719 C 442.734375 251.523438 433.5 249.886719 424.078125 249.570312 C 407.234375 248.996094 391.011719 253.113281 374.597656 255.765625 C 361.058594 257.941406 347.820312 261.199219 335.253906 266.855469 C 332.679688 268.015625 331.152344 266.332031 329.644531 264.347656 C 324.035156 256.972656 325.8125 248.519531 326.289062 240.402344 C 326.386719 238.621094 326.878906 236.746094 326.242188 235.476562 C 326.65625 233.265625 327.101562 231.058594 327.578125 228.851562 C 328.785156 228.277344 329.707031 227.308594 329.800781 225.308594 C 329.867188 223.925781 329.546875 223.050781 329.039062 222.574219 C 329.359375 221.253906 329.691406 219.9375 330.042969 218.617188 C 330.089844 218.425781 330.121094 218.21875 330.136719 218.03125 C 331.851562 217.058594 332.15625 215.710938 331.34375 213.769531 C 329.183594 208.574219 329.582031 207.382812 334.664062 204.667969 C 338.398438 202.664062 338.558594 199.898438 335.109375 197.5 C 327.753906 192.402344 319.21875 190.558594 310.765625 191.367188 C 291.839844 193.210938 275.140625 200.265625 262.445312 215.265625 C 261.269531 216.664062 260.601562 217.792969 260.695312 218.917969 C 259.773438 219.90625 258.867188 220.90625 257.996094 221.921875 C 257.660156 221.875 257.3125 221.875 256.976562 221.921875 C 256.4375 221.320312 255.800781 220.9375 254.992188 220.601562 C 256.054688 221.046875 254.800781 220.492188 254.515625 220.332031 C 254.085938 220.109375 253.671875 219.871094 253.261719 219.617188 C 252.894531 219.394531 252.527344 219.140625 252.164062 218.886719 C 252.132812 218.855469 252.066406 218.824219 252.019531 218.808594 C 252.050781 218.824219 252.019531 218.808594 251.925781 218.730469 C 252.324219 217.855469 252.5625 216.871094 252.65625 215.820312 C 252.847656 213.628906 251.8125 212.230469 249.621094 212.46875 C 248.667969 212.578125 247.96875 212.898438 247.429688 213.34375 C 247.332031 213.167969 247.222656 213.007812 247.125 212.832031 C 247.03125 212.644531 246.933594 212.4375 246.839844 212.246094 C 246.777344 212.132812 246.730469 212.007812 246.679688 211.878906 C 246.554688 211.609375 246.601562 211.722656 246.824219 212.230469 C 246.601562 212.054688 246.457031 211.277344 246.363281 211.007812 C 246.125 210.308594 245.949219 209.59375 245.792969 208.878906 C 245.855469 208.367188 245.855469 207.8125 245.839844 207.257812 C 245.808594 205.316406 245.488281 203.222656 246.078125 201.457031 C 246.886719 199.074219 248.207031 196.722656 245.886719 194.816406 C 243.644531 192.972656 241.039062 194.101562 238.546875 194.832031 C 227.960938 197.960938 219.128906 203.871094 212.5 212.53125 C 204.113281 223.496094 197.804688 235.539062 197.121094 249.777344 C 197.039062 251.238281 196.851562 252.699219 196.898438 254.144531 C 196.929688 255.273438 196.914062 256.542969 197.453125 257.386719 C 196.992188 259.40625 196.46875 261.40625 195.816406 263.375 C 195.753906 263.582031 195.707031 263.820312 195.691406 264.042969 C 195.691406 264.058594 195.675781 264.089844 195.65625 264.109375 C 193.957031 267.699219 194.003906 271.65625 193.6875 275.484375 C 193.339844 282.140625 195.308594 288.480469 197.769531 294.328125 C 202.523438 305.609375 211.117188 313.792969 221.925781 319.496094 C 223.511719 320.339844 224.101562 321.023438 224.707031 322.675781 C 227.820312 331.128906 233.621094 337.148438 242.246094 339.992188 C 243.804688 340.5 245.949219 341.167969 247.378906 340.136719 C 248.492188 340.375 249.605469 340.582031 250.734375 340.738281 C 250.734375 340.929688 250.703125 341.105469 250.71875 341.3125 C 250.75 344.027344 252.289062 345.699219 254.691406 345.824219 C 256.804688 345.9375 257.375 343.902344 257.519531 341.773438 C 257.46875 341.613281 257.421875 341.4375 257.390625 341.28125 C 258.167969 341.296875 258.949219 341.3125 259.742188 341.328125 C 259.996094 341.820312 260.363281 342.28125 260.933594 342.679688 C 262.429688 343.710938 264.066406 344.25 265.941406 344.300781 C 269.453125 344.410156 272.914062 344.171875 276.445312 343.140625 C 275.332031 349.621094 273.503906 355.628906 273.425781 361.648438 C 273.1875 378.621094 271.773438 395.730469 276.9375 412.382812 C 277.398438 413.859375 278.097656 416.117188 276.300781 417.324219 C 268.101562 422.789062 261.601562 429.8125 255.53125 437.566406 C 247.601562 447.671875 243.183594 459.050781 242.246094 471.523438 C 241.40625 482.769531 245.503906 492.84375 252.402344 501.980469 C 258.742188 510.386719 266.625 516.34375 276.90625 517.839844 C 289.457031 519.648438 302.1875 519.269531 314.867188 518.808594 C 340.164062 517.886719 365.398438 516.390625 390.644531 514.390625 C 407.316406 513.070312 423.886719 511.132812 440.128906 507.796875 C 454.589844 504.824219 469.078125 504.175781 483.601562 503.617188 C 502.433594 502.886719 521.292969 503.253906 540.15625 504.238281 C 553.121094 504.921875 565.835938 507.242188 578.609375 509.019531 C 590.894531 510.734375 602.9375 514.214844 615.460938 514.328125 C 638.820312 514.550781 661.8125 513.136719 682.613281 500.582031 C 690.175781 496.007812 695.179688 489.761719 694.546875 480.878906 C 694.179688 475.683594 696.261719 475.78125 699.773438 476.113281 C 701.394531 476.273438 703.03125 476.242188 704.636719 476.398438 C 718.140625 477.625 731.570312 476.398438 744.980469 475.082031 C 748.507812 474.730469 750.382812 474.621094 751.050781 479.039062 C 751.941406 484.964844 756.023438 489.445312 761.808594 490.558594 C 769.5625 492.050781 777.523438 492.527344 785.484375 492.925781 C 810.859375 494.164062 835.96875 492.925781 860.789062 487.03125 C 865.632812 485.871094 867.890625 482.867188 869.671875 479.003906 C 874.152344 469.296875 870.671875 460.429688 865.492188 452.503906 Z M 865.394531 452.472656 " fill-opacity="1" fill-rule="nonzero"/><path fill="#f9c79a" d="M 342.722656 176.65625 C 343.738281 177.417969 344.453125 178.5625 345.375 179.46875 C 351.351562 185.3125 351.414062 192.496094 349.300781 199.710938 C 348.457031 202.617188 348.570312 204.730469 350.414062 206.714844 C 355.847656 212.5625 354.84375 218.761719 351.570312 225.066406 C 350.890625 226.386719 350.238281 227.578125 350.269531 229.136719 C 350.285156 230.691406 350.378906 231.980469 352.144531 232.601562 C 353.90625 233.21875 355.941406 232.742188 356.5625 231.550781 C 360.214844 224.433594 363.394531 216.757812 359.914062 208.957031 C 357.863281 204.347656 356.53125 200.058594 357.070312 196.453125 C 357.070312 193.511719 357.101562 191.875 357.070312 190.253906 C 356.894531 182.246094 353.128906 176.382812 346.457031 172.175781 C 344.785156 171.109375 343.339844 171.21875 342.117188 172.585938 C 340.78125 174.066406 341.054688 175.429688 342.722656 176.671875 Z M 342.722656 176.65625 " fill-opacity="1" fill-rule="nonzero"/><path fill="#f9c79a" d="M 182.484375 225.386719 C 180.164062 223.351562 177.226562 224.433594 175.828125 226.65625 C 171.648438 233.28125 167.277344 240.003906 168.945312 248.839844 C 167.324219 255.179688 170.441406 260.851562 172.679688 266.730469 C 173.425781 268.683594 174.984375 269.476562 176.957031 269.015625 C 179.101562 268.507812 179.734375 266.777344 179.339844 264.855469 C 178.941406 262.980469 178.097656 261.214844 177.449219 259.386719 C 173.746094 249.140625 174.539062 239.449219 181.277344 230.613281 C 182.566406 228.929688 184.660156 227.277344 182.5 225.386719 Z M 182.484375 225.386719 " fill-opacity="1" fill-rule="nonzero"/><path fill="#f9c79a" d="M 161.175781 242.292969 C 162.414062 240.066406 161.589844 238.445312 159.683594 237.429688 C 157.457031 236.238281 155.933594 237.574219 155.121094 239.574219 C 153.515625 243.46875 152.515625 247.519531 152.167969 252.539062 C 152.769531 255.558594 153.515625 259.339844 154.265625 263.121094 C 154.882812 266.253906 156.585938 268.207031 159.890625 267.03125 C 163.257812 265.839844 161.796875 263.234375 161.050781 260.976562 C 159 254.734375 157.695312 248.488281 161.160156 242.292969 Z M 161.175781 242.292969 " fill-opacity="1" fill-rule="nonzero"/><path fill="#f9c79a" d="M 372.46875 221.78125 C 371.433594 224.351562 372.402344 225.386719 374.246094 226.386719 C 376.296875 227.5 377.601562 226.339844 378.648438 224.75 C 380.523438 221.90625 380.792969 218.710938 380.460938 214.996094 C 381.335938 210.832031 379.570312 206.875 377.535156 202.964844 C 376.328125 200.632812 374.167969 200.203125 372.183594 201.125 C 369.8125 202.21875 370.527344 204.507812 371.625 206.097656 C 375.136719 211.195312 374.582031 216.566406 372.484375 221.78125 Z M 372.46875 221.78125 " fill-opacity="1" fill-rule="nonzero"/><path fill="#ffffff" d="M 562.292969 426.859375 C 556.316406 424.839844 554.535156 417.214844 558.984375 412.734375 C 566.820312 404.820312 574.589844 396.160156 581.074219 393.476562 C 647.320312 366.019531 680.449219 352.273438 724.800781 349.367188 C 732.332031 348.875 773.375 346.523438 809.589844 361.476562 C 823.175781 367.082031 832.3125 373.582031 835.316406 383.609375 C 837.761719 391.824219 835.269531 399.609375 833.378906 403.992188 C 832.203125 409.171875 829.644531 416.464844 823.367188 421.582031 C 817.296875 426.523438 812.308594 425.730469 801.835938 428.765625 C 797.640625 429.972656 782.433594 434.375 770.722656 445.210938 C 758.835938 456.207031 762.109375 463.132812 751.574219 469.441406 C 745.996094 472.777344 738.386719 473.160156 723.164062 473.921875 C 707.210938 474.714844 699.105469 475.050781 692.351562 471.523438 C 683.214844 466.753906 683.789062 460.75 675.605469 451.789062 C 658.917969 433.5 631.875 431.449219 620.832031 430.609375 C 602.238281 429.195312 598.679688 434.039062 579.882812 431.148438 C 573.253906 430.132812 567.359375 428.558594 562.308594 426.84375 Z M 562.292969 426.859375 " fill-opacity="0.5" fill-rule="nonzero"/><path fill="#ed8f6b" d="M 643.539062 414.703125 C 666.582031 414.703125 685.265625 400.042969 685.265625 381.957031 C 685.265625 363.871094 666.582031 349.207031 643.539062 349.207031 C 620.492188 349.207031 601.808594 363.871094 601.808594 381.957031 C 601.808594 400.042969 620.492188 414.703125 643.539062 414.703125 Z M 643.539062 414.703125 " fill-opacity="1" fill-rule="nonzero"/><path fill="#ed8f6b" d="M 797.480469 400.609375 C 819.589844 400.609375 837.507812 386.546875 837.507812 369.195312 C 837.507812 351.847656 819.589844 337.785156 797.480469 337.785156 C 775.375 337.785156 757.453125 351.847656 757.453125 369.195312 C 757.453125 386.546875 775.375 400.609375 797.480469 400.609375 Z M 797.480469 400.609375 " fill-opacity="1" fill-rule="nonzero"/><path fill="#936242" d="M 865.394531 452.488281 C 870.578125 460.398438 874.054688 469.28125 869.574219 478.972656 C 867.796875 482.835938 865.539062 485.855469 860.691406 486.996094 C 835.871094 492.894531 810.75 494.117188 785.390625 492.894531 C 777.429688 492.496094 769.46875 492.019531 761.695312 490.523438 C 755.914062 489.414062 751.828125 484.933594 750.9375 479.003906 C 750.273438 474.605469 748.398438 474.714844 744.871094 475.050781 C 731.457031 476.367188 718.03125 477.589844 704.523438 476.382812 C 702.917969 476.226562 701.28125 476.257812 699.660156 476.097656 C 696.148438 475.765625 694.050781 475.667969 694.433594 480.863281 C 695.070312 489.746094 690.0625 495.992188 682.5 500.566406 C 661.699219 513.121094 638.707031 514.535156 615.347656 514.3125 C 602.828125 514.199219 590.78125 510.71875 578.5 509.003906 C 565.722656 507.222656 553.027344 504.90625 540.046875 504.222656 C 521.183594 503.238281 502.320312 502.871094 483.492188 503.585938 C 468.96875 504.15625 454.492188 504.808594 440.015625 507.78125 C 423.777344 511.117188 407.203125 513.039062 390.535156 514.359375 C 365.285156 516.359375 340.050781 517.855469 314.753906 518.777344 C 302.074219 519.238281 289.332031 519.617188 276.792969 517.804688 C 266.511719 516.328125 258.648438 510.371094 252.289062 501.949219 C 245.410156 492.8125 241.308594 482.753906 242.152344 471.507812 C 243.074219 459.035156 247.507812 447.65625 255.421875 437.550781 C 261.507812 429.796875 268.003906 422.773438 276.207031 417.308594 C 278.015625 416.101562 277.300781 413.859375 276.839844 412.367188 C 271.675781 395.730469 273.105469 378.621094 273.328125 361.632812 C 273.425781 355.613281 275.234375 349.621094 276.347656 343.140625 C 272.820312 344.171875 269.355469 344.394531 265.84375 344.300781 C 263.96875 344.234375 262.347656 343.695312 260.839844 342.664062 C 259.058594 341.4375 259.011719 339.578125 259.632812 337.863281 C 260.332031 335.894531 262.160156 335.910156 263.730469 336.609375 C 266.796875 337.960938 269.691406 337.707031 272.980469 336.019531 C 269.148438 333.527344 264.652344 333.019531 261.363281 329.933594 C 259.933594 328.585938 258.835938 327.074219 257.757812 325.582031 C 256.882812 324.34375 256.820312 322.832031 257.46875 321.6875 C 257.757812 321.195312 258.1875 320.75 258.742188 320.433594 C 260.378906 319.511719 262.207031 319.113281 263.796875 321.894531 C 266.847656 327.234375 272.867188 328.09375 278.269531 329.585938 C 279.574219 329.953125 280.574219 329.523438 281.066406 327.773438 C 283.960938 317.683594 289.1875 308.753906 295.511719 300.445312 C 296.371094 299.316406 297.464844 298.253906 298.65625 297.457031 C 300.550781 296.203125 302.042969 297.410156 303.34375 298.714844 C 304.726562 300.097656 304.011719 301.191406 302.949219 302.480469 C 296.863281 309.835938 291.921875 317.988281 288.726562 326.933594 C 284.609375 338.453125 281.320312 350.289062 281.003906 362.636719 C 280.75 372.230469 281.117188 381.84375 280.894531 391.425781 C 280.765625 397.195312 282.257812 402.644531 283.277344 408.203125 C 283.640625 410.144531 284.023438 411.875 286.996094 410.859375 C 288.742188 410.253906 291.585938 409.730469 292.207031 412.683594 C 292.746094 415.164062 291.15625 416.417969 288.871094 417.691406 C 273.597656 426.238281 260.886719 437.613281 253.894531 453.949219 C 244.695312 475.398438 249.652344 494.050781 268.609375 507.667969 C 272.042969 510.132812 276.15625 511.195312 280.496094 511.261719 C 304.410156 511.625 328.371094 511.925781 352.191406 510.035156 C 372.863281 508.417969 393.648438 508.289062 414.195312 504.667969 C 427.050781 502.394531 439.859375 499.867188 452.746094 497.867188 C 458.816406 496.929688 465.058594 497.136719 471.191406 496.832031 C 491.976562 495.832031 512.777344 494.816406 533.578125 496.625 C 552.582031 498.277344 571.539062 499.867188 590.304688 503.871094 C 606.941406 507.445312 623.929688 508.859375 640.980469 505.90625 C 643.746094 505.414062 644.921875 504.921875 644.378906 501.441406 C 643.457031 495.546875 641.933594 490.335938 637.277344 486.28125 C 635.734375 484.949219 634.097656 482.691406 636.070312 480.800781 C 637.914062 479.023438 640.21875 479.785156 642.074219 481.578125 C 646.828125 486.15625 649.796875 491.574219 650.992188 498.136719 C 652.199219 504.855469 652.386719 504.730469 659.03125 502.664062 C 661.621094 501.855469 664.019531 500.664062 666.863281 500.34375 C 669.980469 500.011719 671.550781 497.960938 671.617188 494.242188 C 671.726562 488.824219 669.882812 484.375 666.5 480.59375 C 665.148438 479.085938 663.796875 477.972656 665.210938 476.257812 C 666.800781 474.300781 669.027344 474.507812 670.851562 476.097656 C 674.652344 479.402344 676.382812 483.980469 678.128906 488.523438 C 678.78125 490.191406 677.210938 493.449219 679.527344 493.371094 C 681.832031 493.304688 683.867188 490.9375 685.25 488.429688 C 689.222656 481.261719 686.996094 474.269531 683.976562 467.996094 C 677.351562 454.21875 665.738281 445.035156 652.230469 438.789062 C 637.371094 431.925781 621.847656 430.957031 605.433594 434.070312 C 592.6875 436.488281 579.339844 436.613281 566.4375 432.230469 C 562.039062 430.734375 557.859375 428.75 553.535156 427.097656 C 551.484375 426.316406 549.230469 424.808594 550.359375 421.996094 C 551.4375 419.246094 554.347656 419.996094 555.808594 420.835938 C 571.90625 430.164062 589.542969 426.761719 606.671875 427.175781 C 609.660156 427.238281 612.648438 425.890625 615.667969 425.363281 C 627.886719 423.265625 639.261719 426.175781 650.5625 430.703125 C 663.351562 435.835938 674.378906 443.175781 683.199219 453.820312 C 686.378906 457.652344 688.839844 461.972656 691.066406 466.359375 C 692.304688 468.820312 693.75 469.328125 696.246094 469.3125 C 708.765625 469.1875 721.304688 469.3125 733.824219 469.234375 C 739.023438 469.203125 744.089844 467.929688 749.175781 466.914062 C 751.226562 466.5 751.941406 465.117188 752.78125 463.449219 C 758.773438 451.46875 767.179688 441.761719 778.398438 434.167969 C 788.21875 427.527344 798.910156 423.554688 810.449219 423.808594 C 818.855469 423.980469 821.683594 418.644531 824.480469 413.226562 C 832.425781 397.84375 834.410156 381.542969 831.804688 364.351562 C 830.375 354.832031 826.972656 346.683594 821.414062 338.945312 C 816.40625 331.984375 815.105469 323.375 814.277344 315.144531 C 813.578125 308.199219 811.019531 301.988281 808.796875 295.710938 C 804.570312 283.730469 797.988281 272.925781 789.726562 263.152344 C 781.894531 253.890625 773.121094 245.929688 762.777344 239.398438 C 755.421875 234.761719 747.886719 230.726562 739.894531 227.417969 C 729.980469 223.320312 719.429688 221.828125 708.925781 220.238281 C 697.023438 218.441406 685.3125 220.03125 673.617188 222.082031 C 668.914062 222.90625 665.769531 221.859375 663.417969 216.648438 C 659.191406 207.289062 651.609375 200.296875 643.523438 194.101562 C 632.253906 185.503906 619.894531 178.800781 606.480469 174.160156 C 593.816406 169.773438 580.820312 167.882812 567.40625 168.472656 C 562.164062 168.710938 559.382812 171.9375 556.601562 175.558594 C 546.6875 188.460938 539.601562 202.933594 535.40625 218.441406 C 530.765625 235.601562 528.03125 253.222656 530.71875 271.179688 C 531.066406 273.59375 529.9375 275.355469 528.046875 276.515625 C 526.0625 277.722656 525.109375 275.929688 524.234375 274.640625 C 522.867188 272.59375 520.835938 273.101562 518.941406 273.054688 C 509.203125 272.832031 499.730469 271.097656 490.292969 268.730469 C 464.457031 262.25 438.601562 255.335938 411.589844 257.371094 C 398.894531 258.324219 386.371094 260.898438 373.851562 263.28125 C 363.0625 265.347656 352.382812 267.777344 341.992188 271.210938 C 337.8125 272.59375 333.332031 273.671875 329.800781 276.628906 C 327.785156 278.3125 325.542969 278.597656 323.683594 276.976562 C 321.890625 275.421875 323.257812 273.625 324.589844 272.402344 C 325.988281 271.097656 325.320312 270.257812 324.433594 269.144531 C 317.011719 259.847656 318.378906 249.25 320.125 238.683594 C 320.460938 236.683594 321.445312 234.109375 323.652344 234.109375 C 323.972656 234.109375 324.320312 234.15625 324.703125 234.285156 C 327.355469 235.125 326.402344 237.890625 326.242188 240.417969 C 325.78125 248.535156 324.003906 256.988281 329.613281 264.363281 C 331.121094 266.347656 332.648438 268.03125 335.222656 266.871094 C 347.789062 261.230469 361.027344 257.972656 374.550781 255.78125 C 390.980469 253.144531 407.1875 249.027344 424.03125 249.601562 C 433.46875 249.917969 442.703125 251.554688 451.996094 252.792969 C 468.492188 254.988281 484.238281 260.359375 500.429688 263.742188 C 506.261719 264.964844 512.269531 265.378906 518.210938 266.09375 C 520.929688 266.425781 522.359375 265.648438 522.25 262.375 C 521.675781 246.742188 524.3125 231.359375 528.382812 216.441406 C 531.132812 206.335938 535.230469 196.40625 540.632812 187.140625 C 545.050781 179.546875 549.960938 172.460938 555.855469 165.882812 C 560.066406 161.164062 565.34375 161.640625 570.363281 160.988281 C 578.484375 159.90625 586.460938 162.210938 594.46875 163.210938 C 597.597656 163.609375 598.519531 163.546875 598.347656 160.242188 C 597.648438 146.496094 601.160156 133.4375 608.484375 122.171875 C 620.402344 103.867188 640.472656 91.695312 664.609375 95.988281 C 669.042969 96.765625 672.949219 98.210938 676.9375 99.894531 C 678.128906 100.402344 679.734375 100.816406 680.65625 99.894531 C 681.863281 98.671875 680.277344 97.589844 679.71875 96.574219 C 674.0625 85.992188 673.679688 74.582031 674.714844 63.0625 C 674.9375 60.601562 676.667969 57.535156 679.878906 58.457031 C 682.992188 59.347656 682.277344 62.398438 681.816406 65.003906 C 680.863281 70.4375 680.738281 75.886719 682.359375 82.75 C 685.488281 76.253906 687.949219 71.136719 691.988281 66.925781 C 698.882812 59.742188 707.640625 57.359375 717.09375 56.757812 C 718.539062 56.660156 719.84375 57.867188 720.335938 59.824219 C 724.039062 74.472656 717.410156 89.074219 704.160156 96.289062 C 700.171875 98.464844 696.214844 100.910156 691.289062 101.148438 C 694.769531 102.597656 698.3125 103.042969 701.519531 101.738281 C 710.039062 98.257812 717.855469 100.992188 725.324219 104.4375 C 734.414062 108.648438 742.34375 114.527344 748.667969 122.632812 C 754.769531 130.433594 758.203125 139.171875 760.1875 148.660156 C 760.902344 152.121094 761.695312 155.601562 761.109375 159.652344 C 770.4375 158.351562 779.207031 156.410156 788.265625 156.730469 C 794.304688 156.9375 800.292969 157.332031 806.046875 158.953125 C 811.464844 160.480469 815.054688 164.800781 817.851562 169.410156 C 825.71875 182.421875 827.578125 197.152344 829.660156 211.816406 C 832.152344 229.566406 830.054688 247.136719 827.433594 264.566406 C 826.019531 274.007812 823.304688 283.398438 818.519531 291.929688 C 817.3125 294.074219 816.929688 296.125 817.820312 298.664062 C 821.15625 308.277344 821.890625 318.511719 824.257812 328.363281 C 825.003906 331.523438 826.402344 334.160156 828.164062 336.417969 C 834.933594 345.078125 837.761719 355.007812 839.433594 365.621094 C 841.800781 380.921875 839.351562 395.605469 834.15625 409.839844 C 832.851562 413.398438 831.296875 417.246094 828.484375 420.3125 C 826.703125 422.265625 825.574219 424.300781 830.054688 425.601562 C 845.183594 429.972656 856.894531 439.472656 865.394531 452.488281 Z M 862.855469 476.273438 C 865.554688 469.566406 863.347656 463.847656 859.945312 458.015625 C 849.488281 440.125 833.980469 431.226562 814.453125 430.816406 C 809.019531 431.511719 804.648438 430.640625 800.308594 431.992188 C 786.867188 436.152344 775.265625 442.96875 766.796875 454.472656 C 762.808594 459.890625 758.898438 465.339844 757.613281 472.1875 C 756.722656 476.890625 759.917969 483.566406 763.699219 483.820312 C 775.347656 484.628906 786.929688 486.316406 798.640625 485.980469 C 801.34375 485.902344 802.359375 485.234375 802.375 482.421875 C 802.40625 477.671875 802.152344 473.046875 800.375 468.582031 C 799.578125 466.546875 799.183594 464.148438 801.484375 463.054688 C 803.757812 461.972656 804.710938 464.5 806.09375 465.738281 C 806.871094 466.4375 806.921875 467.390625 807.238281 468.296875 C 808.828125 472.96875 809.414062 477.734375 809.113281 482.613281 C 808.984375 484.679688 809.304688 486.027344 811.941406 485.871094 C 819.058594 485.441406 826.179688 485.058594 833.25 484.027344 C 834.523438 483.835938 835.476562 483.550781 835.539062 482.105469 C 835.777344 477.082031 836.125 472 833.441406 467.4375 C 832.390625 465.691406 830.105469 464.179688 833.1875 462.417969 C 835.808594 460.910156 837.144531 462.304688 839.035156 464.402344 C 843.402344 469.28125 842.339844 475 842.5 480.53125 C 842.578125 483.121094 842.878906 484.121094 845.773438 483.214844 C 849.917969 481.929688 854.160156 480.847656 858.4375 480.117188 C 860.929688 479.6875 862.011719 478.371094 862.855469 476.273438 Z M 823.175781 233.140625 C 823.367188 213.691406 821.730469 194.386719 813.640625 176.351562 C 811.195312 170.902344 807.382812 166.261719 800.53125 165.039062 C 787.980469 162.832031 775.742188 164.117188 763.554688 167.214844 C 761.441406 167.757812 760.519531 169.042969 760.042969 171.285156 C 758.359375 179.308594 756.183594 187.1875 752.066406 194.402344 C 751.636719 195.148438 751.398438 196.484375 751.78125 197.136719 C 752.527344 198.4375 753.753906 197.628906 754.769531 197.152344 C 762.714844 193.480469 771.261719 193.164062 779.605469 194.148438 C 790.570312 195.453125 793.285156 197.785156 796.734375 207.257812 C 801.296875 219.761719 799.945312 232.472656 800.359375 245.183594 C 800.484375 249.472656 800.039062 253.621094 798.117188 257.480469 C 797.019531 259.660156 797.371094 261.261719 798.816406 263.234375 C 802.074219 267.667969 805.03125 272.304688 807.890625 277.023438 C 809.667969 279.949219 809.921875 283.96875 813.484375 286.035156 C 814.976562 282.222656 816.851562 278.613281 817.789062 274.800781 C 821.125 261.121094 823.03125 247.203125 823.175781 233.140625 Z M 793.492188 235.632812 C 794.035156 226.769531 792.347656 218.347656 790.011719 209.78125 C 788.582031 204.523438 785.992188 202.554688 781.351562 201.617188 C 766.367188 198.597656 753.226562 203.824219 741.199219 211.707031 C 734.445312 216.121094 735.066406 217.519531 742.421875 220.953125 C 743.152344 221.300781 743.898438 221.636719 744.648438 221.90625 C 762.0625 228.292969 776.601562 238.921875 789.472656 252.046875 C 790.011719 252.605469 790.25 253.527344 791.203125 253.382812 C 792.476562 253.191406 792.285156 252.015625 792.554688 251.109375 C 794.113281 246.027344 793.320312 240.796875 793.492188 235.632812 Z M 753.972656 159.589844 C 753.417969 150.613281 752.179688 144.144531 749.605469 137.980469 C 745.488281 128.175781 738.765625 120.519531 729.804688 115.003906 C 721.734375 110.03125 713.199219 106.042969 703.316406 108.871094 C 696.945312 110.683594 690.828125 109.332031 684.566406 108.492188 C 676.730469 107.457031 669.691406 103.773438 661.714844 102.820312 C 643.539062 100.65625 629.714844 107.554688 618.464844 120.996094 C 608.800781 132.53125 605.417969 146.132812 605.894531 160.957031 C 606.019531 164.5625 606.496094 167.214844 610.613281 168.136719 C 613.234375 168.742188 615.792969 169.839844 618.242188 171.015625 C 627.917969 175.621094 637.339844 180.609375 645.984375 187.0625 C 654.152344 193.148438 661.8125 200.042969 667.039062 208.605469 C 670.1875 213.738281 673.140625 215.375 678.351562 214.3125 C 692.875 211.371094 707.289062 211.769531 721.71875 215.183594 C 724.261719 215.804688 727.34375 216.550781 729.835938 213.753906 C 734.492188 208.527344 738.863281 203.0625 742.535156 197.136719 C 750.050781 184.933594 753.957031 171.632812 753.972656 159.589844 Z M 714.582031 67.035156 C 714.664062 65.257812 714.582031 64.429688 711.960938 64.589844 C 707.496094 64.84375 703.808594 66.703125 700.597656 69.101562 C 693.941406 74.074219 689.523438 80.765625 688.09375 88.851562 C 686.824219 93.492188 689.398438 93.585938 692.621094 93.476562 C 696.308594 93.363281 698.929688 90.949219 701.757812 89.328125 C 710.164062 84.449219 714.167969 76.679688 714.582031 67.035156 Z M 714.582031 67.035156 " fill-opacity="1" fill-rule="nonzero"/><path fill="#ed8f6b" d="M 790.011719 209.78125 C 792.347656 218.347656 794.035156 226.769531 793.492188 235.632812 C 793.320312 240.796875 794.113281 246.027344 792.554688 251.109375 C 792.285156 252.015625 792.476562 253.191406 791.203125 253.382812 C 790.25 253.527344 790.011719 252.605469 789.472656 252.046875 C 776.601562 238.921875 762.0625 228.292969 744.648438 221.90625 C 743.898438 221.636719 743.152344 221.300781 742.421875 220.953125 C 735.066406 217.519531 734.445312 216.121094 741.199219 211.707031 C 753.226562 203.824219 766.367188 198.597656 781.351562 201.617188 C 785.992188 202.554688 788.582031 204.523438 790.011719 209.78125 Z M 790.011719 209.78125 " fill-opacity="0.55" fill-rule="nonzero"/><path fill="#5f3925" d="M 787.042969 327.886719 C 789.726562 329.15625 791.699219 331.191406 791.109375 334.289062 C 790.441406 337.769531 787.804688 339.292969 784.832031 339.375 C 774.964844 337.578125 766.433594 339.882812 758.613281 344.917969 C 755.753906 346.746094 753.878906 345.460938 752.242188 343.679688 C 750.320312 341.550781 752.59375 340.121094 753.816406 338.832031 C 761.441406 330.871094 771.121094 327.601562 781.847656 326.820312 C 783.671875 326.695312 785.40625 327.105469 787.042969 327.886719 Z M 787.042969 327.886719 " fill-opacity="1" fill-rule="nonzero"/><path fill="#5f3925" d="M 757.484375 384.339844 C 758.789062 387.121094 756.277344 388.34375 754.339844 389.503906 C 744.773438 395.269531 734.398438 397.542969 723.304688 396.84375 C 714.644531 396.320312 706.367188 394.636719 699.597656 388.644531 C 697.675781 386.945312 694.925781 384.976562 697.292969 382.273438 C 699.550781 379.683594 702.15625 381.210938 704.367188 383.289062 C 709.769531 388.390625 716.757812 388.898438 723.609375 389.628906 C 725.132812 389.804688 725.417969 388.675781 725.5 387.40625 C 725.878906 381.226562 725.59375 375.09375 724.625 368.976562 C 724.292969 366.863281 723.304688 366.210938 721.398438 366.351562 C 718.730469 366.542969 716.347656 365.398438 713.882812 364.652344 C 710.691406 363.667969 708.671875 361.492188 708.082031 358.265625 C 707.464844 354.929688 709.277344 352.273438 711.675781 350.449219 C 712.976562 349.464844 714.882812 347.761719 718.714844 346.777344 C 722.304688 345.871094 735.527344 344.761719 740.484375 351.925781 C 741.039062 352.753906 742.597656 355.007812 742.136719 357.660156 C 742.023438 358.3125 741.722656 359.347656 740.5625 360.808594 C 737.863281 364.191406 733.890625 365.652344 731.664062 366.273438 C 731.855469 369.339844 731.902344 371.867188 731.902344 373.597656 C 731.917969 377.476562 732.394531 381.335938 732.523438 385.199219 C 732.632812 388.644531 733.492188 390.171875 737.480469 388.804688 C 742.199219 387.183594 746.871094 385.546875 751.257812 383.164062 C 753.753906 381.8125 756.183594 381.574219 757.484375 384.339844 Z M 757.484375 384.339844 " fill-opacity="1" fill-rule="nonzero"/><path fill="#ec684d" d="M 749.605469 137.980469 C 752.179688 144.144531 753.417969 150.613281 753.972656 159.589844 C 753.957031 171.632812 750.050781 184.933594 742.535156 197.136719 C 738.863281 203.0625 734.492188 208.527344 729.835938 213.753906 C 727.34375 216.550781 724.261719 215.804688 721.71875 215.183594 C 707.289062 211.769531 692.875 211.371094 678.351562 214.3125 C 673.140625 215.375 670.1875 213.738281 667.039062 208.605469 C 661.8125 200.042969 654.152344 193.148438 645.984375 187.0625 C 637.339844 180.609375 627.917969 175.621094 618.242188 171.015625 C 615.792969 169.839844 613.234375 168.742188 610.613281 168.136719 C 606.496094 167.214844 606.019531 164.5625 605.894531 160.957031 C 605.417969 146.132812 608.800781 132.53125 618.464844 120.996094 C 629.714844 107.554688 643.539062 100.65625 661.714844 102.820312 C 669.691406 103.773438 676.730469 107.457031 684.566406 108.492188 C 690.828125 109.332031 696.945312 110.683594 703.316406 108.871094 C 713.199219 106.042969 721.734375 110.03125 729.804688 115.003906 C 738.765625 120.519531 745.488281 128.175781 749.605469 137.980469 Z M 749.605469 137.980469 " fill-opacity="1" fill-rule="nonzero"/><path fill="#dada65" d="M 711.960938 64.589844 C 714.582031 64.429688 714.664062 65.257812 714.582031 67.035156 C 714.167969 76.679688 710.164062 84.449219 701.757812 89.328125 C 698.929688 90.949219 696.308594 93.363281 692.621094 93.476562 C 689.398438 93.585938 686.824219 93.492188 688.09375 88.851562 C 689.523438 80.765625 693.941406 74.074219 700.597656 69.101562 C 703.808594 66.703125 707.496094 64.84375 711.960938 64.589844 Z M 711.960938 64.589844 " fill-opacity="1" fill-rule="nonzero"/><path fill="#5f3925" d="M 669.566406 329.648438 C 678.097656 328.792969 688.363281 338.753906 687.917969 348.097656 C 687.507812 356.914062 681.246094 365.90625 669.421875 365.8125 C 658.015625 365.71875 652.070312 357.375 651.65625 348.253906 C 651.230469 338.675781 659.90625 329.300781 669.566406 329.648438 Z M 669.566406 329.648438 " fill-opacity="1" fill-rule="nonzero"/><path fill="#936242" d="M 630.761719 227.132812 C 634.765625 231.804688 633.128906 234.425781 627.296875 236.03125 C 619.925781 238.082031 612.695312 240.832031 605.703125 243.976562 C 597.265625 247.773438 589.097656 252.207031 580.914062 256.527344 C 577.355469 258.402344 573.972656 260.613281 570.617188 262.851562 C 566.421875 265.648438 563.769531 264.804688 562.71875 259.914062 C 561.765625 255.496094 561.101562 251 561.210938 246.4375 C 561.957031 232.710938 564.039062 219.285156 570.425781 206.859375 C 573.8125 200.28125 576.863281 198.851562 584.347656 199.628906 C 604.066406 201.695312 618.414062 212.769531 630.761719 227.132812 Z M 620.496094 230.566406 C 623.085938 229.753906 622.992188 228.515625 621.226562 226.847656 C 617.351562 223.210938 613.425781 219.667969 609.007812 216.664062 C 601.621094 211.675781 593.863281 207.621094 584.824219 206.765625 C 581.949219 206.492188 578.800781 205.859375 577.148438 209.304688 C 570.363281 223.464844 567.789062 238.367188 569.1875 254.113281 C 571.191406 253.714844 572.859375 253.207031 574.574219 252.09375 C 581.949219 247.375 589.875 243.609375 597.804688 239.925781 C 605.226562 236.476562 612.648438 233.011719 620.496094 230.566406 Z M 620.496094 230.566406 " fill-opacity="1" fill-rule="nonzero"/><path fill="#ed8f6b" d="M 621.226562 226.847656 C 622.992188 228.515625 623.085938 229.753906 620.496094 230.566406 C 612.648438 233.011719 605.226562 236.476562 597.804688 239.925781 C 589.875 243.609375 581.949219 247.375 574.574219 252.09375 C 572.859375 253.207031 571.191406 253.714844 569.1875 254.113281 C 567.789062 238.367188 570.363281 223.464844 577.148438 209.304688 C 578.800781 205.859375 581.949219 206.492188 584.824219 206.765625 C 593.863281 207.621094 601.621094 211.675781 609.007812 216.664062 C 613.425781 219.667969 617.351562 223.210938 621.226562 226.847656 Z M 621.226562 226.847656 " fill-opacity="0.55" fill-rule="nonzero"/><path fill="#936242" d="M 533.148438 408.695312 C 534.101562 410.207031 536.152344 411.746094 533.609375 413.605469 C 531.433594 415.179688 529.367188 415.164062 527.652344 412.921875 C 525.617188 410.238281 523.375 407.664062 521.707031 404.773438 C 511.984375 387.753906 507.375 369.386719 507.328125 348.699219 C 507.613281 336.511719 509.617188 323.5625 513.636719 310.820312 C 516.542969 301.589844 520.152344 292.804688 524.855469 284.382812 C 526.09375 282.171875 527.160156 280.125 529.8125 281.285156 C 532.957031 282.648438 532.59375 285.890625 531.226562 287.957031 C 524.457031 298.332031 520.613281 309.945312 517.988281 321.738281 C 514.460938 337.515625 512.890625 353.484375 516.527344 369.816406 C 518.976562 380.78125 522.296875 391.109375 527.921875 400.738281 C 529.527344 403.46875 531.480469 405.996094 533.148438 408.695312 Z M 533.148438 408.695312 " fill-opacity="1" fill-rule="nonzero"/><path fill="#936242" d="M 377.519531 202.964844 C 379.554688 206.875 381.320312 210.847656 380.445312 214.996094 C 380.777344 218.710938 380.507812 221.90625 378.632812 224.75 C 377.601562 226.355469 376.28125 227.515625 374.246094 226.402344 C 372.402344 225.386719 371.433594 224.371094 372.46875 221.78125 C 374.566406 216.566406 375.121094 211.214844 371.609375 206.097656 C 370.496094 204.507812 369.78125 202.21875 372.164062 201.125 C 374.152344 200.203125 376.3125 200.632812 377.519531 202.964844 Z M 377.519531 202.964844 " fill-opacity="1" fill-rule="nonzero"/><path fill="#936242" d="M 359.929688 208.957031 C 363.410156 216.757812 360.230469 224.433594 356.578125 231.550781 C 355.957031 232.742188 353.925781 233.21875 352.160156 232.601562 C 350.394531 231.996094 350.285156 230.707031 350.269531 229.152344 C 350.253906 227.59375 350.90625 226.402344 351.589844 225.085938 C 354.84375 218.777344 355.847656 212.5625 350.429688 206.714844 C 348.585938 204.730469 348.457031 202.617188 349.316406 199.710938 C 351.414062 192.496094 351.351562 185.3125 345.375 179.46875 C 344.453125 178.578125 343.738281 177.417969 342.722656 176.65625 C 341.070312 175.414062 340.796875 174.050781 342.117188 172.585938 C 343.339844 171.21875 344.769531 171.109375 346.457031 172.175781 C 353.128906 176.382812 356.894531 182.246094 357.070312 190.253906 C 357.101562 191.875 357.085938 193.511719 357.085938 196.453125 C 356.546875 200.058594 357.863281 204.332031 359.929688 208.957031 Z M 359.929688 208.957031 " fill-opacity="1" fill-rule="nonzero"/><path fill="#936242" d="M 335.046875 197.515625 C 338.511719 199.917969 338.335938 202.679688 334.601562 204.667969 C 329.515625 207.382812 329.136719 208.589844 331.28125 213.789062 C 332.25 216.089844 331.660156 217.554688 328.976562 218.554688 C 327.816406 218.984375 326.65625 219.429688 325.609375 219.539062 C 324.273438 219.667969 323.128906 219.253906 322.414062 217.570312 C 321.078125 214.46875 325.242188 214.296875 326.480469 212.152344 C 320.0625 208.417969 326.273438 204.90625 326.832031 200.980469 C 302.820312 194.785156 283.753906 203.539062 267.210938 220.046875 C 265.558594 221.714844 264.273438 223.304688 262.078125 221.335938 C 261.570312 220.875 261.1875 220.429688 260.949219 220.015625 C 260.125 218.523438 260.824219 217.125 262.378906 215.28125 C 275.078125 200.28125 291.777344 193.226562 310.703125 191.382812 C 319.171875 190.558594 327.707031 192.417969 335.046875 197.515625 Z M 335.046875 197.515625 " fill-opacity="1" fill-rule="nonzero"/><path fill="#936242" d="M 327.671875 222.175781 C 328.898438 222.050781 329.851562 222.988281 329.738281 225.324219 C 329.582031 229.167969 326.371094 229.246094 323.957031 229.867188 C 323.75 229.914062 323.542969 229.945312 323.335938 229.945312 C 321.90625 229.945312 320.839844 228.613281 321.015625 226.941406 C 321.285156 224.132812 323 222.8125 326.085938 222.351562 C 326.578125 222.273438 327.101562 222.207031 327.671875 222.175781 Z M 327.671875 222.175781 " fill-opacity="1" fill-rule="nonzero"/><path fill="#936242" d="M 318.824219 281.617188 C 319.140625 284.0625 317.296875 284.9375 314.914062 284.761719 C 311.785156 284.382812 309.605469 282.394531 308.890625 279.566406 C 308.460938 277.867188 310.75 276.660156 312.226562 277.042969 C 314.882812 277.722656 318.363281 278.027344 318.824219 281.617188 Z M 318.824219 281.617188 " fill-opacity="1" fill-rule="nonzero"/><path fill="#936242" d="M 309.652344 289.132812 C 309.925781 291.53125 307.859375 291.832031 306.15625 291.546875 C 302.996094 291.753906 301.199219 290.707031 301.230469 287.480469 C 301.265625 285.429688 302.152344 284.699219 304.21875 284.714844 C 307.316406 284.746094 309.351562 286.242188 309.652344 289.132812 Z M 309.652344 289.132812 " fill-opacity="1" fill-rule="nonzero"/><path fill="#936242" d="M 260.234375 223.175781 C 262.125 225.339844 260.410156 227.5 258.613281 228.960938 C 247.730469 237.699219 243.183594 249.234375 243.820312 262.882812 C 244.089844 268.492188 245.058594 274.070312 247.90625 279.105469 C 249.953125 282.714844 250.128906 286.464844 248.285156 290.214844 C 245.1875 296.570312 247.523438 302.144531 250.78125 307.515625 C 251.941406 309.4375 254.085938 311.058594 251.179688 313.140625 C 250.257812 313.792969 249.445312 314.078125 248.699219 314.078125 C 247.285156 314.078125 246.109375 313.0625 245.011719 311.617188 C 241.613281 307.117188 240.039062 301.988281 239.609375 296.472656 C 244.027344 286.351562 238.65625 277.214844 237.035156 267.667969 C 233.96875 249.585938 240.816406 235.046875 254.101562 223.160156 C 255.023438 222.335938 256.199219 221.875 257.34375 221.875 C 258.425781 221.875 259.457031 222.289062 260.234375 223.175781 Z M 260.234375 223.175781 " fill-opacity="1" fill-rule="nonzero"/><path fill="#936242" d="M 254.101562 336.941406 C 257.34375 336.941406 256.804688 339.960938 257.4375 341.773438 C 257.296875 343.917969 256.722656 345.953125 254.609375 345.839844 C 252.210938 345.699219 250.667969 344.042969 250.636719 341.3125 C 250.605469 338.832031 251.605469 336.957031 254.101562 336.941406 Z M 254.101562 336.941406 " fill-opacity="1" fill-rule="nonzero"/><path fill="#936242" d="M 253.941406 315.476562 C 255.816406 315.382812 256.898438 316.589844 256.660156 318.574219 C 256.53125 319.640625 256.261719 320.578125 255.800781 321.355469 C 255.039062 322.640625 253.785156 323.484375 251.894531 323.753906 C 250.050781 323.292969 248.398438 322.640625 248.792969 320.289062 C 249.066406 318.6875 249.730469 317.398438 250.78125 316.558594 C 251.605469 315.921875 252.671875 315.539062 253.941406 315.476562 Z M 253.941406 315.476562 " fill-opacity="1" fill-rule="nonzero"/><path fill="#936242" d="M 249.542969 212.46875 C 251.734375 212.230469 252.78125 213.644531 252.59375 215.820312 C 252.324219 218.792969 250.890625 221.335938 248.0625 221.953125 C 245.664062 222.476562 245.792969 219.855469 245.472656 218.347656 C 245.824219 215.550781 246.253906 212.816406 249.542969 212.46875 Z M 249.542969 212.46875 " fill-opacity="1" fill-rule="nonzero"/><path fill="#936242" d="M 244.742188 333.175781 C 247.839844 334.304688 249.507812 335.480469 248.476562 338.46875 C 247.378906 341.644531 244.265625 340.691406 242.167969 339.992188 C 233.539062 337.148438 227.738281 331.128906 224.625 322.675781 C 224.007812 321.023438 223.417969 320.339844 221.84375 319.511719 C 211.039062 313.808594 202.441406 305.625 197.691406 294.34375 C 195.230469 288.496094 193.257812 282.15625 193.609375 275.5 C 193.925781 271.65625 193.894531 267.699219 195.578125 264.109375 C 196.339844 262.503906 196.816406 259.898438 199.488281 260.707031 C 201.949219 261.453125 203.15625 263.503906 202.347656 266.078125 C 199.820312 274.039062 200.964844 281.664062 203.746094 289.339844 C 206.75 297.601562 211.785156 304.242188 218.96875 309.199219 C 221.558594 310.996094 224.132812 312.808594 227.34375 313.824219 C 229.503906 314.507812 231.808594 316.492188 232.046875 319.511719 C 232.667969 327.394531 238.464844 330.855469 244.742188 333.175781 Z M 244.742188 333.175781 " fill-opacity="1" fill-rule="nonzero"/><path fill="#936242" d="M 245.808594 194.816406 C 248.144531 196.738281 246.808594 199.074219 246.015625 201.457031 C 245.410156 203.222656 245.742188 205.316406 245.757812 207.257812 C 245.792969 209.339844 245.742188 211.308594 242.980469 211.4375 C 240.53125 211.5625 239.5625 209.878906 239.101562 207.859375 C 237.863281 202.539062 237.511719 202.234375 232.394531 204.9375 C 225.148438 208.765625 219.445312 214.484375 215.011719 221.253906 C 208.480469 231.167969 203.761719 241.832031 203.808594 254.066406 C 203.824219 256.910156 202.109375 258.246094 199.582031 258.339844 C 196.738281 258.433594 196.882812 256.066406 196.816406 254.144531 C 196.769531 252.699219 196.960938 251.238281 197.039062 249.777344 C 197.722656 235.539062 204.03125 223.496094 212.421875 212.53125 C 219.046875 203.871094 227.898438 197.960938 238.464844 194.832031 C 240.960938 194.101562 243.582031 192.972656 245.808594 194.816406 Z M 245.808594 194.816406 " fill-opacity="1" fill-rule="nonzero"/><path fill="#936242" d="M 182.484375 225.386719 C 184.660156 227.292969 182.546875 228.945312 181.261719 230.613281 C 174.523438 239.449219 173.730469 249.140625 177.433594 259.386719 C 178.082031 261.199219 178.925781 262.980469 179.324219 264.855469 C 179.734375 266.761719 179.085938 268.492188 176.957031 269 C 174.96875 269.476562 173.410156 268.667969 172.664062 266.730469 C 170.441406 260.851562 167.324219 255.160156 168.945312 248.839844 C 167.277344 239.988281 171.632812 233.28125 175.828125 226.65625 C 177.226562 224.433594 180.164062 223.351562 182.484375 225.386719 Z M 182.484375 225.386719 " fill-opacity="1" fill-rule="nonzero"/><path fill="#936242" d="M 159.683594 237.445312 C 161.574219 238.460938 162.414062 240.082031 161.175781 242.308594 C 157.695312 248.488281 159 254.75 161.050781 260.976562 C 161.796875 263.234375 163.257812 265.839844 159.890625 267.046875 C 156.585938 268.207031 154.882812 266.269531 154.265625 263.136719 C 153.515625 259.355469 152.769531 255.574219 152.167969 252.554688 C 152.5 247.519531 153.515625 243.46875 155.121094 239.589844 C 155.933594 237.589844 157.457031 236.253906 159.683594 237.445312 Z M 159.683594 237.445312 " fill-opacity="1" fill-rule="nonzero"/><path fill="#ffffff" d="M 737.148438 146.957031 C 737.464844 146.957031 737.765625 146.910156 738.085938 146.816406 C 739.769531 146.289062 740.707031 144.527344 740.183594 142.84375 C 739.039062 139.09375 737.289062 135.613281 735 132.484375 C 730.378906 126.144531 724.546875 122.679688 720.476562 120.898438 C 718.875 120.199219 716.996094 120.933594 716.300781 122.535156 C 715.601562 124.140625 716.332031 126.015625 717.933594 126.714844 C 721.289062 128.191406 726.085938 131.023438 729.886719 136.21875 C 731.761719 138.773438 733.175781 141.636719 734.128906 144.703125 C 734.539062 146.070312 735.8125 146.941406 737.164062 146.941406 Z M 737.148438 146.957031 " fill-opacity="1" fill-rule="nonzero"/><path fill="#ffffff" d="M 740.515625 158.683594 C 742.628906 158.683594 744.34375 156.96875 744.34375 154.855469 C 744.34375 152.738281 742.628906 151.027344 740.515625 151.027344 C 738.402344 151.027344 736.6875 152.738281 736.6875 154.855469 C 736.6875 156.96875 738.402344 158.683594 740.515625 158.683594 Z M 740.515625 158.683594 " fill-opacity="1" fill-rule="nonzero"/><path fill="#ffffff" d="M 677.175781 344.980469 C 679.003906 344.980469 680.484375 343.503906 680.484375 341.675781 C 680.484375 339.851562 679.003906 338.371094 677.175781 338.371094 C 675.351562 338.371094 673.871094 339.851562 673.871094 341.675781 C 673.871094 343.503906 675.351562 344.980469 677.175781 344.980469 Z M 677.175781 344.980469 " fill-opacity="1" fill-rule="nonzero"/></svg>