<svg xmlns="http://www.w3.org/2000/svg" xmlns:xlink="http://www.w3.org/1999/xlink" width="1366" zoomAndPan="magnify" viewBox="0 0 1024.5 576" height="768" preserveAspectRatio="xMidYMid meet" version="1.0"><defs><clipPath id="877ff32c6a"><path d="M 286.820312 28.976562 L 737.339844 28.976562 L 737.339844 546.894531 L 286.820312 546.894531 Z M 286.820312 28.976562 " clip-rule="nonzero"/></clipPath></defs><g clip-path="url(#877ff32c6a)"><path fill="#ffffff" d="M 735.617188 204.136719 C 735.3125 202.191406 734.964844 200.230469 734.582031 198.296875 C 733.441406 192.542969 732.125 187.464844 730.570312 182.769531 C 729.453125 179.390625 728.179688 176.136719 726.785156 173.097656 C 723.753906 166.476562 720.398438 159.125 715.496094 151.964844 C 718.109375 139.898438 718.59375 127.09375 716.972656 112.863281 C 715.484375 99.828125 712.894531 88.671875 709.039062 78.75 C 705.808594 70.441406 700.546875 58.101562 692.0625 46.808594 C 691.769531 46.425781 691.488281 46.035156 691.207031 45.640625 C 687.738281 40.878906 680.527344 30.96875 666.160156 29.628906 C 663.570312 29.394531 661.226562 29.359375 659.15625 29.335938 C 657.800781 29.316406 656.519531 29.304688 655.480469 29.222656 C 641.691406 28.210938 627.429688 30.417969 613.074219 35.777344 C 598.578125 41.203125 586.625 48.070312 576.539062 56.761719 C 572.664062 60.09375 569.195312 63.4375 566.074219 66.839844 C 563.269531 66.320312 560.519531 65.996094 557.769531 65.847656 C 556.925781 65.804688 556.082031 65.757812 555.234375 65.703125 C 549.367188 65.363281 542.808594 64.980469 536.09375 65.9375 C 532.738281 65.882812 529.753906 66.242188 527.171875 66.738281 C 524.785156 64.160156 522.203125 61.59375 519.398438 58.992188 C 508.742188 49.105469 495.832031 41.460938 479.945312 35.609375 C 465.378906 30.238281 453.132812 28.210938 441.550781 29.257812 C 440.738281 29.257812 439.949219 29.234375 439.183594 29.222656 C 436.175781 29.167969 433.066406 29.101562 429.597656 29.4375 L 428.875 29.507812 C 424.371094 29.898438 413.835938 30.8125 406.5 40.3125 C 403.144531 44.625 399.753906 49.421875 396.125 54.984375 C 390.875 63.046875 386.550781 72.3125 383.292969 82.511719 C 379.957031 92.925781 377.929688 101.785156 376.90625 110.421875 C 375.203125 124.789062 375.476562 137.9375 377.714844 150.636719 C 377.785156 151.042969 377.863281 151.460938 377.941406 151.863281 C 377.917969 151.910156 377.886719 151.945312 377.863281 151.988281 C 370.933594 162.515625 365.628906 174.011719 362.089844 186.160156 C 359.117188 196.382812 357.4375 205.027344 356.839844 213.371094 C 355.871094 226.757812 356.289062 238.714844 358.113281 249.90625 C 358.339844 251.289062 358.621094 252.765625 358.957031 254.40625 L 359.058594 254.902344 C 359.351562 256.242188 359.667969 257.628906 360.007812 258.96875 L 360.199219 259.722656 C 360.535156 261.015625 360.886719 262.300781 361.246094 263.5625 L 361.402344 264.113281 C 362.011719 266.195312 362.675781 268.359375 363.453125 270.710938 C 368.433594 285.953125 376.070312 299.613281 386.121094 311.277344 C 386.933594 312.222656 387.824219 313.210938 388.8125 314.257812 C 389.0625 314.527344 389.320312 314.800781 389.570312 315.058594 C 390.515625 316.050781 391.394531 316.925781 392.226562 317.726562 L 392.464844 317.964844 C 392.464844 317.964844 392.53125 318.019531 392.566406 318.054688 C 393.285156 318.738281 394.050781 319.425781 394.875 320.148438 C 393.242188 324.730469 391.878906 329.03125 390.761719 332.679688 C 390.019531 335.097656 389.34375 337.519531 388.710938 339.929688 C 388.351562 339.660156 387.980469 339.386719 387.597656 339.140625 C 387.6875 326.847656 379.507812 317.332031 367.160156 315.65625 C 357.808594 314.359375 348.671875 315.890625 339.210938 320.304688 C 339.164062 320.328125 339.128906 320.351562 339.085938 320.359375 C 338.5 320.644531 337.9375 320.933594 337.394531 321.238281 C 337.023438 321.441406 336.675781 321.65625 336.347656 321.859375 C 336.089844 322.015625 335.828125 322.183594 335.582031 322.355469 C 334.589844 323.019531 333.632812 323.761719 332.753906 324.550781 C 332.6875 324.605469 332.617188 324.671875 332.550781 324.730469 C 332.414062 324.851562 332.28125 324.988281 332.144531 325.113281 C 331.480469 325.484375 330.828125 325.867188 330.175781 326.25 C 328.113281 326.980469 325.207031 328.0625 322.074219 330.011719 C 306.570312 339.726562 298.945312 353.699219 294.550781 363.367188 C 288.894531 375.820312 287.488281 388.125 286.855469 398.53125 C 286.765625 400.070312 286.855469 401.625 287.125 403.144531 C 287.304688 404.160156 287.453125 405.578125 287.597656 407.085938 C 288.09375 411.972656 288.769531 418.660156 291.992188 425.785156 C 292.578125 427.070312 293.199219 428.171875 293.726562 429.074219 C 294.449219 437.84375 296.949219 445.871094 301.164062 452.964844 C 307.742188 464.054688 317.511719 471.496094 329.238281 474.503906 C 329.980469 475.269531 330.792969 476 331.671875 476.6875 C 332.957031 477.6875 334.320312 478.535156 335.714844 479.21875 C 338.148438 481.855469 341.257812 483.925781 344.84375 485.199219 C 346.578125 485.804688 348.390625 486.179688 350.238281 486.3125 C 355.375 489.882812 360.582031 491.15625 363.949219 491.988281 L 364.175781 492.042969 C 372.523438 494.09375 380.375 493.6875 386.683594 493.371094 C 387.574219 493.328125 388.464844 493.28125 389.367188 493.238281 C 389.398438 493.238281 389.433594 493.238281 389.457031 493.238281 C 391.03125 504.652344 398.523438 513.75 409.78125 517.25 C 410.839844 517.578125 412.023438 517.984375 413.273438 518.421875 C 414.691406 518.917969 416.15625 519.425781 417.6875 519.910156 C 424.378906 522.027344 431.027344 523.355469 437.132812 524.199219 C 440.683594 532.800781 447.804688 539.757812 457.007812 542.335938 C 464.9375 544.566406 473.355469 545.835938 484.28125 546.46875 C 488.53125 546.714844 493.195312 546.894531 498.152344 546.894531 C 509.5625 546.894531 522.585938 545.882812 535.859375 542.179688 C 538.6875 541.390625 542.910156 540.195312 547.046875 537.585938 C 550.84375 540.015625 554.605469 541.277344 556.902344 542.042969 C 564.351562 544.542969 571.414062 545.160156 577.644531 545.703125 C 578.523438 545.78125 579.390625 545.847656 580.222656 545.925781 C 600.851562 547.898438 619.101562 546.714844 636.035156 542.292969 C 645.894531 539.703125 653.339844 533.023438 656.6875 524.1875 C 666.769531 522.757812 676.085938 520.304688 684.886719 516.769531 C 698.6875 511.171875 702.878906 501.0625 703.960938 493.53125 C 704.871094 487.054688 704.265625 481.3125 703.148438 476.53125 C 704.648438 473.882812 705.910156 471.058594 706.898438 468.097656 C 710.335938 457.828125 712.613281 447.179688 713.851562 435.527344 C 715.722656 417.90625 714.582031 401.050781 713.265625 385.289062 C 711.890625 368.839844 708.21875 353.011719 705.175781 341.042969 C 703.214844 333.363281 701.097656 326.363281 698.777344 319.898438 C 698.902344 319.785156 699.035156 319.675781 699.160156 319.5625 L 699.453125 319.304688 C 699.882812 318.929688 700.296875 318.546875 700.679688 318.1875 C 701.773438 317.164062 702.832031 316.140625 703.859375 315.09375 C 704.128906 314.8125 704.398438 314.527344 704.667969 314.238281 L 704.828125 314.054688 C 705.558594 313.289062 706.269531 312.515625 706.96875 311.738281 C 707.316406 311.34375 707.667969 310.9375 708.003906 310.542969 L 708.183594 310.339844 C 708.78125 309.644531 709.367188 308.945312 709.964844 308.214844 C 710.347656 307.742188 710.730469 307.265625 711.101562 306.792969 C 711.6875 306.039062 712.273438 305.285156 712.859375 304.496094 L 713.085938 304.195312 C 713.320312 303.878906 713.570312 303.550781 713.816406 303.203125 C 714.742188 301.917969 715.5625 300.75 716.351562 299.589844 C 721.953125 291.246094 726.414062 282.238281 729.625 272.859375 C 730.140625 271.363281 730.636719 269.789062 731.210938 267.917969 C 731.222656 267.875 731.246094 267.828125 731.257812 267.785156 C 731.289062 267.691406 731.3125 267.601562 731.335938 267.511719 C 731.335938 267.492188 731.347656 267.46875 731.359375 267.457031 C 731.886719 265.679688 732.359375 264.023438 732.789062 262.378906 L 732.914062 261.871094 C 733.285156 260.398438 733.644531 258.921875 733.972656 257.4375 L 734.199219 256.421875 C 734.523438 254.925781 734.828125 253.339844 735.121094 251.730469 L 735.335938 250.480469 C 735.652344 248.621094 735.898438 247.046875 736.089844 245.535156 C 736.089844 245.503906 736.089844 245.46875 736.101562 245.445312 C 736.621094 241.527344 736.980469 237.566406 737.171875 233.648438 C 737.667969 223.808594 737.148438 213.886719 735.628906 204.148438 Z M 735.617188 204.136719 " fill-opacity="1" fill-rule="nonzero"/></g><path fill="#f9c79a" d="M 716.53125 242.914062 C 715.664062 249.433594 714.269531 255.804688 712.386719 262.007812 C 711.9375 263.503906 711.460938 265.003906 710.957031 266.476562 C 708.296875 274.257812 704.601562 281.699219 699.960938 288.625 C 695.015625 295.976562 689.3125 302.527344 682.40625 307.898438 C 680.785156 309.171875 679.09375 310.375 677.328125 311.511719 C 675.804688 312.492188 674.835938 313.460938 675.941406 315.9375 C 680.265625 325.585938 683.457031 335.71875 686.058594 345.917969 C 689.484375 359.382812 692.445312 373.109375 693.605469 386.945312 C 694.902344 402.367188 695.894531 417.847656 694.238281 433.453125 C 693.199219 443.226562 691.285156 452.636719 688.199219 461.847656 C 687.015625 465.371094 685.15625 468.761719 682.585938 471.484375 C 681.179688 472.972656 681.628906 474.007812 682.195312 475.460938 C 684.085938 480.378906 685.210938 485.289062 684.433594 490.773438 C 683.78125 495.320312 681 497.085938 677.472656 498.515625 C 664.910156 503.5625 651.773438 505.621094 638.042969 505.960938 C 639.226562 508.863281 639.203125 511.710938 638.839844 514.71875 C 638.265625 519.617188 635.011719 522.195312 631.023438 523.242188 C 614.957031 527.441406 598.589844 527.902344 582.105469 526.328125 C 575.730469 525.730469 569.285156 525.425781 563.191406 523.375 C 557.816406 521.574219 553.445312 519.707031 554.121094 512.859375 C 554.402344 510.011719 554.074219 507.109375 554.640625 504.25 C 554.886719 503 554.921875 501.804688 553.027344 502.210938 C 549.027344 503.078125 544.984375 502.761719 540.972656 502.546875 C 539.09375 502.445312 538.664062 502.988281 539.082031 504.609375 C 539.734375 507.230469 539.339844 509.898438 539.554688 512.535156 C 540.195312 520.121094 536.828125 521.453125 530.53125 523.21875 C 515.816406 527.328125 500.59375 527.667969 485.410156 526.800781 C 477.648438 526.347656 469.882812 525.480469 462.335938 523.367188 C 456.78125 521.8125 453.132812 514.515625 454.808594 508.46875 C 455.046875 507.636719 455.789062 506.90625 455.453125 505.972656 C 444.625 505.566406 434 504.394531 423.636719 501.117188 C 420.933594 500.273438 418.285156 499.25 415.570312 498.417969 C 410.511719 496.839844 408.621094 492.820312 408.890625 487.8125 C 409.105469 483.859375 408.878906 479.828125 411.03125 476.136719 C 411.976562 474.503906 412.316406 472.53125 410.34375 470.898438 C 409.136719 469.910156 409.023438 467.996094 407.652344 467.0625 C 401.894531 471.046875 395.40625 473.253906 388.5 473.558594 C 381.976562 473.839844 375.351562 474.503906 368.894531 472.914062 C 365.832031 472.160156 362.675781 471.429688 360.21875 469.109375 C 359.996094 468.894531 359.792969 468.683594 359.613281 468.46875 C 358.101562 467.453125 356.707031 466.285156 355.375 465 C 353.992188 466.136719 352.300781 466.9375 351.332031 466.597656 C 349.359375 465.902344 349.496094 464.300781 350.566406 463.074219 C 351.015625 462.546875 351.535156 462.085938 352.085938 461.632812 C 351.375 460.9375 350.632812 460.292969 349.84375 459.699219 C 349.132812 460.203125 348.324219 460.621094 347.570312 461.082031 C 346.316406 461.859375 345.054688 462.140625 343.75 461.128906 C 342.949219 460.507812 342.847656 459.84375 343.410156 459.066406 C 343.996094 458.246094 344.683594 457.546875 345.449219 456.984375 C 344.773438 456.613281 344.097656 456.265625 343.398438 455.992188 C 343.074219 455.871094 342.746094 455.78125 342.410156 455.699219 C 341.609375 456.164062 340.5625 456.320312 339.480469 456.265625 C 329.9375 455.691406 322.917969 451.007812 318.121094 442.921875 C 314.851562 437.417969 313.421875 431.347656 313.242188 424.976562 C 313.152344 422.09375 311.03125 420.035156 309.929688 417.613281 C 307.226562 411.625 307.527344 405.308594 306.539062 399.710938 C 307.144531 389.625 308.476562 380.371094 312.496094 371.519531 C 317.082031 361.433594 322.996094 352.695312 332.550781 346.707031 C 334.253906 345.648438 336.066406 345.074219 337.867188 344.433594 C 338.082031 344.351562 338.296875 344.308594 338.511719 344.273438 C 340.605469 342.914062 342.78125 341.683594 345.046875 340.59375 C 345.316406 339.523438 346.308594 338.734375 347.558594 338.136719 C 352.929688 335.628906 358.417969 334.320312 364.457031 335.15625 C 367.53125 335.570312 368.027344 337.394531 367.847656 339.613281 C 367.589844 343.011719 367.542969 346.175781 369.695312 349.148438 C 370.191406 349.835938 370.539062 351.085938 369.976562 352.007812 C 370.382812 352.570312 370.84375 353.113281 371.339844 353.628906 C 373.097656 353.125 374.425781 355.410156 376.242188 355.488281 C 377.34375 355.53125 377.558594 356.613281 377.625 357.695312 C 377.332031 358.515625 377.085938 359.496094 376.34375 359.8125 C 377.128906 361.074219 378.019531 362.265625 378.628906 363.628906 C 378.765625 363.933594 378.878906 364.234375 379 364.550781 C 379.328125 364.71875 379.644531 364.980469 379.949219 365.328125 C 383.6875 369.832031 388.644531 372.207031 394.1875 373.582031 C 395.078125 373.792969 395.980469 373.953125 396.867188 374.132812 C 399.96875 374.75 401.632812 374.15625 402.355469 370.40625 C 404.40625 359.675781 406.398438 348.902344 409.609375 338.441406 C 411.898438 330.945312 414.410156 323.46875 417.566406 316.320312 C 418.90625 313.289062 417.734375 312.300781 415.851562 311.175781 C 414.386719 310.296875 412.992188 309.363281 411.628906 308.371094 C 407.71875 305.476562 404.25 302.109375 401.070312 298.417969 C 392.476562 288.441406 386.300781 277.152344 382.1875 264.574219 C 381.90625 263.730469 381.636719 262.886719 381.378906 262.042969 C 379.777344 256.988281 378.402344 251.886719 377.558594 246.730469 C 375.835938 236.167969 375.710938 225.484375 376.488281 214.777344 C 377.0625 206.851562 378.796875 199.230469 381.007812 191.652344 C 384.003906 181.363281 388.429688 171.746094 394.324219 162.796875 C 394.886719 161.941406 395.605469 161.175781 396.25 160.375 C 398.242188 157.898438 398.953125 155.691406 398.109375 152.042969 C 395.144531 139.121094 394.910156 125.96875 396.484375 112.71875 C 397.464844 104.386719 399.550781 96.347656 402.0625 88.5 C 404.609375 80.542969 408.035156 72.796875 412.640625 65.726562 C 415.617188 61.164062 418.726562 56.683594 422.058594 52.394531 C 424.347656 49.433594 428.097656 49.367188 431.445312 49.050781 C 434.878906 48.722656 438.363281 48.972656 442.484375 48.972656 C 452.714844 47.847656 463.167969 50.425781 473.117188 54.09375 C 485.117188 58.519531 496.382812 64.542969 505.992188 73.449219 C 510.925781 78.019531 515.445312 82.804688 519.433594 88.1875 C 519.65625 88.488281 519.839844 88.78125 519.996094 89.0625 C 521.550781 88.421875 523.183594 87.960938 524.851562 87.679688 C 525.121094 87.578125 525.402344 87.488281 525.683594 87.410156 C 529.210938 86.429688 532.726562 85.324219 537.265625 85.71875 C 543.214844 84.550781 549.964844 85.167969 556.734375 85.527344 C 560.542969 85.730469 564.171875 86.429688 567.808594 87.464844 C 567.933594 87.511719 568.058594 87.542969 568.191406 87.589844 C 570.085938 87.882812 571.945312 88.296875 573.78125 88.816406 C 573.847656 88.703125 573.894531 88.601562 573.972656 88.5 C 578.296875 82.152344 583.582031 76.703125 589.40625 71.691406 C 598.488281 63.867188 608.953125 58.363281 619.992188 54.230469 C 630.855469 50.164062 642.277344 48.003906 654.027344 48.871094 C 657.476562 49.128906 660.910156 48.9375 664.359375 49.253906 C 670.511719 49.828125 673.191406 54.5 676.289062 58.632812 C 682.519531 66.929688 686.9375 76.296875 690.664062 85.890625 C 694.292969 95.234375 696.242188 105.109375 697.378906 115.09375 C 698.652344 126.238281 698.574219 137.320312 696.105469 148.339844 C 695.621094 150.523438 695.804688 152.878906 694.789062 154.996094 C 693.730469 157.203125 695.769531 158.507812 696.714844 159.6875 C 701.953125 166.253906 705.390625 173.71875 708.847656 181.285156 C 711.925781 188.015625 713.828125 195.042969 715.238281 202.132812 C 717.90625 215.589844 718.347656 229.1875 716.53125 242.914062 Z M 716.53125 242.914062 " fill-opacity="1" fill-rule="nonzero"/><path fill="#ffffff" d="M 712.386719 262.007812 C 711.9375 263.503906 711.460938 265.003906 710.957031 266.476562 C 708.296875 274.257812 704.601562 281.699219 699.960938 288.625 C 695.015625 295.976562 689.3125 302.527344 682.40625 307.898438 C 679.996094 308.71875 677.585938 309.53125 675.175781 310.351562 C 668.460938 313.078125 661.261719 315.699219 653.578125 318.144531 C 649.90625 319.304688 646.3125 320.371094 642.785156 321.339844 C 641.082031 324.425781 640.363281 327.148438 640.023438 328.960938 C 639.730469 330.582031 638.425781 337.609375 641.78125 344.542969 C 643.382812 347.855469 645.242188 349.476562 644.484375 350.738281 C 643.640625 352.144531 640.238281 351.996094 638.4375 351.695312 C 636.183594 351.3125 635.519531 350.511719 634.933594 350.90625 C 633.601562 351.785156 636.429688 356.398438 637.164062 362.503906 C 637.230469 363.03125 638.527344 374.898438 632.894531 378.296875 C 629.796875 380.167969 627.484375 377.476562 624.117188 379.617188 C 620.523438 381.902344 621.1875 385.324219 617.976562 390.636719 C 613.695312 397.695312 606.28125 401.976562 604.828125 400.816406 C 603.625 399.847656 606.226562 394.996094 605.59375 394.691406 C 604.851562 394.332031 602.25 401.421875 595.410156 405.734375 C 593.054688 407.222656 591.601562 407.492188 589.6875 408.28125 C 580.808594 411.925781 578.558594 419.945312 573.226562 425.921875 C 565.757812 434.289062 553.34375 437.449219 544.601562 436.945312 C 527.128906 435.929688 513.179688 419.671875 511.941406 418.1875 C 507.5 412.875 504.089844 406.34375 496.992188 404.621094 C 494.894531 404.113281 491.539062 403.796875 489.566406 401.128906 C 487.515625 398.347656 488.574219 395.230469 486.839844 394.441406 C 484.855469 393.542969 482.875 397.324219 479.597656 397 C 476.507812 396.683594 474.492188 392.945312 473.128906 390.421875 C 469.679688 384.039062 471.628906 381.113281 468.996094 378.660156 C 464.835938 374.796875 457.738281 380.054688 455 376.855469 C 452.917969 374.449219 455.789062 370.023438 458.28125 354.824219 C 458.585938 352.964844 459.25 348.722656 458.078125 348.25 C 456.648438 347.675781 453.730469 353.125 452.242188 352.492188 C 451.195312 352.042969 451.554688 348.902344 451.710938 347.503906 C 452.21875 343.011719 453.839844 342 453.414062 338.824219 C 453.152344 337 452.386719 335.558594 452.140625 335.109375 C 451.023438 333.09375 449.953125 332.632812 449.265625 331.507812 C 448.433594 330.144531 448.128906 327.734375 450.449219 323.140625 C 447.78125 321.621094 443.261719 319.210938 437.394531 316.882812 C 432.3125 314.867188 427.570312 313.449219 423.402344 312.433594 C 419.480469 311.085938 415.546875 309.722656 411.628906 308.371094 C 407.71875 305.476562 404.25 302.109375 401.070312 298.417969 C 392.476562 288.441406 386.300781 277.152344 382.1875 264.574219 C 381.90625 263.730469 381.636719 262.886719 381.378906 262.042969 C 413.632812 237.105469 470.402344 204.320312 546.910156 204.320312 C 623.417969 204.320312 680.121094 237.070312 712.386719 262.007812 Z M 712.386719 262.007812 " fill-opacity="0.5" fill-rule="nonzero"/><path fill="#ed8f6b" d="M 568.316406 234.660156 C 568.925781 238.21875 568.664062 241.777344 568.675781 245.332031 C 568.6875 247.527344 567.675781 247.5625 566.140625 246.695312 C 561.859375 244.273438 557.375 242.609375 552.476562 241.574219 C 545.613281 240.132812 539.304688 241.335938 533.109375 243.949219 C 531.25 244.726562 529.246094 245.199219 527.542969 246.527344 C 526.28125 247.507812 524.863281 247.125 524.976562 244.949219 C 525.03125 243.691406 524.976562 242.417969 524.953125 241.15625 C 524.90625 238.5 524.546875 235.617188 525.832031 233.355469 C 527.183594 230.980469 530.347656 232.195312 532.589844 231.382812 C 538.789062 229.132812 540.636719 229.730469 546.933594 222.660156 C 551.316406 229.15625 558.074219 231.089844 565.261719 231.9375 C 567.257812 232.171875 567.988281 232.757812 568.316406 234.660156 Z M 568.316406 234.660156 " fill-opacity="1" fill-rule="nonzero"/><path fill="#ed8f6b" d="M 563.878906 251.222656 C 567.582031 253.519531 567.796875 254.308594 564.855469 259.160156 C 560.722656 265.980469 554.808594 269.96875 546.773438 269.640625 C 536.398438 269.777344 529.84375 263.019531 526.902344 254.824219 C 526.28125 253.078125 527.53125 252.292969 528.367188 251.808594 C 540.0625 244.941406 551.925781 243.835938 563.878906 251.222656 Z M 563.878906 251.222656 " fill-opacity="1" fill-rule="nonzero"/><path fill="#ed8f6b" d="M 659.132812 89.617188 C 662.398438 100.265625 664.980469 111.039062 664.167969 122.320312 C 664.089844 123.550781 664.574219 125.214844 663.378906 125.855469 C 662.015625 126.601562 661.238281 124.933594 660.316406 124.203125 C 651.121094 116.851562 641.367188 110.421875 630.808594 105.140625 C 624.667969 102.078125 618.40625 99.5 611.375 97.507812 C 613.605469 94.421875 616.851562 92.8125 619.871094 91.316406 C 622.550781 89.988281 625.34375 88.703125 628.171875 87.566406 C 635.429688 84.652344 642.796875 83.121094 650.625 83.480469 C 654.984375 83.683594 657.859375 85.449219 659.132812 89.617188 Z M 659.132812 89.617188 " fill-opacity="0.55" fill-rule="nonzero"/><path fill="#ed8f6b" d="M 475.597656 92.453125 C 477.996094 93.769531 480.113281 95.390625 482.511719 97.371094 C 466.503906 101.910156 452.839844 109.78125 439.90625 119.058594 C 437.4375 120.824219 435.140625 122.839844 432.761719 124.71875 C 432.054688 125.28125 431.367188 126.328125 430.453125 125.949219 C 429.621094 125.597656 429.5625 124.425781 429.53125 123.492188 C 429.214844 116.589844 429.652344 109.78125 430.992188 102.957031 C 432.074219 97.441406 433.507812 92.105469 435.996094 87.082031 C 437.203125 84.640625 439.261719 83.636719 442.070312 83.46875 C 454.28125 82.703125 465.140625 86.710938 475.597656 92.453125 Z M 475.597656 92.453125 " fill-opacity="0.55" fill-rule="nonzero"/><path fill="#936242" d="M 715.238281 202.132812 C 717.90625 215.589844 718.347656 229.1875 716.53125 242.914062 C 715.449219 251.007812 713.558594 258.878906 710.957031 266.476562 C 708.296875 274.257812 704.601562 281.699219 699.960938 288.625 C 693.855469 297.707031 686.585938 305.566406 677.328125 311.511719 C 675.804688 312.492188 674.835938 313.460938 675.941406 315.9375 C 680.265625 325.585938 683.457031 335.71875 686.058594 345.917969 C 689.484375 359.382812 692.445312 373.109375 693.605469 386.945312 C 694.902344 402.367188 695.894531 417.847656 694.238281 433.453125 C 693.199219 443.226562 691.285156 452.636719 688.199219 461.847656 C 687.015625 465.371094 685.15625 468.761719 682.585938 471.484375 C 681.179688 472.972656 681.628906 474.007812 682.195312 475.460938 C 684.085938 480.378906 685.210938 485.289062 684.433594 490.773438 C 683.78125 495.320312 681 497.085938 677.472656 498.515625 C 664.910156 503.5625 651.773438 505.621094 638.042969 505.960938 C 639.226562 508.863281 639.203125 511.710938 638.839844 514.71875 C 638.265625 519.617188 635.011719 522.195312 631.023438 523.242188 C 614.957031 527.441406 598.589844 527.902344 582.105469 526.328125 C 575.730469 525.730469 569.285156 525.425781 563.191406 523.375 C 557.816406 521.574219 553.445312 519.707031 554.121094 512.859375 C 554.402344 510.011719 554.074219 507.109375 554.640625 504.25 C 554.886719 503 554.921875 501.804688 553.027344 502.210938 C 549.027344 503.078125 544.984375 502.761719 540.972656 502.546875 C 539.09375 502.445312 538.664062 502.988281 539.082031 504.609375 C 539.734375 507.230469 539.339844 509.898438 539.554688 512.535156 C 540.195312 520.121094 536.828125 521.453125 530.53125 523.21875 C 515.816406 527.328125 500.59375 527.667969 485.410156 526.800781 C 477.648438 526.347656 469.882812 525.480469 462.335938 523.367188 C 456.78125 521.8125 453.132812 514.515625 454.808594 508.46875 C 455.046875 507.636719 455.789062 506.90625 455.453125 505.972656 C 444.625 505.566406 434 504.394531 423.636719 501.117188 C 420.933594 500.273438 418.285156 499.25 415.570312 498.417969 C 410.511719 496.839844 408.621094 492.820312 408.890625 487.8125 C 409.105469 483.859375 408.878906 479.828125 411.03125 476.136719 C 411.976562 474.503906 412.316406 472.53125 410.34375 470.898438 C 409.136719 469.910156 409.023438 467.996094 407.652344 467.0625 C 401.894531 471.046875 395.40625 473.253906 388.5 473.558594 C 381.976562 473.839844 375.351562 474.503906 368.894531 472.914062 C 365.832031 472.160156 362.675781 471.429688 360.21875 469.109375 C 358.902344 467.847656 358.148438 466.644531 359.363281 464.933594 C 360.660156 463.109375 361.765625 464.257812 363.117188 465 C 366.933594 467.070312 370.902344 468.671875 375.394531 468.863281 C 383.484375 469.199219 391.4375 468.660156 399.132812 465.980469 C 400.824219 465.394531 402.492188 464.59375 403.976562 463.617188 C 404.890625 463.019531 405.25 462.027344 404.789062 460.632812 C 402.738281 454.460938 401.058594 448.148438 400.238281 441.707031 C 399.472656 435.796875 399.300781 429.816406 398.964844 423.863281 C 398.898438 422.566406 399.300781 421.148438 400.957031 421.148438 C 402.558594 421.136719 403.84375 421.824219 403.964844 423.738281 C 404.136719 426.148438 404.507812 428.546875 404.53125 430.941406 C 404.597656 442.394531 407.347656 453.246094 411.707031 463.75 C 412.359375 465.339844 413.902344 466.316406 414.523438 468.007812 C 414.996094 469.3125 416 468.636719 416.664062 467.871094 C 423.015625 460.417969 431.882812 458.605469 440.898438 457.152344 C 442.890625 456.828125 444.511719 457.59375 444.636719 459.699219 C 444.773438 461.960938 442.914062 462.308594 441.078125 462.535156 C 434.699219 463.335938 428.582031 464.605469 423.175781 468.636719 C 416.585938 473.535156 412.574219 482.84375 414.265625 490.871094 C 414.648438 492.707031 416.222656 493.148438 417.496094 493.632812 C 424.527344 496.3125 431.714844 498.28125 439.21875 499.429688 C 445.832031 500.429688 452.421875 500.679688 459.058594 500.566406 C 462.460938 500.523438 464.734375 496.558594 462.808594 493.765625 C 461.714844 492.191406 461.605469 490.320312 460.613281 488.769531 C 459.847656 487.574219 460.285156 486.652344 461.332031 485.804688 C 462.675781 484.703125 463.753906 485.695312 464.25 486.503906 C 466.347656 489.984375 468.386719 493.507812 470.085938 497.1875 C 470.851562 498.867188 469.074219 499.789062 467.800781 500.53125 C 462.109375 503.855469 459.058594 507.953125 459.914062 513.988281 C 460.195312 515.992188 461.152344 517.21875 462.820312 517.835938 C 469.433594 520.292969 476.429688 520.640625 483.371094 521.484375 C 495.378906 522.960938 507.289062 521.542969 519.195312 520.585938 C 523.34375 520.257812 527.410156 518.671875 531.453125 517.453125 C 533.175781 516.9375 534.167969 515.675781 534.125 513.570312 C 533.886719 501.277344 532.75 489.082031 530.933594 476.914062 C 529.640625 468.300781 527.984375 459.808594 525.84375 451.378906 C 525.425781 449.722656 525.382812 447.695312 527.714844 447.210938 C 529.742188 446.796875 530.246094 448.089844 530.722656 449.949219 C 534.4375 464.707031 537.570312 479.558594 538.191406 494.824219 C 538.269531 496.875 538.945312 497.933594 541.277344 497.921875 C 545.199219 497.898438 549.097656 497.898438 552.984375 497.234375 C 554.605469 496.964844 555.460938 496.421875 555.496094 494.65625 C 555.742188 483.519531 557.996094 472.679688 560.082031 461.78125 C 560.824219 457.863281 562.300781 454.089844 562.480469 450.050781 C 562.570312 448.167969 563.878906 446.976562 565.632812 447.121094 C 567.582031 447.28125 567.707031 449.003906 567.402344 450.566406 C 565.996094 457.726562 564.40625 464.855469 563.15625 472.039062 C 562.039062 478.453125 560.980469 484.917969 560.441406 491.414062 C 559.832031 498.628906 559.921875 505.902344 559.507812 513.132812 C 559.347656 515.902344 560.710938 517.261719 563 517.871094 C 579.976562 522.316406 597.144531 522.984375 614.550781 520.933594 C 619.476562 520.347656 624.285156 519.898438 628.996094 518.175781 C 633.296875 516.597656 635.496094 512.535156 633.410156 508.359375 C 631.925781 505.375 629.996094 502.480469 626.855469 501.039062 C 623.667969 499.574219 622.796875 497.820312 624.714844 494.722656 C 626.3125 492.132812 627.632812 489.351562 629.1875 486.730469 C 629.875 485.546875 630.832031 484.828125 632.320312 485.863281 C 633.648438 486.785156 633.851562 487.777344 632.9375 489.050781 C 631.585938 490.90625 631.417969 493.28125 630.078125 495.195312 C 628.882812 496.886719 632.027344 500.171875 634.617188 500.398438 C 647.15625 501.457031 659.210938 498.945312 671.128906 495.546875 C 673.089844 494.980469 674.960938 494.09375 676.863281 493.339844 C 678.902344 492.527344 679.265625 490.78125 679.433594 488.859375 C 680.628906 475.683594 671.410156 466.417969 659.863281 463.910156 C 657.285156 463.34375 654.773438 462.578125 652.101562 462.445312 C 650.308594 462.355469 648.574219 461.722656 648.980469 459.292969 C 649.339844 457.109375 651.078125 456.972656 652.699219 457.199219 C 661.871094 458.527344 670.703125 460.675781 677.144531 468.121094 C 678.207031 469.347656 678.519531 468.433594 679.105469 467.613281 C 683.039062 462.152344 684.917969 455.949219 686.429688 449.453125 C 689.695312 435.433594 690.316406 421.214844 689.640625 406.996094 C 689.132812 396.59375 688.320312 386.191406 686.734375 375.832031 C 685.292969 366.441406 683.183594 357.222656 681.269531 347.96875 C 679.90625 341.414062 677.5625 335.042969 675.367188 328.691406 C 673.699219 323.863281 671.785156 319.101562 669.597656 314.472656 C 668.132812 311.375 669.847656 309.96875 671.941406 308.789062 C 682.386719 302.875 690.089844 294.363281 696.535156 284.34375 C 701.457031 276.699219 705.175781 268.558594 707.644531 259.980469 C 712.09375 244.445312 713.683594 228.636719 711.644531 212.367188 C 710.503906 203.304688 708.464844 194.558594 705.46875 186.089844 C 702.324219 177.242188 698.125 168.742188 691.847656 161.535156 C 689.640625 159.015625 688.917969 156.617188 689.832031 153.125 C 693.402344 139.457031 694.046875 125.621094 691.78125 111.570312 C 690.507812 103.644531 688.625 95.898438 686.046875 88.398438 C 683.296875 80.417969 679.78125 72.660156 674.746094 65.714844 C 673.550781 64.070312 672.132812 62.4375 671.300781 60.667969 C 668.84375 55.46875 664.425781 54.171875 659.335938 53.78125 C 646.546875 52.800781 634.042969 54.644531 622.101562 58.96875 C 605.59375 64.949219 591.207031 74.304688 580.15625 88.265625 C 579.3125 89.324219 578.792969 90.582031 577.890625 91.652344 C 576.8125 92.9375 575.921875 93.589844 574.488281 92.429688 C 573.125 91.316406 572.933594 90.019531 573.972656 88.5 C 578.296875 82.152344 583.582031 76.703125 589.40625 71.691406 C 598.488281 63.867188 608.953125 58.363281 619.992188 54.230469 C 630.855469 50.164062 642.277344 48.003906 654.027344 48.871094 C 657.476562 49.128906 660.910156 48.9375 664.359375 49.253906 C 670.511719 49.828125 673.191406 54.5 676.289062 58.632812 C 682.519531 66.929688 686.9375 76.296875 690.664062 85.890625 C 694.292969 95.234375 696.242188 105.109375 697.378906 115.09375 C 698.652344 126.238281 698.574219 137.320312 696.105469 148.339844 C 695.621094 150.523438 695.804688 152.878906 694.789062 154.996094 C 693.730469 157.203125 695.769531 158.507812 696.714844 159.6875 C 701.953125 166.253906 705.390625 173.71875 708.847656 181.285156 C 711.925781 188.015625 713.828125 195.042969 715.238281 202.132812 Z M 715.238281 202.132812 " fill-opacity="1" fill-rule="nonzero"/><path fill="#936242" d="M 669.058594 117.390625 C 668.695312 121.320312 669.484375 125.214844 668.390625 129.089844 C 666.917969 134.347656 665.160156 134.742188 661.023438 131.285156 C 652.925781 124.527344 644.417969 118.324219 635.144531 113.15625 C 628.578125 109.488281 621.726562 106.546875 614.800781 103.710938 C 612.511719 102.777344 610.078125 102.945312 607.792969 102.191406 C 606.078125 101.617188 604.480469 101.109375 604.039062 99.128906 C 603.589844 97.046875 604.648438 95.660156 606.191406 94.421875 C 612.804688 89.132812 620.128906 85.15625 628.039062 82.117188 C 636.757812 78.75 645.769531 77.511719 654.929688 78.851562 C 659.683594 79.550781 662.332031 83.683594 663.863281 88.003906 C 665.914062 93.769531 667.164062 99.769531 668.472656 105.761719 C 669.316406 109.679688 668.683594 113.550781 669.058594 117.390625 Z M 664.167969 122.320312 C 664.980469 111.039062 662.398438 100.265625 659.132812 89.617188 C 657.859375 85.449219 654.984375 83.683594 650.625 83.480469 C 642.796875 83.121094 635.429688 84.652344 628.171875 87.566406 C 625.34375 88.703125 622.550781 89.988281 619.871094 91.316406 C 616.851562 92.8125 613.605469 94.421875 611.375 97.507812 C 618.40625 99.5 624.667969 102.078125 630.808594 105.140625 C 641.367188 110.421875 651.121094 116.851562 660.316406 124.203125 C 661.238281 124.933594 662.015625 126.601562 663.378906 125.855469 C 664.574219 125.214844 664.089844 123.550781 664.167969 122.320312 Z M 664.167969 122.320312 " fill-opacity="1" fill-rule="nonzero"/><path fill="#ed8f6b" d="M 471.761719 259.832031 C 493.910156 258.078125 510.898438 244.476562 509.707031 229.449219 C 508.515625 214.425781 489.59375 203.664062 467.445312 205.417969 C 445.296875 207.171875 428.304688 220.773438 429.496094 235.800781 C 430.6875 250.824219 449.609375 261.585938 471.761719 259.832031 Z M 471.761719 259.832031 " fill-opacity="1" fill-rule="nonzero"/><path fill="#ed8f6b" d="M 664.285156 235.824219 C 665.476562 220.796875 648.484375 207.195312 626.335938 205.441406 C 604.183594 203.6875 585.261719 214.445312 584.074219 229.472656 C 582.878906 244.496094 599.871094 258.101562 622.019531 259.855469 C 644.171875 261.605469 663.09375 250.847656 664.285156 235.824219 Z M 664.285156 235.824219 " fill-opacity="1" fill-rule="nonzero"/><path fill="#936242" d="M 647.503906 427.117188 C 648.753906 432.351562 647.867188 437.585938 647.390625 442.832031 C 646.660156 450.9375 643.515625 458.460938 641.839844 466.328125 C 641.34375 468.636719 640.160156 470.820312 639.101562 472.960938 C 638.515625 474.144531 637.285156 474.738281 635.921875 474.433594 C 634.492188 474.121094 634.1875 472.882812 634.492188 471.722656 C 635.191406 468.996094 635.878906 466.25 636.949219 463.660156 C 638.964844 458.785156 639.957031 453.617188 641.207031 448.5625 C 642.59375 442.945312 643.40625 437.148438 643.472656 431.800781 C 643.394531 430.03125 643.257812 428.769531 643.28125 427.507812 C 643.304688 426.101562 643.394531 424.660156 645.351562 424.558594 C 647.191406 424.46875 647.234375 425.976562 647.503906 427.117188 Z M 647.503906 427.117188 " fill-opacity="1" fill-rule="nonzero"/><path fill="#936242" d="M 645.21875 319.867188 C 645.929688 321.65625 644.8125 322.421875 643.203125 323.128906 C 635 326.722656 626.335938 328.546875 617.671875 330.527344 C 611.183594 332.023438 604.636719 332.992188 598.101562 334.097656 C 588.921875 335.648438 579.628906 335.933594 570.433594 337.292969 C 562.535156 338.464844 554.570312 338.003906 543.148438 338.148438 C 533.59375 338.511719 520.726562 336.777344 507.785156 335.558594 C 496.234375 334.480469 484.835938 332.679688 473.601562 330.199219 C 465.792969 328.46875 457.761719 326.878906 450.449219 323.140625 C 448.703125 322.253906 447.871094 321.542969 448.589844 319.539062 C 449.359375 317.433594 450.8125 317.792969 452.195312 318.457031 C 459.148438 321.789062 466.664062 323.457031 474.085938 325.023438 C 485.589844 327.441406 497.136719 329.808594 508.945312 330.59375 C 516.730469 331.113281 524.457031 332.417969 532.265625 332.871094 C 544.828125 333.589844 557.375 333.601562 569.871094 332.136719 C 578.972656 331.078125 588.1875 330.867188 597.203125 329.109375 C 606.824219 327.230469 616.613281 326.273438 626.042969 323.3125 C 631.136719 321.710938 636.429688 320.734375 641.308594 318.480469 C 643.191406 317.613281 644.519531 318.085938 645.21875 319.867188 Z M 645.21875 319.867188 " fill-opacity="1" fill-rule="nonzero"/><path fill="#936242" d="M 644.035156 339.488281 C 643.910156 340.535156 643.347656 341.078125 642.707031 341.59375 C 641.839844 342.292969 640.878906 342.191406 640.214844 341.492188 C 638.253906 339.421875 636.375 337.273438 634.515625 335.109375 C 633.726562 334.1875 634.007812 333.003906 634.605469 332.214844 C 635.339844 331.25 636.476562 331.585938 637.367188 332.226562 C 640.113281 334.230469 642.289062 336.742188 644.035156 339.488281 Z M 644.035156 339.488281 " fill-opacity="1" fill-rule="nonzero"/><path fill="#936242" d="M 641.398438 365.664062 C 642.144531 367.816406 641.917969 369.964844 642.019531 371.835938 C 642.019531 379.839844 639.234375 381.992188 631.429688 380.300781 C 630.425781 380.089844 629.433594 379.785156 628.421875 379.625 C 626.3125 379.324219 625.164062 379.90625 624.613281 382.351562 C 623.316406 388.136719 621.109375 393.585938 616.828125 397.945312 C 615.992188 398.789062 615.082031 399.441406 613.886719 399.621094 C 612.589844 399.8125 611.613281 399.304688 611.082031 398.125 C 610.585938 397.042969 610.9375 396.074219 611.835938 395.355469 C 616.320312 391.785156 618.324219 386.933594 619.273438 381.429688 C 620.140625 376.382812 624.996094 373.738281 630.820312 374.875 C 631.824219 375.078125 632.835938 375.257812 633.828125 375.527344 C 636.058594 376.136719 636.542969 375.066406 636.667969 373.050781 C 636.992188 367.726562 635.347656 362.828125 633.253906 358.167969 C 631.441406 354.125 629.953125 349.984375 628.207031 345.917969 C 627.632812 344.589844 627.269531 343.296875 629.074219 342.519531 C 630.855469 341.742188 631.5625 342.742188 632.195312 344.160156 C 635.359375 351.289062 638.851562 358.269531 641.398438 365.664062 Z M 641.398438 365.664062 " fill-opacity="1" fill-rule="nonzero"/><path fill="#936242" d="M 635.652344 476.484375 C 638.0625 477.261719 637.242188 479.164062 636.386719 480.347656 C 635.371094 481.765625 633.78125 482.835938 631.980469 483.25 C 630.324219 483.632812 629.152344 483.21875 629.546875 481.539062 C 629.570312 479.210938 633.792969 475.875 635.652344 476.484375 Z M 635.652344 476.484375 " fill-opacity="1" fill-rule="nonzero"/><path fill="#5f3925" d="M 611.058594 202.753906 C 612.917969 204.894531 613.4375 207.4375 611.5 209.519531 C 609.707031 211.457031 607.082031 211.410156 604.886719 209.847656 C 597.101562 204.308594 588.425781 200.929688 579.144531 198.980469 C 577.566406 198.644531 577.113281 197.609375 576.890625 196.371094 C 576.609375 194.75 577.339844 193.566406 578.792969 192.722656 C 581.203125 191.347656 583.808594 191.214844 586.542969 191.246094 C 595.917969 192.464844 604.570312 195.277344 611.058594 202.753906 Z M 611.058594 202.753906 " fill-opacity="1" fill-rule="nonzero"/><path fill="#936242" d="M 604.59375 390.175781 C 606.304688 390.289062 607.308594 391.695312 607.128906 393.304688 C 606.722656 397.042969 605.933594 400.792969 604.324219 404.148438 C 602.890625 407.121094 599.75 408.019531 596.449219 407.917969 C 594.992188 407.828125 593.28125 407.875 592.898438 406.039062 C 592.503906 404.113281 594.023438 403.539062 595.535156 403.113281 C 600.222656 401.792969 601.742188 399.824219 601.878906 394.882812 C 601.898438 394.195312 601.789062 393.484375 601.933594 392.820312 C 602.261719 391.414062 603.003906 390.0625 604.59375 390.175781 Z M 604.59375 390.175781 " fill-opacity="1" fill-rule="nonzero"/><path fill="#936242" d="M 587.21875 408.246094 C 590.386719 409.914062 587.546875 412.308594 586.679688 414.042969 C 581.734375 423.863281 573.261719 429.839844 563.84375 434.941406 C 558.390625 437.890625 552.691406 439.410156 546.675781 440.300781 C 541.839844 439.667969 536.972656 438.757812 532.625 436.550781 C 526.078125 433.230469 519.78125 429.433594 514.328125 424.4375 C 510.410156 420.832031 508.179688 416.058594 505.597656 411.535156 C 504.875 410.261719 504.988281 408.957031 506.046875 408.144531 C 507.320312 407.199219 508.425781 408.121094 509.269531 409.15625 C 511.457031 411.816406 512.863281 414.980469 514.949219 417.75 C 517.101562 420.597656 519.804688 422.679688 522.644531 424.492188 C 527.308594 427.464844 531.960938 430.515625 537.144531 432.6875 C 543.980469 435.570312 550.425781 435.503906 557.183594 432.292969 C 563.449219 429.332031 569.320312 425.867188 574.773438 421.621094 C 578.140625 418.988281 580.292969 415.394531 582.554688 411.859375 C 583.671875 410.125 584.292969 406.703125 587.21875 408.246094 Z M 587.21875 408.246094 " fill-opacity="1" fill-rule="nonzero"/><path fill="#5f3925" d="M 579.503906 224.574219 C 580.121094 225.8125 580.214844 227.273438 578.78125 228.277344 C 578.152344 228.703125 577.699219 229.066406 577.375 229.246094 C 575.449219 230.28125 574.984375 230.382812 574.578125 230.664062 C 572.925781 231.8125 573.441406 235.3125 573.566406 236.246094 C 574.445312 242.8125 573.621094 251.074219 571.808594 255.9375 C 570.523438 259.339844 568.699219 262.570312 566.300781 265.632812 C 560.035156 273.570312 551.441406 275.980469 541.535156 274.3125 C 530.417969 272.445312 522.40625 261.671875 520.839844 251.175781 C 520.34375 247.890625 519.445312 244.667969 519.554688 241.011719 C 519.625 238.375 519.769531 235.640625 520.019531 232.804688 C 520.085938 232.003906 520.175781 231.203125 520.253906 230.417969 C 519.117188 230.179688 518.203125 229.886719 517.5625 229.660156 C 515.445312 228.894531 514.632812 228.152344 514.351562 227.9375 C 513.101562 226.992188 512.832031 225.84375 513.730469 224.695312 C 514.53125 223.683594 515.601562 223.199219 517.078125 223.898438 C 519.242188 224.910156 521.484375 226.070312 523.804688 226.398438 C 530.84375 227.398438 537.199219 225.921875 542.03125 220.183594 C 543.765625 218.121094 543.632812 217.03125 540.828125 216.09375 C 538.753906 215.417969 536.546875 215.027344 534.832031 213.078125 C 531.554688 209.363281 531.746094 205.410156 535.53125 202.324219 C 540.757812 198.082031 552.902344 197.855469 558.605469 202.71875 C 562.617188 206.140625 561.386719 212.851562 556.183594 214.96875 C 555.023438 215.453125 553.828125 215.960938 552.601562 216.140625 C 548.792969 216.714844 550.257812 218.402344 551.574219 220.238281 C 555.675781 225.921875 566.457031 228.535156 572.765625 225.542969 C 573.902344 225 575.132812 224.664062 576.246094 224.089844 C 577.507812 223.425781 578.792969 223.144531 579.492188 224.574219 Z M 568.675781 245.332031 C 568.664062 241.777344 568.925781 238.21875 568.316406 234.660156 C 567.988281 232.757812 567.257812 232.171875 565.261719 231.9375 C 558.074219 231.089844 551.316406 229.15625 546.933594 222.660156 C 540.636719 229.730469 538.789062 229.132812 532.589844 231.382812 C 530.347656 232.195312 527.183594 230.980469 525.832031 233.355469 C 524.546875 235.617188 524.90625 238.5 524.953125 241.15625 C 524.964844 242.417969 525.03125 243.691406 524.976562 244.949219 C 524.863281 247.125 526.28125 247.507812 527.542969 246.527344 C 529.246094 245.199219 531.25 244.726562 533.109375 243.949219 C 539.304688 241.335938 545.613281 240.132812 552.476562 241.574219 C 557.375 242.609375 561.859375 244.273438 566.140625 246.695312 C 567.675781 247.5625 568.6875 247.527344 568.675781 245.332031 Z M 564.855469 259.160156 C 567.796875 254.308594 567.582031 253.519531 563.878906 251.222656 C 551.925781 243.835938 540.0625 244.941406 528.367188 251.808594 C 527.53125 252.292969 526.28125 253.078125 526.902344 254.824219 C 529.84375 263.019531 536.398438 269.777344 546.773438 269.640625 C 554.808594 269.96875 560.722656 265.980469 564.855469 259.160156 Z M 564.855469 259.160156 " fill-opacity="1" fill-rule="nonzero"/><path fill="#936242" d="M 567.808594 87.464844 C 569.523438 87.960938 571.042969 88.625 570.535156 90.652344 C 569.984375 92.859375 568.046875 92.789062 566.3125 92.363281 C 558.910156 90.527344 551.359375 90.066406 543.800781 90.4375 C 538.234375 90.707031 532.589844 90.730469 527.136719 92.296875 C 525.605469 92.746094 523.769531 92.972656 523.058594 90.921875 C 522.261719 88.613281 523.984375 87.882812 525.683594 87.410156 C 529.210938 86.429688 532.726562 85.324219 537.265625 85.71875 C 543.214844 84.550781 549.964844 85.167969 556.734375 85.527344 C 560.542969 85.730469 564.171875 86.429688 567.808594 87.464844 Z M 567.808594 87.464844 " fill-opacity="1" fill-rule="nonzero"/><path fill="#936242" d="M 519.433594 88.1875 C 520.570312 89.71875 520.976562 91.023438 519.363281 92.316406 C 517.664062 93.691406 516.300781 92.871094 515.34375 91.328125 C 510.363281 83.390625 503.613281 77.164062 496.054688 71.847656 C 489.902344 67.515625 483.289062 63.992188 476.261719 61.03125 C 468.25 57.675781 460.003906 55.535156 451.578125 54.253906 C 444.21875 53.125 436.671875 53.238281 429.246094 54.578125 C 427.390625 54.917969 425.734375 55.886719 424.640625 57.347656 C 419.535156 64.203125 414.894531 71.320312 411.390625 79.179688 C 409.125 84.277344 406.976562 89.414062 405.5 94.773438 C 403.359375 102.574219 401.925781 110.488281 400.96875 118.5625 C 399.855469 127.953125 401.230469 137.136719 401.894531 146.394531 C 402.109375 149.285156 403.300781 152.136719 404.25 154.925781 C 404.835938 156.660156 404.632812 158.101562 403.472656 159.40625 C 394.085938 169.992188 388.328125 182.613281 384.960938 196.019531 C 381.300781 210.601562 380.015625 225.484375 382.121094 240.695312 C 383.269531 249.003906 384.972656 257.085938 387.484375 264.96875 C 389.46875 271.160156 392.386719 277.105469 395.796875 282.710938 C 398.976562 287.925781 402.558594 292.84375 406.773438 297.226562 C 410.972656 301.59375 415.492188 305.644531 420.976562 308.394531 C 423.828125 309.8125 425.113281 312.605469 423.671875 315.484375 C 421.621094 319.550781 419.929688 323.738281 418.511719 328.039062 C 414.769531 339.421875 411.527344 350.871094 409.207031 362.671875 C 407.167969 373.050781 405.847656 383.464844 404.585938 393.914062 C 404.382812 395.578125 403.503906 396.605469 401.984375 396.503906 C 400.460938 396.402344 399.785156 395.296875 399.742188 393.597656 C 399.628906 389.894531 399.832031 386.210938 400.644531 382.632812 C 401.183594 380.199219 400.8125 379.695312 398.222656 379.445312 C 390.683594 378.703125 383.84375 375.988281 378.167969 370.8125 C 377.402344 370.125 376.746094 369.292969 376.152344 368.457031 C 375.316406 367.285156 374.640625 366.039062 376.261719 364.898438 C 377.625 363.953125 378.910156 364.089844 379.949219 365.328125 C 383.6875 369.832031 388.644531 372.207031 394.1875 373.582031 C 395.078125 373.792969 395.980469 373.953125 396.867188 374.132812 C 399.96875 374.75 401.632812 374.15625 402.355469 370.40625 C 404.40625 359.675781 406.398438 348.902344 409.609375 338.441406 C 411.898438 330.945312 414.410156 323.46875 417.566406 316.320312 C 418.90625 313.289062 417.734375 312.300781 415.851562 311.175781 C 410.164062 307.773438 405.339844 303.382812 401.070312 298.417969 C 392.476562 288.441406 386.300781 277.152344 382.1875 264.574219 C 380.261719 258.6875 378.539062 252.753906 377.558594 246.730469 C 375.835938 236.167969 375.710938 225.484375 376.488281 214.777344 C 377.0625 206.851562 378.796875 199.230469 381.007812 191.652344 C 384.003906 181.363281 388.429688 171.746094 394.324219 162.796875 C 394.886719 161.941406 395.605469 161.175781 396.25 160.375 C 398.242188 157.898438 398.953125 155.691406 398.109375 152.042969 C 395.144531 139.121094 394.910156 125.96875 396.476562 112.71875 C 397.464844 104.386719 399.550781 96.347656 402.0625 88.5 C 404.609375 80.542969 408.035156 72.796875 412.640625 65.726562 C 415.617188 61.164062 418.726562 56.683594 422.058594 52.394531 C 424.347656 49.433594 428.097656 49.367188 431.445312 49.050781 C 434.878906 48.722656 438.363281 48.972656 442.484375 48.972656 C 452.714844 47.847656 463.167969 50.425781 473.117188 54.09375 C 485.117188 58.519531 496.382812 64.542969 505.992188 73.449219 C 510.925781 78.019531 515.445312 82.804688 519.433594 88.1875 Z M 519.433594 88.1875 " fill-opacity="1" fill-rule="nonzero"/><path fill="#5f3925" d="M 515.816406 193.65625 C 516.660156 194.578125 517.222656 195.414062 516.839844 196.664062 C 516.445312 197.980469 515.636719 198.699219 514.214844 199.003906 C 505.113281 200.917969 496.640625 204.328125 488.980469 209.667969 C 486.523438 211.378906 483.257812 211.21875 481.578125 209.082031 C 479.796875 206.785156 480.746094 204.859375 482.492188 202.808594 C 489.082031 195.074219 497.835938 192.292969 507.421875 191.246094 C 510.464844 191.40625 513.472656 191.101562 515.816406 193.65625 Z M 515.816406 193.65625 " fill-opacity="1" fill-rule="nonzero"/><path fill="#936242" d="M 498.941406 403.316406 C 500.066406 403.675781 500.820312 404.472656 500.808594 405.882812 C 500.796875 407.144531 499.875 407.378906 499.074219 407.683594 C 494.929688 409.238281 489.25 406.175781 488.429688 401.875 C 487.933594 399.304688 486.785156 396.886719 486.839844 394.441406 C 485.996094 392.144531 487.066406 390.546875 488.800781 390.210938 C 490.996094 389.792969 490.917969 391.753906 491.1875 393.417969 C 491.628906 396.085938 492.5625 398.664062 493.148438 401.320312 C 493.398438 402.4375 494.140625 402.378906 494.917969 402.515625 C 496.257812 402.761719 497.644531 402.898438 498.941406 403.316406 Z M 498.941406 403.316406 " fill-opacity="1" fill-rule="nonzero"/><path fill="#936242" d="M 486.613281 93.757812 C 488.304688 94.996094 490.265625 96.425781 489.679688 99.039062 C 489.09375 101.707031 486.773438 101.886719 484.621094 102.382812 C 472.507812 105.128906 461.875 110.984375 451.429688 117.515625 C 444.378906 121.929688 437.980469 127.0625 431.589844 132.273438 C 428.773438 134.558594 426.703125 133.964844 425.597656 130.113281 C 423.863281 124.078125 423.582031 117.898438 424.335938 111.671875 C 425.226562 104.296875 426.519531 96.96875 428.945312 89.976562 C 431.636719 82.195312 435.433594 77.5 445.007812 78.367188 C 446.046875 78.46875 447.082031 78.539062 448.117188 78.628906 C 462.71875 79.167969 475.113281 85.371094 486.613281 93.757812 Z M 482.511719 97.371094 C 480.113281 95.390625 477.996094 93.769531 475.597656 92.453125 C 465.140625 86.710938 454.28125 82.703125 442.070312 83.46875 C 439.261719 83.636719 437.203125 84.640625 435.996094 87.082031 C 433.507812 92.105469 432.074219 97.441406 430.992188 102.957031 C 429.652344 109.78125 429.214844 116.589844 429.53125 123.492188 C 429.5625 124.425781 429.621094 125.597656 430.453125 125.949219 C 431.367188 126.328125 432.054688 125.28125 432.761719 124.71875 C 435.140625 122.839844 437.4375 120.824219 439.90625 119.058594 C 452.839844 109.78125 466.503906 101.910156 482.511719 97.371094 Z M 482.511719 97.371094 " fill-opacity="1" fill-rule="nonzero"/><path fill="#936242" d="M 481.542969 395.128906 C 482.695312 395.894531 483.246094 397.066406 482.414062 398.417969 C 481.535156 399.835938 480.101562 399.992188 478.785156 399.351562 C 477.230469 398.597656 475.96875 397.382812 474.964844 395.917969 C 472.035156 391.660156 469.894531 387.058594 469.027344 381.945312 C 468.722656 380.078125 467.824219 379.3125 466.007812 379.582031 C 464.769531 379.761719 463.53125 379.988281 462.292969 380.269531 C 454.417969 382.023438 451.65625 379.839844 451.679688 371.835938 C 451.339844 366.621094 453.4375 362.03125 455.417969 357.4375 C 457.300781 353.054688 459.574219 348.824219 461.222656 344.363281 C 461.929688 342.4375 462.785156 341.945312 464.421875 342.472656 C 466.054688 342.992188 466.289062 344.128906 465.582031 345.738281 C 463.753906 349.882812 462.054688 354.09375 460.351562 358.300781 C 458.484375 362.941406 456.578125 367.558594 456.457031 372.714844 C 456.398438 375.335938 457.433594 375.886719 459.734375 375.527344 C 461.875 375.191406 463.957031 374.628906 466.1875 374.707031 C 470.933594 374.863281 472.65625 376.554688 473.894531 381.144531 C 475.304688 386.347656 476.542969 391.796875 481.542969 395.128906 Z M 481.542969 395.128906 " fill-opacity="1" fill-rule="nonzero"/><path fill="#936242" d="M 458.347656 476.472656 C 460.792969 476.519531 464.273438 479.511719 464.105469 481.335938 C 463.980469 482.664062 463.316406 483.429688 461.863281 483.328125 C 459.8125 483.183594 456.566406 480.15625 456.5 478.410156 C 456.445312 476.933594 456.949219 476.226562 458.347656 476.472656 Z M 458.347656 476.472656 " fill-opacity="1" fill-rule="nonzero"/><path fill="#936242" d="M 458.652344 332.207031 C 459.226562 332.878906 460.117188 333.613281 459.453125 334.582031 C 457.570312 337.304688 455.273438 339.667969 452.816406 341.886719 C 452.660156 342.023438 452.398438 342.035156 452.039062 342.15625 C 450.710938 341.574219 448.953125 340.605469 449.953125 339.050781 C 451.679688 336.382812 453.617188 333.726562 456.5 332.046875 C 457.277344 331.597656 458.011719 331.449219 458.652344 332.207031 Z M 458.652344 332.207031 " fill-opacity="1" fill-rule="nonzero"/><path fill="#936242" d="M 458.695312 470.6875 C 459.113281 472.285156 459.585938 473.78125 457.75 474.425781 C 455.992188 475.03125 454.417969 473.691406 454.023438 472.308594 C 450.980469 461.734375 446.640625 451.511719 446 440.289062 C 445.753906 435.796875 445.5625 431.40625 446.089844 426.933594 C 446.269531 425.496094 446.429688 424.503906 448.21875 424.570312 C 449.898438 424.636719 450.4375 425.730469 450.507812 427.046875 C 450.574219 428.523438 450.328125 430.007812 450.179688 432.011719 C 450.765625 438.214844 451.578125 444.859375 453.109375 451.457031 C 454.640625 457.976562 457.019531 464.222656 458.695312 470.6875 Z M 458.695312 470.6875 " fill-opacity="1" fill-rule="nonzero"/><path fill="#936242" d="M 404.609375 406.421875 C 404.777344 407.851562 403.886719 408.945312 402.804688 409.023438 C 399.449219 409.269531 399.71875 405.882812 398.378906 404.113281 C 397.488281 402.933594 398.265625 401.816406 399.269531 401.1875 C 400.621094 400.34375 401.554688 400.984375 402.21875 402.378906 C 402.886719 403.789062 404.316406 404.777344 404.609375 406.421875 Z M 404.609375 406.421875 " fill-opacity="1" fill-rule="nonzero"/><path fill="#936242" d="M 402.582031 415.382812 C 402.601562 416.542969 402.152344 417.386719 400.9375 417.566406 C 399.210938 417.816406 396.667969 415.269531 396.554688 413.066406 C 396.484375 411.792969 396.8125 410.519531 398.332031 410.203125 C 399.460938 409.96875 402.480469 413.71875 402.582031 415.382812 Z M 402.582031 415.382812 " fill-opacity="1" fill-rule="nonzero"/><path fill="#936242" d="M 376.242188 355.488281 C 377.34375 355.53125 377.558594 356.613281 377.625 357.695312 C 377.199219 358.910156 376.882812 360.476562 374.921875 359.765625 C 373.535156 359.25 372.09375 358.675781 370.933594 357.808594 C 369.546875 356.761719 369.355469 354.878906 370.664062 353.96875 C 372.757812 352.503906 374.203125 355.410156 376.242188 355.488281 Z M 376.242188 355.488281 " fill-opacity="1" fill-rule="nonzero"/><path fill="#936242" d="M 369.695312 349.148438 C 370.347656 350.0625 370.753906 351.941406 369.132812 352.785156 C 367.464844 353.664062 366.101562 352.539062 365.449219 351.222656 C 364.230469 348.777344 362.652344 346.324219 362.835938 343.476562 C 363.035156 340.34375 361.945312 339.207031 359.128906 340.242188 C 355.296875 339.511719 352.570312 341.875 349.449219 342.902344 C 347.972656 343.386719 346.148438 344.488281 345.246094 342.417969 C 344.347656 340.367188 345.664062 339.027344 347.558594 338.136719 C 352.929688 335.628906 358.417969 334.320312 364.457031 335.15625 C 367.53125 335.570312 368.027344 337.394531 367.847656 339.613281 C 367.589844 343.011719 367.542969 346.175781 369.695312 349.148438 Z M 369.695312 349.148438 " fill-opacity="1" fill-rule="nonzero"/><path fill="#936242" d="M 357.675781 461.613281 C 357.730469 463.683594 353.191406 467.253906 351.332031 466.597656 C 349.359375 465.902344 349.496094 464.300781 350.566406 463.074219 C 351.660156 461.804688 353.121094 460.8125 354.566406 459.890625 C 356.636719 458.570312 357.4375 459.765625 357.675781 461.613281 Z M 357.675781 461.613281 " fill-opacity="1" fill-rule="nonzero"/><path fill="#936242" d="M 351.578125 457.300781 C 351.105469 459.371094 349.191406 460.082031 347.570312 461.082031 C 346.316406 461.859375 345.054688 462.140625 343.75 461.128906 C 342.949219 460.507812 342.847656 459.84375 343.410156 459.066406 C 344.910156 456.960938 347.0625 455.699219 349.496094 455.195312 C 350.386719 455.003906 351.332031 456.003906 351.578125 457.300781 Z M 351.578125 457.300781 " fill-opacity="1" fill-rule="nonzero"/><path fill="#936242" d="M 339.695312 450.894531 C 341.597656 450.9375 343.863281 450.859375 343.785156 453.3125 C 343.714844 455.601562 341.652344 456.386719 339.480469 456.265625 C 329.9375 455.691406 322.917969 451.007812 318.121094 442.921875 C 314.851562 437.417969 313.421875 431.347656 313.242188 424.976562 C 313.152344 422.09375 311.03125 420.035156 309.929688 417.613281 C 307.226562 411.625 307.527344 405.308594 306.539062 399.710938 C 307.144531 389.625 308.476562 380.371094 312.496094 371.519531 C 317.082031 361.433594 322.996094 352.695312 332.550781 346.707031 C 334.253906 345.648438 336.066406 345.074219 337.878906 344.433594 C 339.289062 343.925781 340.71875 344.410156 341.417969 345.761719 C 342.160156 347.214844 340.921875 348.101562 339.976562 348.914062 C 338.386719 350.265625 336.222656 350.433594 334.464844 351.570312 C 326.558594 356.738281 321.554688 363.976562 317.667969 372.5 C 313.625 381.371094 311.855469 390.570312 311.945312 400.105469 C 312.011719 407.515625 313.0625 414.910156 317.523438 421.292969 C 318.402344 422.566406 318.300781 424.109375 318.390625 425.605469 C 318.785156 432.214844 320.417969 438.40625 324.742188 443.632812 C 328.617188 448.316406 333.621094 450.757812 339.695312 450.894531 Z M 339.695312 450.894531 " fill-opacity="1" fill-rule="nonzero"/><path fill="#ffffff" d="M 563.878906 251.222656 C 567.582031 253.519531 567.796875 254.308594 564.855469 259.160156 C 560.722656 265.980469 554.808594 269.96875 546.773438 269.640625 C 536.398438 269.777344 529.84375 263.019531 526.902344 254.824219 C 526.28125 253.078125 527.53125 252.292969 528.367188 251.808594 C 540.0625 244.941406 551.925781 243.835938 563.878906 251.222656 Z M 563.878906 251.222656 " fill-opacity="0.14" fill-rule="nonzero"/></svg>