<svg xmlns="http://www.w3.org/2000/svg" xmlns:xlink="http://www.w3.org/1999/xlink" width="1366" zoomAndPan="magnify" viewBox="0 0 1024.5 576" height="768" preserveAspectRatio="xMidYMid meet" version="1.0"><defs><clipPath id="16a47a8eee"><path d="M 279.535156 57.710938 L 744.210938 57.710938 L 744.210938 532.21875 L 279.535156 532.21875 Z M 279.535156 57.710938 " clip-rule="nonzero"/></clipPath></defs><g clip-path="url(#16a47a8eee)"><path fill="#ffffff" d="M 737.953125 295.113281 C 732.601562 283.171875 725.886719 273.332031 717.394531 265.027344 C 708.097656 255.941406 697.269531 250.328125 685.203125 248.351562 C 683.042969 248 680.894531 247.847656 678.78125 247.90625 L 678.089844 247.730469 C 678.089844 247.730469 678.046875 247.707031 678.035156 247.695312 L 673.921875 245.542969 L 673.464844 245.542969 C 673.351562 245.472656 673.246094 245.414062 673.140625 245.367188 C 672.953125 245.273438 672.765625 245.179688 672.589844 245.085938 C 659.03125 236.804688 644.535156 238.875 638.332031 239.765625 C 630.109375 240.933594 622.601562 244.492188 616.515625 249.964844 C 616.398438 242.234375 615.511719 234.488281 613.828125 226.757812 C 611.65625 216.839844 608.480469 207.589844 605.476562 199.460938 C 609.765625 191.296875 613.09375 182.242188 615.40625 172.464844 C 618.945312 157.433594 620.066406 142.59375 618.757812 128.359375 C 618.035156 120.441406 616.363281 112.460938 613.652344 103.9375 C 608.839844 88.847656 597.242188 78.871094 581.007812 75.851562 C 567.4375 73.339844 555.253906 72.835938 543.75 74.320312 C 533.097656 75.703125 522.839844 78.308594 513.265625 82.039062 C 499.597656 87.363281 488.421875 94.121094 479.089844 102.707031 C 478.199219 103.527344 477.300781 104.367188 476.402344 105.246094 C 463.648438 100.066406 451.042969 99.363281 440.835938 99.84375 C 436.082031 93.796875 430.5 89.128906 425.089844 84.824219 C 416.800781 78.238281 407.386719 72.800781 394.59375 67.199219 C 385.019531 62.988281 374.320312 59.910156 362.765625 58.027344 C 352.710938 56.425781 342.46875 60.730469 336.066406 69.257812 C 327.832031 80.179688 321.652344 92.578125 317.707031 106.101562 C 312.71875 123.175781 310.722656 138.59375 311.609375 153.222656 C 311.9375 158.523438 312.414062 164.054688 313.511719 169.738281 C 305.863281 176.628906 299.4375 184.816406 294.359375 194.160156 C 289.859375 202.394531 286.355469 211.203125 283.925781 220.289062 C 281.589844 228.980469 280.214844 237.835938 279.722656 247.355469 C 279.070312 259.917969 280.398438 272.234375 283.683594 283.941406 C 286.238281 293.148438 289.417969 300.996094 293.421875 307.953125 C 297.523438 315.078125 302.054688 321.125 307.113281 326.1875 C 302.230469 342.46875 302.765625 358.4375 303.246094 372.566406 L 303.292969 373.957031 C 303.503906 380.15625 304.332031 385.816406 305.125 391.289062 C 305.957031 396.953125 306.726562 402.285156 306.550781 406.964844 C 306.445312 409.746094 306.644531 412.238281 306.878906 414.378906 L 306.820312 419.792969 C 306.808594 425.269531 306.984375 430.765625 307.359375 436.132812 C 307.800781 442.613281 308.539062 449.292969 309.566406 456.007812 L 310.640625 462.976562 L 311.246094 463.550781 C 311.339844 464.054688 311.421875 464.554688 311.515625 465.046875 C 312.402344 470.089844 313.175781 474.449219 312.484375 477.128906 C 312.4375 477.246094 312.378906 477.351562 312.332031 477.457031 C 305.054688 492.894531 311.714844 512.769531 326.875 520.863281 C 345.363281 530.722656 363.910156 529.84375 377.984375 527.972656 C 385.121094 527.027344 392.105469 524.464844 398.203125 520.546875 C 400.445312 519.109375 402.375 517.585938 404.03125 516.007812 C 405.773438 516.3125 407.558594 516.535156 409.453125 516.628906 C 411.753906 516.734375 414.148438 516.78125 416.707031 516.78125 C 417.746094 516.78125 418.832031 516.78125 419.929688 516.757812 C 423.410156 521.167969 428.617188 525.144531 436.035156 527.773438 C 445.683594 531.203125 455.0625 532.195312 463.378906 532.195312 C 467.863281 532.195312 472.046875 531.902344 475.792969 531.550781 C 488.035156 530.40625 498.992188 525.808594 507.492188 518.265625 C 509.339844 516.628906 510.996094 514.746094 512.480469 512.628906 C 515.667969 512.230469 518.847656 511.820312 522.011719 511.398438 C 532.3125 510.054688 542.742188 507.328125 554.691406 502.839844 C 561.070312 507.011719 568.988281 509 577.761719 508.394531 C 595.710938 507.140625 612.03125 501.621094 626.234375 492.007812 C 637.65625 484.3125 642.769531 473.257812 645.621094 465.621094 L 646.078125 464.414062 C 648.808594 457.09375 651.648438 449.515625 653.527344 441.058594 L 653.773438 439.933594 C 654.707031 435.761719 655.679688 431.386719 656.460938 426.8125 C 675.882812 426.367188 692.363281 416.882812 702.292969 400.167969 C 702.863281 399.722656 704.453125 398.835938 705.632812 398.179688 L 705.796875 398.085938 C 717.664062 391.417969 725.839844 383.242188 730.628906 373.207031 L 732.929688 371.875 L 734.914062 363.171875 C 735.324219 361.40625 735.570312 359.863281 735.742188 358.738281 L 735.777344 358.527344 C 736 357.054688 736.058594 356.761719 736.222656 356.367188 C 736.257812 356.273438 736.339844 356.074219 736.515625 355.78125 L 740.800781 348.226562 L 740.578125 347.476562 C 742.648438 343.03125 743.828125 338.375 744.046875 333.769531 C 744.574219 323.253906 744.363281 309.371094 737.976562 295.101562 Z M 461.625 214.347656 C 461.625 214.347656 461.554688 214.347656 461.511719 214.347656 C 458.109375 214.347656 455.855469 211.542969 455.785156 209.578125 C 455.761719 208.863281 455.796875 206.429688 457.257812 205.15625 C 458.097656 204.417969 459.570312 203.789062 461.394531 203.589844 C 462.816406 203.847656 464.125 204.464844 465.0625 205.367188 C 466.148438 206.417969 466.671875 207.859375 466.589844 209.671875 C 466.285156 211.601562 463.472656 214.207031 461.601562 214.347656 Z M 375.03125 203.507812 C 374.144531 204.160156 373.105469 204.582031 372.054688 204.628906 C 371.09375 204.664062 368.675781 204.59375 367.136719 202.957031 C 366.179688 201.9375 365.558594 200.394531 365.382812 198.6875 C 365.59375 196.605469 366.410156 195.039062 367.195312 194.207031 C 368.722656 192.59375 371.539062 192.59375 372.355469 192.640625 C 375.242188 192.78125 377.554688 195.925781 377.648438 198.558594 C 376.609375 200.113281 375.730469 201.765625 375.019531 203.519531 Z M 611.023438 286.621094 C 612.777344 289.289062 614.285156 292.621094 616.058594 296.972656 C 617.4375 300.351562 617.90625 303.71875 617.484375 307.347656 L 605.546875 319.90625 L 604.753906 320.5625 C 601.761719 318.761719 598.785156 317.101562 595.792969 315.59375 C 596.390625 314.773438 596.972656 313.941406 597.535156 313.113281 C 603.667969 304.070312 608.105469 295.371094 611.011719 286.621094 Z M 611.023438 286.621094 " fill-opacity="1" fill-rule="nonzero"/></g><path fill="#f9c79a" d="M 721.097656 293.148438 C 726.75 303.453125 730.300781 314.667969 730.007812 326.609375 C 729.84375 333.195312 729.015625 339.863281 724.964844 345.5 C 724.34375 346.339844 723.703125 347.289062 722.894531 347.757812 C 722.359375 348.691406 721.890625 349.652344 721.519531 350.632812 C 721.484375 350.714844 721.460938 350.785156 721.4375 350.867188 C 722.617188 352.027344 723.691406 353.851562 723.738281 355.078125 C 723.796875 356.949219 722.894531 357.675781 721.296875 357.523438 C 720.910156 357.523438 720.476562 357.359375 720.023438 357.113281 C 719.753906 358.785156 719.390625 360.65625 718.550781 362.960938 C 718.339844 363.546875 718.105469 364.121094 717.851562 364.691406 C 715.609375 370.808594 711.882812 375.933594 706.683594 379.96875 C 702.480469 383.230469 697.902344 385.96875 693.136719 388.355469 C 690.214844 389.816406 689.945312 393.113281 688.21875 395.417969 C 681.492188 404.378906 672.917969 409.722656 661.832031 411.523438 C 656.15625 412.4375 650.679688 411.886719 645.164062 411.011719 C 643.332031 410.71875 643.414062 411.5 643.378906 412.636719 C 642.96875 424.707031 640.144531 436.378906 636.535156 447.761719 C 634.09375 455.457031 631.535156 463.292969 627.203125 470.300781 C 623.6875 476.007812 618.488281 479.902344 612.871094 483.164062 C 608.292969 485.832031 603.375 487.878906 598.363281 489.679688 C 588.542969 493.222656 578.378906 494.230469 568.136719 493.117188 C 564.386719 492.722656 560.683594 490.664062 558.652344 486.894531 C 557.859375 485.445312 556.980469 485.046875 555.523438 486.101562 C 550.429688 489.761719 544.355469 491.246094 538.5625 493.09375 C 531.015625 495.503906 523.121094 496.769531 515.25 497.914062 C 512.738281 498.289062 510.203125 498.628906 507.761719 498.289062 C 504.609375 497.832031 502.738281 499.117188 501.746094 501.796875 C 499.222656 508.582031 493.128906 511.539062 487.335938 513.867188 C 478.597656 517.398438 469.113281 518.476562 459.652344 517.691406 C 450.800781 516.945312 442.027344 515.515625 434.121094 511.046875 C 431.65625 509.65625 430.066406 507.351562 429.554688 504.558594 C 429.085938 502.054688 428.539062 500.917969 425.40625 501.65625 C 416.984375 503.667969 408.667969 502.558594 400.644531 499.421875 C 399.183594 498.847656 398.636719 499.234375 397.855469 500.5 C 392.003906 510.019531 382.460938 512.675781 372.261719 514.242188 C 365.464844 515.292969 358.632812 515.175781 351.953125 514.078125 C 343.226562 512.640625 334.523438 510.347656 328.277344 503.445312 C 323.535156 498.195312 322.355469 491.503906 324.949219 485.117188 C 327.855469 477.949219 326.875 470.859375 326.441406 463.667969 C 326.277344 461 325.402344 458.402344 325.449219 455.691406 C 324.339844 448.871094 323.523438 441.957031 323.054688 435.09375 C 322.703125 429.957031 322.542969 424.765625 322.554688 419.605469 C 322.132812 418.976562 321.910156 418.203125 321.933594 417.386719 C 322.332031 406.214844 319.5625 395.335938 318.816406 384.273438 C 318.207031 375.359375 316.804688 366.496094 316.921875 357.511719 C 317.074219 345.875 318.863281 334.585938 324.445312 324.246094 C 325.34375 322.574219 324.832031 322.398438 323.851562 321.640625 C 315.511719 315.253906 309.0625 307.160156 304.34375 297.917969 C 299.824219 289.078125 296.808594 279.636719 295.28125 269.671875 C 293.421875 257.507812 293.726562 245.578125 295.734375 233.425781 C 297.570312 222.394531 301.273438 212.148438 306.351562 202.441406 C 311.1875 193.226562 317.414062 184.757812 325.941406 178.523438 C 329.058594 176.242188 329.621094 173.761719 328.894531 170.59375 C 325.214844 154.535156 325.917969 138.535156 328.789062 122.417969 C 330.496094 112.894531 333.34375 103.796875 337.433594 95.164062 C 340.621094 88.460938 343.914062 81.597656 349.417969 76.332031 C 353.292969 72.625 357.96875 71.410156 363.433594 72.671875 C 374.191406 75.140625 384.726562 78.285156 394.617188 83.164062 C 407.363281 89.433594 419.765625 96.636719 428.503906 108.042969 C 432.414062 113.152344 435.824219 114.484375 441.910156 114.136719 C 454.511719 113.410156 466.648438 116.125 477.898438 122.125 C 479.089844 122.753906 479.625 122.589844 480.535156 121.550781 C 489.085938 111.832031 499.421875 104.4375 510.996094 98.800781 C 521.695312 93.609375 533.039062 90.472656 544.800781 88.777344 C 556.386719 87.09375 567.878906 87.867188 579.199219 90.355469 C 587.933594 92.273438 594.8125 96.273438 598.574219 105.667969 C 605.253906 122.394531 606.039062 139.210938 603.480469 156.722656 C 602.3125 164.757812 600.394531 172.511719 597.96875 180.160156 C 596.542969 184.628906 594.71875 189.132812 592.171875 193.039062 C 589.558594 197.050781 589.988281 200.394531 591.671875 204.453125 C 596.566406 216.171875 600.035156 228.234375 601.167969 241.027344 C 601.949219 249.800781 601.597656 258.480469 600.875 267.144531 C 600.476562 271.917969 598.914062 276.632812 597.476562 281.25 C 594.347656 291.277344 589.429688 300.433594 582.933594 308.679688 C 579.488281 313.066406 575.761719 317.230469 571.183594 321.042969 C 575.566406 323.5 580.0625 324.585938 584.242188 326.351562 C 591.613281 329.488281 598.1875 333.828125 604.847656 338.109375 C 606.597656 339.230469 608.445312 341.558594 609.972656 341.347656 C 611.867188 341.078125 611.222656 337.769531 612.402344 336.085938 C 612.800781 335.511719 612.976562 334.796875 613.304688 334.175781 C 613.839844 333.195312 614.449219 332.257812 615.535156 332.351562 C 616.679688 331.03125 617.824219 330.035156 618.78125 329.277344 C 618.886719 328.128906 619.46875 327.207031 621.070312 327.429688 C 621.09375 327.429688 621.117188 327.441406 621.140625 327.441406 C 624.070312 325.007812 626.699219 321.78125 628.953125 317.804688 L 629.082031 317.871094 C 633.507812 309.59375 632.597656 301.125 629.945312 292.527344 C 627.972656 286.140625 624.46875 280.609375 620.976562 275.019531 C 618.722656 271.390625 619.234375 268.269531 621.957031 265.179688 C 628.894531 257.273438 637.65625 253.425781 649.476562 253.34375 C 655.667969 253.730469 662.847656 255.320312 669.039062 259.894531 C 669.730469 260.398438 670.453125 261.039062 670.886719 261.789062 C 671.421875 262.058594 671.972656 262.316406 672.542969 262.527344 C 673.070312 262.726562 673.617188 262.890625 674.167969 263.027344 C 674.484375 262.890625 674.832031 262.785156 675.242188 262.75 C 676.785156 262.609375 678.347656 262.726562 679.902344 262.726562 C 689.773438 262.796875 697.75 267.484375 705.085938 273.4375 C 711.765625 278.867188 717.019531 285.71875 721.097656 293.148438 Z M 723.609375 332.75 C 724.109375 322.773438 723.574219 313.03125 719.296875 303.488281 C 715.257812 294.457031 710.082031 286.492188 703.109375 279.671875 C 697.1875 273.882812 690.179688 269.90625 681.910156 268.550781 C 680.042969 268.246094 678.148438 268.269531 676.246094 268.84375 C 674.574219 269.355469 673.394531 268.738281 672.824219 267.507812 C 672.171875 267.34375 671.527344 267.144531 670.898438 266.902344 C 670.089844 266.609375 669.320312 266.234375 668.5625 265.835938 C 667.871094 265.8125 667.125 265.542969 666.363281 265.015625 C 665.023438 264.082031 663.457031 263.484375 662.054688 262.632812 C 655.515625 258.574219 648.167969 259.027344 641.207031 260.023438 C 635.566406 260.832031 630.4375 263.917969 626.863281 268.902344 C 625.601562 270.644531 625.8125 272.117188 626.921875 273.660156 C 630.390625 278.445312 632.75 283.753906 634.980469 289.21875 C 638.589844 298.046875 638.929688 307.042969 636.582031 316.046875 C 635.714844 319.347656 633.207031 322.246094 631.289062 325.230469 C 630.613281 326.269531 629.527344 326.890625 628.453125 326.726562 C 627.0625 328.375 625.589844 329.828125 624.046875 331.113281 C 624.035156 331.242188 624.023438 331.371094 624.011719 331.511719 C 623.851562 333.699219 624.550781 335.980469 621.980469 335.839844 C 620.777344 335.769531 620.054688 335.382812 619.609375 334.796875 C 618.910156 335.535156 618.207031 336.386719 617.566406 337.441406 C 617.519531 337.511719 617.472656 337.59375 617.4375 337.664062 C 616.726562 340.050781 616.515625 342.609375 615.066406 344.703125 C 614.121094 346.074219 615.417969 346.351562 615.988281 346.890625 C 621.550781 352.191406 626.664062 357.828125 630.824219 364.34375 C 632.164062 366.449219 632.433594 368.039062 630.472656 369.558594 C 628.464844 371.101562 627.425781 369.792969 626.300781 368.0625 C 619.644531 357.757812 610.957031 349.371094 600.933594 342.457031 C 590.820312 335.476562 579.945312 329.886719 567.960938 326.820312 C 565.964844 326.304688 564.117188 326.714844 562.015625 328.070312 C 552.929688 333.96875 543.28125 338.621094 532.851562 342.027344 C 523.261719 345.160156 513.484375 346.410156 503.6875 347.933594 C 502.039062 348.191406 500.347656 348.167969 498.675781 348.191406 C 496.933594 348.214844 495.683594 347.628906 495.535156 345.582031 C 495.394531 343.640625 496.328125 342.878906 498.101562 342.398438 C 502.648438 341.136719 507.34375 341.921875 511.96875 341.125 C 526.894531 338.550781 541.191406 334.0625 554.132812 326.269531 C 564.5625 319.988281 573.613281 311.953125 580.632812 301.613281 C 585.925781 293.8125 590.234375 285.660156 592.6875 276.679688 C 596.765625 261.671875 597.195312 246.539062 593.84375 231.15625 C 591.753906 221.625 588.542969 212.558594 585.140625 203.496094 C 585.015625 203.167969 584.792969 202.875 584.582031 202.582031 C 582.609375 199.867188 582.839844 197.625 584.722656 194.582031 C 589.8125 186.3125 593.261719 177.214844 595.492188 167.761719 C 598.398438 155.421875 599.554688 142.941406 598.375 130.21875 C 597.746094 123.304688 596.261719 116.765625 594.160156 110.160156 C 591.402344 101.527344 585.445312 97.492188 577.257812 95.972656 C 567.050781 94.074219 556.820312 93.257812 546.351562 94.613281 C 537.464844 95.773438 528.878906 97.902344 520.632812 101.117188 C 510.507812 105.058594 501.023438 110.289062 492.894531 117.773438 C 489.390625 121 486.109375 124.394531 482.90625 127.902344 C 481.238281 129.75 478.609375 129.597656 476.625 128.324219 C 464.148438 120.335938 450.25 119.375 436.164062 120.695312 C 431.621094 121.117188 429.53125 119.960938 427.40625 116.382812 C 423.65625 110.054688 418.070312 105.410156 412.359375 100.871094 C 404.417969 94.566406 395.53125 89.972656 386.347656 85.945312 C 377.777344 82.179688 368.746094 79.75 359.519531 78.25 C 356.660156 77.796875 353.984375 79.421875 352.347656 81.597656 C 345.46875 90.71875 340.46875 100.964844 337.292969 111.855469 C 333.484375 124.882812 331.148438 138.3125 331.980469 151.984375 C 332.433594 159.421875 333.21875 166.933594 335.761719 174.019531 C 336.722656 176.699219 335.65625 178.371094 333.964844 179.5625 C 324.761719 185.972656 317.554688 194.253906 312.261719 203.984375 C 308.558594 210.769531 305.675781 217.964844 303.632812 225.625 C 301.597656 233.179688 300.5 240.746094 300.105469 248.433594 C 299.578125 258.574219 300.570312 268.574219 303.339844 278.46875 C 305.21875 285.242188 307.625 291.707031 311.09375 297.742188 C 316 306.269531 322.0625 313.753906 330.707031 318.9375 C 333.847656 320.820312 336.847656 322.855469 340.398438 323.863281 C 342.328125 324.421875 341.988281 326.035156 341.917969 327.429688 C 341.8125 329.3125 340.039062 329.277344 338.964844 329.253906 C 337.492188 329.21875 335.9375 328.667969 334.582031 327.988281 C 329.792969 325.582031 328.535156 326.117188 326.957031 331.101562 C 322.566406 344.914062 323.207031 359.019531 323.6875 373.265625 C 324.082031 384.859375 327.386719 396.109375 326.945312 407.746094 C 326.828125 410.824219 327.46875 413.921875 327.691406 417.023438 C 327.761719 418.039062 327.65625 419.082031 327.226562 419.851562 C 327.214844 424.824219 327.378906 429.828125 327.714844 434.765625 C 328.125 440.8125 328.8125 446.894531 329.734375 452.90625 C 330.132812 453.28125 330.402344 453.84375 330.507812 454.648438 C 331.722656 464.148438 334.839844 473.527344 331.957031 483.257812 C 331.640625 484.300781 331.230469 485.234375 330.777344 486.207031 C 328.183594 491.703125 330.695312 499.738281 336.441406 502.804688 C 348.832031 509.410156 361.949219 509.457031 375.265625 507.691406 C 379.421875 507.140625 383.523438 505.644531 387.132812 503.328125 C 390.9375 500.882812 393.730469 497.679688 393.648438 492.710938 C 393.484375 483.632812 394.070312 474.519531 392.832031 465.46875 C 392.585938 463.691406 392.644531 461.84375 394.898438 461.679688 C 395.003906 461.667969 395.109375 461.667969 395.203125 461.667969 C 396.90625 461.667969 397.691406 462.882812 397.992188 464.789062 C 399.035156 471.421875 398.929688 478.125 399.265625 484.777344 C 399.675781 492.777344 402.28125 495.820312 410.339844 496.195312 C 414.988281 496.40625 419.660156 496.347656 424.320312 496.195312 C 426.074219 496.136719 428.351562 496.300781 428.851562 493.761719 C 429.820312 488.824219 431.925781 484.394531 434.46875 480.089844 C 437.941406 474.265625 436.140625 467.515625 437.835938 460.742188 L 439.480469 459.550781 C 441.6875 460.261719 442.726562 461.515625 442.601562 463.691406 C 442.214844 470.207031 442.542969 476.777344 439.609375 482.941406 C 438.546875 485.175781 437.238281 487.28125 436.1875 489.527344 C 434.402344 493.339844 434.4375 497.152344 434.5625 501.058594 C 434.667969 504.03125 438.875 507.105469 442.832031 508.511719 C 452.984375 512.113281 463.4375 512.183594 473.855469 511.199219 C 481.191406 510.511719 488.222656 508.019531 493.886719 502.988281 C 495.988281 501.117188 497.34375 498.394531 498.277344 495.714844 C 502.460938 483.679688 503.851562 471.011719 506.199219 458.566406 C 506.582031 456.484375 506.289062 454.273438 506.3125 452.109375 C 506.335938 449.691406 507.609375 447.960938 509.933594 448.214844 C 512.222656 448.472656 512.726562 450.414062 512.503906 452.777344 C 511.59375 462.496094 509.898438 472.101562 508.347656 481.714844 C 507.84375 484.753906 506.558594 487.597656 506.023438 490.6875 C 505.695312 492.570312 506.199219 492.800781 507.65625 492.628906 C 511.558594 492.148438 515.449219 491.644531 519.335938 491.128906 C 529.359375 489.820312 538.9375 486.953125 548.363281 483.375 C 550.5 482.566406 551.972656 480.71875 554.261719 480.265625 C 555.054688 480.113281 554.632812 479.363281 554.402344 478.800781 C 549.683594 467.609375 554.214844 458.519531 561.351562 450.34375 C 563.019531 448.4375 562.925781 446.894531 562.097656 445.433594 C 559.246094 440.332031 557.203125 434.882812 555.753906 429.328125 C 552.777344 417.910156 550.851562 406.4375 553.804688 394.507812 C 557.144531 381.054688 563.511719 369.722656 574.328125 360.996094 C 576.007812 359.640625 577.539062 357.828125 579.839844 357.617188 C 580.902344 357.523438 582.757812 356.65625 583.003906 358.691406 C 583.179688 360.144531 583.707031 361.605469 581.671875 362.9375 C 575.625 366.902344 570.460938 371.945312 566.710938 378.179688 C 558.980469 391.066406 557.203125 404.8125 559.820312 419.640625 C 561.46875 428.988281 564.667969 437.539062 568.835938 445.878906 C 569.863281 447.9375 569.269531 449.503906 567.890625 451.082031 C 565.484375 453.867188 562.796875 456.367188 561.175781 459.84375 C 558.066406 466.507812 558.023438 472.988281 560.964844 479.726562 C 563.976562 486.636719 569.839844 488.453125 576.3125 488.007812 C 590.175781 487.035156 603.164062 482.929688 614.796875 475.058594 C 620.765625 471.035156 624.046875 464.929688 626.453125 458.484375 C 629.128906 451.316406 631.886719 444.121094 633.554688 436.625 C 636.03125 425.503906 638.660156 414.378906 637.070312 402.824219 C 636.792969 400.765625 637.65625 399.265625 639.558594 398.589844 C 641.300781 397.957031 642.574219 399.207031 642.769531 400.589844 C 643.578125 406.25 648.34375 406.027344 651.941406 406.273438 C 666.003906 407.246094 677.578125 401.78125 684.714844 389.710938 C 687.621094 384.789062 691.40625 382.707031 695.785156 380.25 C 703.636719 375.839844 710.421875 370.179688 713.457031 361.242188 C 713.84375 360.085938 714.230469 359.066406 714.976562 358.632812 C 715.222656 357.558594 715.386719 356.550781 715.550781 355.523438 C 715.851562 353.546875 716.15625 351.511719 717.160156 348.949219 C 717.59375 347.839844 718.117188 346.75 718.714844 345.699219 C 718.328125 344.386719 719.402344 343.183594 720.246094 341.96875 C 722.148438 339.183594 723.457031 335.96875 723.609375 332.761719 Z M 723.609375 332.75 " fill-opacity="1" fill-rule="nonzero"/><path fill="#f9c79a" d="M 719.296875 303.488281 C 723.574219 313.03125 724.109375 322.773438 723.609375 332.75 C 723.457031 335.957031 722.148438 339.171875 720.246094 341.957031 C 719.402344 343.171875 718.328125 344.375 718.714844 345.6875 C 718.117188 346.738281 717.59375 347.828125 717.160156 348.9375 C 716.15625 351.5 715.851562 353.535156 715.550781 355.511719 C 715.386719 356.539062 715.222656 357.546875 714.976562 358.621094 C 714.230469 359.054688 713.84375 360.074219 713.457031 361.230469 C 710.421875 370.167969 703.636719 375.828125 695.785156 380.238281 C 691.40625 382.695312 687.621094 384.777344 684.714844 389.699219 C 677.578125 401.769531 666.003906 407.234375 651.941406 406.261719 C 648.34375 406.015625 643.578125 406.238281 642.769531 400.578125 C 642.574219 399.195312 641.300781 397.945312 639.558594 398.578125 C 637.65625 399.253906 636.792969 400.753906 637.070312 402.8125 C 638.660156 414.367188 636.03125 425.492188 633.554688 436.613281 C 631.886719 444.109375 629.128906 451.304688 626.453125 458.472656 C 624.046875 464.917969 620.765625 471.023438 614.796875 475.046875 C 603.164062 482.917969 590.175781 487.023438 576.3125 487.996094 C 569.839844 488.441406 563.976562 486.625 560.964844 479.714844 C 558.023438 472.976562 558.066406 466.496094 561.175781 459.832031 C 562.796875 456.355469 565.484375 453.855469 567.890625 451.070312 C 569.269531 449.492188 569.863281 447.925781 568.835938 445.867188 C 564.667969 437.527344 561.46875 428.976562 559.820312 419.628906 C 557.203125 404.800781 558.980469 391.054688 566.710938 378.167969 C 570.460938 371.933594 575.625 366.890625 581.671875 362.925781 C 583.707031 361.59375 583.179688 360.132812 583.003906 358.679688 C 582.757812 356.644531 580.902344 357.511719 579.839844 357.605469 C 577.539062 357.816406 576.007812 359.628906 574.328125 360.984375 C 563.511719 369.710938 557.144531 381.042969 553.804688 394.496094 C 550.851562 406.425781 552.777344 417.898438 555.753906 429.316406 C 557.203125 434.871094 559.246094 440.320312 562.097656 445.421875 C 562.925781 446.882812 563.019531 448.425781 561.351562 450.332031 C 554.214844 458.507812 549.683594 467.597656 554.402344 478.789062 C 554.632812 479.351562 555.054688 480.101562 554.261719 480.253906 C 551.972656 480.707031 550.5 482.558594 548.363281 483.363281 C 538.9375 486.941406 529.359375 489.808594 519.335938 491.117188 C 515.449219 491.632812 511.558594 492.136719 507.65625 492.617188 C 506.199219 492.789062 505.695312 492.558594 506.023438 490.675781 C 506.558594 487.585938 507.84375 484.742188 508.347656 481.703125 C 509.898438 472.089844 511.59375 462.484375 512.503906 452.765625 C 512.726562 450.402344 512.222656 448.460938 509.933594 448.203125 C 507.609375 447.949219 506.335938 449.679688 506.3125 452.097656 C 506.289062 454.261719 506.582031 456.472656 506.199219 458.554688 C 503.851562 471 502.460938 483.667969 498.277344 495.703125 C 497.34375 498.382812 495.988281 501.105469 493.886719 502.976562 C 488.222656 508.007812 481.191406 510.5 473.855469 511.1875 C 463.4375 512.171875 452.984375 512.101562 442.832031 508.5 C 438.875 507.09375 434.667969 504.019531 434.5625 501.046875 C 434.4375 497.140625 434.402344 493.328125 436.1875 489.515625 C 437.238281 487.269531 438.546875 485.164062 439.609375 482.929688 C 442.542969 476.765625 442.214844 470.195312 442.601562 463.679688 C 442.726562 461.503906 441.6875 460.25 439.480469 459.539062 C 445.507812 454.730469 450.824219 449.832031 456.019531 444.765625 C 457.679688 443.152344 458.109375 441.667969 456.722656 440.261719 C 455.472656 439 453.835938 438.953125 452.128906 440.566406 C 446.371094 446.0625 440.460938 451.398438 434.121094 456.226562 C 432.355469 457.5625 430.171875 458.089844 428.082031 458.078125 C 423.84375 458.042969 423.410156 457.140625 425.476562 453.632812 C 425.710938 453.222656 425.933594 452.789062 426.15625 452.367188 C 427.183594 450.507812 426.410156 449.164062 424.871094 448.097656 C 423.070312 446.859375 422.007812 447.925781 421.144531 449.410156 C 419.601562 452.0625 418.105469 454.742188 416.542969 457.375 C 415.621094 458.917969 414.101562 460.191406 412.394531 459.457031 C 408.609375 457.808594 404.324219 456.484375 403.566406 451.410156 C 403.332031 449.867188 402.046875 449.351562 400.785156 448.964844 C 399.59375 448.601562 398.484375 449.09375 398.097656 450.167969 C 396.558594 454.449219 393.066406 452.789062 390.960938 451.832031 C 382.671875 448.050781 377.214844 441.140625 373.070312 433.28125 C 372.019531 431.28125 371.375 430.226562 369.285156 431.128906 C 366.996094 432.121094 367.53125 434.0625 368.351562 435.65625 C 371.832031 442.460938 376.058594 448.707031 382.296875 453.351562 C 386.09375 456.179688 390.320312 459.128906 394.898438 458.765625 L 395.203125 461.667969 C 395.109375 461.667969 395.003906 461.667969 394.898438 461.679688 C 392.644531 461.84375 392.585938 463.691406 392.832031 465.46875 C 394.070312 474.519531 393.484375 483.632812 393.648438 492.710938 C 393.730469 497.679688 390.9375 500.882812 387.132812 503.328125 C 383.523438 505.644531 379.421875 507.140625 375.265625 507.691406 C 361.949219 509.457031 348.832031 509.410156 336.441406 502.804688 C 330.695312 499.738281 328.183594 491.703125 330.777344 486.207031 C 331.230469 485.234375 331.640625 484.300781 331.957031 483.257812 C 334.839844 473.527344 331.722656 464.148438 330.507812 454.648438 C 330.402344 453.84375 330.132812 453.28125 329.734375 452.90625 C 328.8125 446.894531 328.125 440.8125 327.714844 434.765625 C 327.378906 429.828125 327.214844 424.824219 327.226562 419.851562 C 327.65625 419.082031 327.761719 418.039062 327.691406 417.023438 C 327.46875 413.921875 326.828125 410.824219 326.945312 407.746094 C 327.386719 396.109375 324.082031 384.859375 323.6875 373.265625 C 323.207031 359.019531 322.566406 344.914062 326.957031 331.101562 C 328.535156 326.117188 329.792969 325.582031 334.582031 327.988281 C 335.9375 328.667969 337.492188 329.21875 338.964844 329.253906 C 340.039062 329.277344 341.8125 329.3125 341.917969 327.429688 C 341.988281 326.035156 342.328125 324.421875 340.398438 323.863281 C 336.847656 322.855469 333.847656 320.820312 330.707031 318.9375 C 322.0625 313.753906 316 306.269531 311.09375 297.742188 C 307.625 291.707031 305.21875 285.242188 303.339844 278.46875 C 300.570312 268.574219 299.578125 258.574219 300.105469 248.433594 C 300.5 240.746094 301.597656 233.179688 303.632812 225.625 C 305.675781 217.964844 308.558594 210.769531 312.261719 203.984375 C 317.554688 194.253906 324.761719 185.972656 333.964844 179.5625 C 335.65625 178.371094 336.722656 176.699219 335.761719 174.019531 C 333.21875 166.933594 332.433594 159.421875 331.980469 151.984375 C 331.148438 138.3125 333.484375 124.882812 337.292969 111.855469 C 340.46875 100.964844 345.46875 90.71875 352.347656 81.597656 C 353.984375 79.421875 356.660156 77.796875 359.519531 78.25 C 368.746094 79.75 377.777344 82.179688 386.347656 85.945312 C 395.53125 89.972656 404.417969 94.566406 412.359375 100.871094 C 418.070312 105.410156 423.65625 110.054688 427.40625 116.382812 C 429.53125 119.960938 431.621094 121.117188 436.164062 120.695312 C 450.25 119.375 464.148438 120.335938 476.625 128.324219 C 478.609375 129.597656 481.238281 129.75 482.90625 127.902344 C 486.109375 124.394531 489.390625 121 492.894531 117.773438 C 501.023438 110.289062 510.507812 105.058594 520.632812 101.117188 C 528.878906 97.902344 537.464844 95.773438 546.351562 94.613281 C 556.820312 93.257812 567.050781 94.074219 577.257812 95.972656 C 585.445312 97.492188 591.402344 101.527344 594.160156 110.160156 C 596.261719 116.765625 597.746094 123.304688 598.375 130.21875 C 599.554688 142.941406 598.398438 155.421875 595.492188 167.761719 C 593.261719 177.214844 589.8125 186.3125 584.722656 194.582031 C 582.839844 197.625 582.609375 199.867188 584.582031 202.582031 C 584.792969 202.875 585.015625 203.167969 585.140625 203.496094 C 588.542969 212.558594 591.753906 221.625 593.84375 231.15625 C 597.195312 246.539062 596.765625 261.671875 592.6875 276.679688 C 590.234375 285.660156 585.925781 293.8125 580.632812 301.613281 C 573.613281 311.953125 564.5625 319.988281 554.132812 326.269531 C 541.191406 334.0625 526.894531 338.550781 511.96875 341.125 C 507.34375 341.921875 502.648438 341.136719 498.101562 342.398438 C 496.328125 342.878906 495.394531 343.640625 495.535156 345.582031 C 495.683594 347.628906 496.933594 348.214844 498.675781 348.191406 C 500.347656 348.167969 502.039062 348.191406 503.6875 347.933594 C 513.484375 346.410156 523.261719 345.160156 532.851562 342.027344 C 543.28125 338.621094 552.929688 333.96875 562.015625 328.070312 C 564.117188 326.714844 565.964844 326.304688 567.960938 326.820312 C 579.945312 329.886719 590.820312 335.476562 600.933594 342.457031 C 610.957031 349.371094 619.644531 357.757812 626.300781 368.0625 C 627.425781 369.792969 628.464844 371.101562 630.472656 369.558594 C 632.433594 368.039062 632.164062 366.449219 630.824219 364.34375 C 626.664062 357.828125 621.550781 352.191406 615.988281 346.890625 C 615.417969 346.351562 614.121094 346.074219 615.066406 344.703125 C 616.515625 342.609375 616.726562 340.050781 617.4375 337.664062 C 617.472656 337.59375 617.519531 337.511719 617.566406 337.441406 C 618.207031 336.386719 618.910156 335.535156 619.609375 334.796875 C 620.054688 335.382812 620.777344 335.769531 621.980469 335.839844 C 624.550781 335.980469 623.851562 333.699219 624.011719 331.511719 C 624.023438 331.371094 624.035156 331.242188 624.046875 331.113281 C 625.589844 329.828125 627.0625 328.375 628.453125 326.726562 C 629.527344 326.890625 630.613281 326.269531 631.289062 325.230469 C 633.207031 322.246094 635.714844 319.347656 636.582031 316.046875 C 638.929688 307.042969 638.589844 298.046875 634.980469 289.21875 C 632.75 283.753906 630.390625 278.445312 626.921875 273.660156 C 625.8125 272.117188 625.601562 270.644531 626.863281 268.902344 C 630.4375 263.917969 635.566406 260.832031 641.207031 260.023438 C 648.167969 259.027344 655.515625 258.574219 662.054688 262.632812 C 663.457031 263.484375 665.023438 264.082031 666.363281 265.015625 C 667.125 265.542969 667.871094 265.8125 668.5625 265.835938 C 669.320312 266.234375 670.089844 266.609375 670.898438 266.902344 C 671.527344 267.144531 672.171875 267.34375 672.824219 267.507812 C 673.394531 268.738281 674.574219 269.355469 676.246094 268.84375 C 678.148438 268.269531 680.042969 268.246094 681.910156 268.550781 C 690.179688 269.90625 697.1875 273.882812 703.109375 279.671875 C 710.082031 286.492188 715.257812 294.457031 719.296875 303.488281 Z M 643.34375 391.023438 C 643.4375 388.507812 641.546875 388.390625 639.664062 388.425781 C 638.03125 388.460938 636.113281 388.074219 636.078125 390.601562 C 636.054688 392.835938 637.234375 393.816406 639.511719 393.382812 C 641.359375 393.582031 643.25 393.5 643.34375 391.023438 Z M 636.417969 383.382812 C 638.144531 383.453125 640.0625 383.277344 640.003906 381.101562 C 639.96875 379.441406 638.847656 378.261719 636.710938 378.261719 C 634.664062 378.273438 633.542969 379.089844 633.390625 380.972656 C 633.21875 383.054688 634.675781 383.488281 636.417969 383.382812 Z M 562.402344 167.867188 C 564.878906 161.46875 565.625 154.957031 565.085938 149.023438 C 565.203125 141.890625 565.25 135.703125 562.601562 129.609375 C 561.28125 126.546875 559.644531 125.597656 556.851562 125.503906 C 552.191406 125.339844 547.566406 125.492188 542.917969 126.101562 C 534.953125 127.140625 527.488281 129.445312 520.761719 133.902344 C 518.484375 135.410156 518.53125 137.925781 520.949219 139.023438 C 528.25 142.324219 534.371094 147.316406 540.210938 152.605469 C 545.816406 157.679688 551.949219 162.300781 555.742188 169.167969 C 556.304688 170.195312 557.8125 171.890625 559.539062 171.144531 C 560.824219 170.582031 561.757812 169.550781 562.402344 167.867188 Z M 507.574219 367.089844 C 507.574219 365.183594 507.738281 363.242188 507.515625 361.359375 C 507.332031 359.804688 506.246094 358.691406 504.550781 358.902344 C 503.160156 359.078125 501.921875 359.980469 502.132812 361.523438 C 502.84375 366.9375 501.664062 372.261719 501.128906 377.558594 C 500.277344 385.898438 498.535156 394.144531 494.414062 401.664062 C 492.34375 405.453125 489.25 408.34375 486.398438 411.464844 C 484.929688 413.070312 483.679688 414.894531 485.570312 417.035156 C 487.21875 418.871094 488.769531 417.640625 489.832031 416.460938 C 495.882812 409.816406 501.570312 403.222656 503.976562 393.910156 C 506.265625 385.007812 506.570312 376.039062 507.574219 367.089844 Z M 487.242188 432.472656 C 488.058594 431.492188 488.539062 430.519531 488.363281 429.023438 C 488.09375 428.355469 488.980469 426.835938 487.371094 426.625 C 486.15625 426.472656 484.707031 426.015625 483.726562 427.328125 C 479.941406 432.34375 475.621094 436.894531 471.050781 441.164062 C 465.972656 445.890625 461.160156 451.140625 453.847656 452.589844 C 452.328125 452.894531 451.792969 454.226562 451.863281 455.585938 C 451.933594 457.210938 453.207031 457.679688 454.628906 457.75 C 458.554688 457.949219 461.753906 455.796875 464.6875 453.832031 C 473.375 448.003906 480.605469 440.542969 487.242188 432.472656 Z M 478.070312 348.238281 C 480.292969 347.546875 481.214844 346.292969 480.476562 343.957031 C 479.683594 341.429688 477.722656 341.96875 476.121094 342.503906 C 467.417969 345.417969 458.34375 345.617188 449.386719 345.933594 C 433.78125 346.480469 418.257812 345.136719 402.839844 342.46875 C 391.640625 340.550781 380.613281 338.097656 369.683594 334.972656 C 365.59375 333.804688 361.796875 331.792969 357.570312 331.101562 C 355.96875 330.84375 354.636719 331.136719 354.101562 332.761719 C 353.539062 334.433594 354.277344 335.992188 355.769531 336.585938 C 364.097656 339.910156 372.730469 342.574219 381.445312 344.363281 C 392.074219 346.539062 402.679688 348.960938 413.585938 349.957031 C 423.539062 350.84375 433.476562 352.027344 443.476562 352.386719 C 448.277344 352.726562 453.054688 352.167969 457.773438 351.605469 C 464.570312 350.796875 471.460938 350.285156 478.070312 348.238281 Z M 461.101562 223.871094 C 468.25 225.074219 476.484375 217.039062 476.226562 208.921875 C 475.933594 199.835938 469.03125 193.738281 461.265625 193.878906 C 452.164062 194.03125 446.652344 199.71875 446.199219 208.710938 C 445.8125 216.382812 452.503906 224.664062 461.101562 223.871094 Z M 432.953125 241.367188 C 433.910156 240.199219 433.851562 238.992188 432.824219 237.8125 C 431.667969 236.511719 430.324219 236.464844 428.980469 237.285156 C 428.082031 237.824219 427.359375 238.664062 426.550781 239.390625 C 421.15625 244.246094 414.542969 245.179688 407.664062 245.238281 C 406.171875 245.25 405.058594 244.652344 405.339844 242.863281 C 406.113281 237.929688 405.65625 232.863281 407.292969 228.011719 C 408.050781 225.753906 408.75 224.265625 411.589844 224.476562 C 413.796875 224.640625 416.097656 224.175781 418.304688 223.742188 C 421.273438 223.15625 424.613281 219.460938 424.953125 216.628906 C 425.277344 213.894531 422.59375 210.535156 419.742188 208.664062 C 413.902344 204.839844 407.582031 205.050781 401.230469 206.019531 C 398.027344 206.523438 394.910156 208.371094 393.835938 211.566406 C 392.773438 214.734375 393.671875 218.011719 396.582031 220.195312 C 397.902344 221.191406 399.394531 221.964844 400.890625 222.675781 C 402.328125 223.355469 402.921875 224.324219 402.246094 225.789062 C 400.421875 229.742188 401.054688 234.234375 399.546875 238.246094 C 398.859375 240.070312 400.738281 243.121094 398.132812 243.636719 C 396.417969 243.964844 394.257812 242.152344 392.328125 241.25 C 391.804688 241.003906 391.40625 240.503906 390.894531 240.222656 C 387.296875 238.1875 385.589844 234.769531 384.117188 231.121094 C 383.511719 229.613281 382.390625 228.335938 380.53125 229.132812 C 378.910156 229.8125 378.148438 231.378906 378.710938 232.980469 C 379.855469 236.292969 381.328125 239.460938 383.90625 242 C 390.71875 248.710938 399.21875 250.839844 408.367188 251.203125 C 412.035156 251.625 415.480469 250.550781 418.949219 249.730469 C 424.496094 248.421875 429.273438 245.789062 432.953125 241.367188 Z M 395.355469 133.679688 C 400.421875 132.675781 399.886719 128.953125 397.5625 126.347656 C 390.039062 117.949219 381.152344 111.785156 369.742188 109.773438 C 366.609375 109.222656 364.566406 110.113281 362.753906 112.472656 C 355.527344 121.855469 352.910156 132.765625 352.125 144.289062 C 352.125 145.480469 351.941406 146.722656 352.160156 147.867188 C 352.523438 149.691406 352.757812 151.644531 355.082031 152.324219 C 357.359375 153.003906 358.539062 151.75 359.917969 150.300781 C 361.191406 148.988281 362.789062 147.949219 364.332031 146.945312 C 373.898438 140.699219 384.058594 135.925781 395.355469 133.679688 Z M 385.730469 198.710938 C 386.476562 191.25 378.910156 183.832031 371.164062 184.171875 C 363.386719 184.511719 357.300781 190.3125 357.21875 198.546875 C 357.136719 207.285156 363.875 212.710938 371.386719 213.074219 C 378.359375 213.414062 386.511719 206.277344 385.730469 198.710938 Z M 364.039062 424.917969 C 365.289062 424.707031 365.699219 423.710938 365.652344 422.507812 C 365.242188 420.167969 363.691406 418.308594 362.894531 416.144531 C 362.207031 414.25 361.085938 413.757812 359.355469 414.34375 C 357.570312 414.929688 357.464844 416.53125 357.886719 417.886719 C 358.46875 419.78125 359.34375 421.628906 360.359375 423.351562 C 361.121094 424.625 362.535156 425.175781 364.039062 424.917969 Z M 358.621094 407.464844 C 360.175781 406.953125 360.957031 405.59375 360.371094 404.050781 C 359.847656 402.636719 359.695312 401.140625 358.890625 399.734375 C 357.3125 397.011719 355.664062 394.121094 355.011719 391.089844 C 352.816406 380.878906 352.640625 370.542969 354.601562 360.25 C 355.023438 358.027344 354.3125 356.65625 352.277344 356.214844 C 349.941406 355.710938 349.617188 357.664062 349.230469 359.289062 C 347.851562 365.113281 347.5 371.054688 347.175781 376.984375 C 346.800781 387.417969 350.585938 396.71875 355.035156 405.816406 C 355.6875 407.152344 357.042969 407.980469 358.621094 407.464844 Z M 358.621094 407.464844 " fill-opacity="1" fill-rule="nonzero"/><path fill="#f9c79a" d="M 639.664062 388.425781 C 641.546875 388.390625 643.4375 388.507812 643.34375 391.023438 C 643.25 393.5 641.359375 393.582031 639.511719 393.382812 C 637.234375 393.816406 636.054688 392.835938 636.078125 390.601562 C 636.113281 388.074219 638.03125 388.460938 639.664062 388.425781 Z M 639.664062 388.425781 " fill-opacity="1" fill-rule="nonzero"/><path fill="#f9c79a" d="M 640.003906 381.101562 C 640.0625 383.277344 638.144531 383.453125 636.417969 383.382812 C 634.675781 383.488281 633.21875 383.054688 633.390625 380.972656 C 633.542969 379.089844 634.664062 378.273438 636.710938 378.261719 C 638.847656 378.261719 639.96875 379.441406 640.003906 381.101562 Z M 640.003906 381.101562 " fill-opacity="1" fill-rule="nonzero"/><path fill="#f9c79a" d="M 565.085938 149.023438 C 565.625 154.957031 564.878906 161.46875 562.402344 167.867188 C 561.757812 169.550781 560.824219 170.582031 559.539062 171.144531 C 557.8125 171.890625 556.304688 170.195312 555.742188 169.167969 C 551.949219 162.300781 545.816406 157.679688 540.210938 152.605469 C 534.371094 147.316406 528.25 142.324219 520.949219 139.023438 C 518.53125 137.925781 518.484375 135.410156 520.761719 133.902344 C 527.488281 129.445312 534.953125 127.140625 542.917969 126.101562 C 547.566406 125.492188 552.191406 125.339844 556.851562 125.503906 C 559.644531 125.597656 561.28125 126.546875 562.601562 129.609375 C 565.25 135.703125 565.203125 141.890625 565.085938 149.023438 Z M 557.800781 161.679688 C 559.667969 156.125 560.335938 144.804688 559.179688 139.527344 C 557.941406 133.90625 554.425781 131.113281 548.640625 131.152344 C 548.164062 131.152344 547.683594 131.117188 547.21875 131.175781 C 540.898438 132.007812 534.742188 133.375 528.167969 135.9375 C 539.53125 143.644531 549.179688 152.007812 557.800781 161.679688 Z M 557.800781 161.679688 " fill-opacity="1" fill-rule="nonzero"/><path fill="#f9c79a" d="M 559.179688 139.527344 C 560.335938 144.804688 559.667969 156.125 557.800781 161.679688 C 549.179688 152.007812 539.53125 143.644531 528.167969 135.9375 C 534.742188 133.375 540.898438 132.007812 547.21875 131.175781 C 547.683594 131.117188 548.164062 131.164062 548.640625 131.152344 C 554.425781 131.113281 557.941406 133.90625 559.179688 139.527344 Z M 559.179688 139.527344 " fill-opacity="1" fill-rule="nonzero"/><path fill="#f9c79a" d="M 507.515625 361.359375 C 507.738281 363.242188 507.574219 365.183594 507.574219 367.089844 C 506.570312 376.039062 506.265625 385.007812 503.976562 393.910156 C 501.570312 403.222656 495.882812 409.816406 489.832031 416.460938 C 488.769531 417.640625 487.21875 418.871094 485.570312 417.035156 C 483.679688 414.894531 484.929688 413.070312 486.398438 411.464844 C 489.25 408.34375 492.34375 405.453125 494.414062 401.664062 C 498.535156 394.144531 500.277344 385.898438 501.128906 377.558594 C 501.664062 372.261719 502.84375 366.9375 502.132812 361.523438 C 501.921875 359.980469 503.160156 359.078125 504.550781 358.902344 C 506.246094 358.691406 507.332031 359.804688 507.515625 361.359375 Z M 507.515625 361.359375 " fill-opacity="1" fill-rule="nonzero"/><path fill="#f9c79a" d="M 488.363281 429.023438 C 488.539062 430.519531 488.058594 431.492188 487.242188 432.472656 C 480.605469 440.542969 473.375 448.003906 464.6875 453.832031 C 461.753906 455.796875 458.554688 457.949219 454.628906 457.75 C 453.207031 457.679688 451.933594 457.210938 451.863281 455.585938 C 451.792969 454.226562 452.328125 452.894531 453.847656 452.589844 C 461.160156 451.140625 465.972656 445.890625 471.050781 441.164062 C 475.621094 436.894531 479.941406 432.34375 483.726562 427.328125 C 484.707031 426.015625 486.15625 426.472656 487.371094 426.625 C 488.980469 426.835938 488.09375 428.355469 488.363281 429.023438 Z M 488.363281 429.023438 " fill-opacity="1" fill-rule="nonzero"/><path fill="#f9c79a" d="M 480.476562 343.957031 C 481.214844 346.292969 480.292969 347.546875 478.070312 348.238281 C 471.460938 350.285156 464.570312 350.796875 457.773438 351.605469 C 453.054688 352.167969 448.277344 352.726562 443.476562 352.386719 C 433.476562 352.027344 423.539062 350.84375 413.585938 349.957031 C 402.679688 348.960938 392.074219 346.539062 381.445312 344.363281 C 372.730469 342.574219 364.097656 339.910156 355.769531 336.585938 C 354.277344 335.992188 353.539062 334.433594 354.101562 332.761719 C 354.636719 331.136719 355.96875 330.84375 357.570312 331.101562 C 361.796875 331.792969 365.59375 333.804688 369.683594 334.972656 C 380.613281 338.097656 391.640625 340.550781 402.839844 342.46875 C 418.257812 345.136719 433.78125 346.480469 449.386719 345.933594 C 458.34375 345.617188 467.417969 345.417969 476.121094 342.503906 C 477.722656 341.96875 479.683594 341.429688 480.476562 343.957031 Z M 480.476562 343.957031 " fill-opacity="1" fill-rule="nonzero"/><path fill="#f9c79a" d="M 476.226562 208.921875 C 476.484375 217.039062 468.25 225.074219 461.101562 223.871094 C 452.503906 224.664062 445.8125 216.382812 446.199219 208.710938 C 446.652344 199.71875 452.164062 194.03125 461.265625 193.878906 C 469.03125 193.738281 475.933594 199.835938 476.226562 208.921875 Z M 476.226562 208.921875 " fill-opacity="1" fill-rule="nonzero"/><path fill="#f9c79a" d="M 456.722656 440.261719 C 458.109375 441.667969 457.679688 443.152344 456.019531 444.765625 C 450.824219 449.832031 445.507812 454.730469 439.480469 459.539062 L 437.835938 460.730469 C 432.589844 463.457031 427.941406 464.941406 422.941406 462.378906 C 421.808594 461.808594 420.804688 461.785156 419.648438 462.496094 C 413.179688 466.496094 409.953125 466.230469 404.101562 461.316406 C 404.019531 461.234375 403.960938 461.117188 403.871094 461.046875 C 401.742188 459.199219 400.191406 457.621094 396.417969 458.53125 C 395.902344 458.660156 395.402344 458.730469 394.898438 458.765625 C 390.320312 459.128906 386.09375 456.179688 382.296875 453.351562 C 376.058594 448.707031 371.832031 442.460938 368.351562 435.65625 C 367.53125 434.0625 366.996094 432.121094 369.285156 431.128906 C 371.375 430.226562 372.019531 431.28125 373.070312 433.28125 C 377.214844 441.140625 382.671875 448.050781 390.960938 451.832031 C 393.066406 452.789062 396.558594 454.449219 398.097656 450.167969 C 398.484375 449.09375 399.59375 448.601562 400.785156 448.964844 C 402.046875 449.351562 403.332031 449.867188 403.566406 451.410156 C 404.324219 456.484375 408.609375 457.808594 412.394531 459.457031 C 414.101562 460.191406 415.621094 458.917969 416.542969 457.375 C 418.105469 454.742188 419.601562 452.0625 421.144531 449.410156 C 422.007812 447.925781 423.070312 446.859375 424.871094 448.097656 C 426.410156 449.164062 427.183594 450.507812 426.15625 452.367188 C 425.933594 452.789062 425.710938 453.222656 425.476562 453.632812 C 423.410156 457.140625 423.84375 458.042969 428.082031 458.078125 C 430.171875 458.089844 432.355469 457.5625 434.121094 456.226562 C 440.460938 451.398438 446.371094 446.0625 452.128906 440.566406 C 453.835938 438.953125 455.472656 439 456.722656 440.261719 Z M 456.722656 440.261719 " fill-opacity="1" fill-rule="nonzero"/><path fill="#f9c79a" d="M 437.835938 460.730469 C 436.140625 467.503906 437.941406 474.253906 434.46875 480.078125 C 431.925781 484.382812 429.820312 488.8125 428.851562 493.75 C 428.351562 496.289062 426.074219 496.125 424.320312 496.183594 C 419.660156 496.347656 414.988281 496.40625 410.339844 496.183594 C 402.28125 495.808594 399.675781 492.765625 399.265625 484.765625 C 398.929688 478.113281 399.035156 471.410156 397.992188 464.777344 C 397.691406 462.871094 396.90625 461.65625 395.203125 461.65625 L 394.898438 458.753906 C 395.402344 458.71875 395.902344 458.648438 396.417969 458.519531 C 400.191406 457.609375 401.742188 459.1875 403.871094 461.035156 C 403.960938 461.105469 404.019531 461.222656 404.101562 461.304688 C 409.953125 466.21875 413.179688 466.484375 419.648438 462.484375 C 420.804688 461.773438 421.808594 461.796875 422.941406 462.367188 C 427.941406 464.929688 432.589844 463.445312 437.835938 460.71875 Z M 437.835938 460.730469 " fill-opacity="1" fill-rule="nonzero"/><path fill="#f9c79a" d="M 432.824219 237.8125 C 433.851562 238.992188 433.910156 240.199219 432.953125 241.367188 C 429.273438 245.789062 424.496094 248.421875 418.949219 249.730469 C 415.480469 250.550781 412.035156 251.625 408.367188 251.203125 C 399.21875 250.839844 390.71875 248.710938 383.90625 242 C 381.328125 239.460938 379.855469 236.292969 378.710938 232.980469 C 378.148438 231.378906 378.910156 229.8125 380.53125 229.132812 C 382.390625 228.335938 383.511719 229.613281 384.117188 231.121094 C 385.589844 234.769531 387.296875 238.1875 390.894531 240.222656 C 391.40625 240.503906 391.804688 241.003906 392.328125 241.25 C 394.257812 242.152344 396.417969 243.964844 398.132812 243.636719 C 400.738281 243.121094 398.859375 240.070312 399.546875 238.246094 C 401.054688 234.234375 400.421875 229.742188 402.246094 225.789062 C 402.921875 224.324219 402.328125 223.355469 400.890625 222.675781 C 399.394531 221.964844 397.902344 221.191406 396.582031 220.195312 C 393.671875 218.011719 392.773438 214.734375 393.835938 211.566406 C 394.910156 208.371094 398.027344 206.523438 401.230469 206.019531 C 407.582031 205.050781 413.902344 204.839844 419.742188 208.664062 C 422.59375 210.535156 425.277344 213.894531 424.953125 216.628906 C 424.613281 219.460938 421.273438 223.15625 418.304688 223.742188 C 416.097656 224.175781 413.796875 224.640625 411.589844 224.476562 C 408.75 224.265625 408.050781 225.753906 407.292969 228.011719 C 405.65625 232.863281 406.113281 237.929688 405.339844 242.863281 C 405.058594 244.652344 406.171875 245.25 407.664062 245.238281 C 414.542969 245.179688 421.15625 244.246094 426.550781 239.390625 C 427.359375 238.664062 428.082031 237.824219 428.980469 237.285156 C 430.324219 236.464844 431.667969 236.511719 432.824219 237.8125 Z M 432.824219 237.8125 " fill-opacity="1" fill-rule="nonzero"/><path fill="#f9c79a" d="M 397.5625 126.347656 C 399.886719 128.953125 400.421875 132.675781 395.355469 133.679688 C 384.058594 135.925781 373.898438 140.699219 364.332031 146.945312 C 362.789062 147.949219 361.191406 148.988281 359.917969 150.300781 C 358.539062 151.75 357.359375 153.003906 355.082031 152.324219 C 352.757812 151.644531 352.523438 149.691406 352.160156 147.867188 C 351.941406 146.722656 352.125 145.480469 352.125 144.289062 C 352.910156 132.765625 355.527344 121.855469 362.753906 112.472656 C 364.566406 110.113281 366.609375 109.222656 369.742188 109.773438 C 381.152344 111.785156 390.039062 117.949219 397.5625 126.347656 Z M 389.480469 129.058594 C 391.535156 128.523438 391.136719 127.515625 390.109375 126.660156 C 385.25 122.601562 380.265625 118.542969 374.25 116.507812 C 371.679688 115.632812 368 113.457031 365.628906 117.410156 C 360.898438 125.304688 358.867188 133.972656 358.386719 144.148438 C 359.964844 142.359375 361.320312 142.160156 362.300781 141.46875 C 370.59375 135.609375 379.691406 131.585938 389.480469 129.058594 Z M 389.480469 129.058594 " fill-opacity="1" fill-rule="nonzero"/><path fill="#f9c79a" d="M 390.109375 126.660156 C 391.136719 127.515625 391.535156 128.523438 389.480469 129.058594 C 379.691406 131.585938 370.59375 135.609375 362.300781 141.46875 C 361.320312 142.160156 359.964844 142.359375 358.386719 144.148438 C 358.867188 133.972656 360.898438 125.304688 365.628906 117.410156 C 368 113.457031 371.679688 115.632812 374.25 116.507812 C 380.265625 118.542969 385.25 122.601562 390.109375 126.660156 Z M 390.109375 126.660156 " fill-opacity="1" fill-rule="nonzero"/><path fill="#f9c79a" d="M 371.164062 184.171875 C 378.910156 183.832031 386.476562 191.25 385.730469 198.710938 C 386.511719 206.277344 378.359375 213.414062 371.386719 213.074219 C 363.875 212.710938 357.136719 207.285156 357.21875 198.546875 C 357.300781 190.3125 363.386719 184.511719 371.164062 184.171875 Z M 371.164062 184.171875 " fill-opacity="1" fill-rule="nonzero"/><path fill="#f9c79a" d="M 365.652344 422.507812 C 365.699219 423.710938 365.289062 424.707031 364.039062 424.917969 C 362.535156 425.175781 361.121094 424.625 360.359375 423.351562 C 359.34375 421.628906 358.46875 419.78125 357.886719 417.886719 C 357.464844 416.53125 357.570312 414.929688 359.355469 414.34375 C 361.085938 413.757812 362.207031 414.25 362.894531 416.144531 C 363.691406 418.308594 365.242188 420.167969 365.652344 422.507812 Z M 365.652344 422.507812 " fill-opacity="1" fill-rule="nonzero"/><path fill="#f9c79a" d="M 360.371094 404.050781 C 360.957031 405.59375 360.175781 406.953125 358.621094 407.464844 C 357.042969 407.980469 355.6875 407.152344 355.035156 405.816406 C 350.585938 396.71875 346.800781 387.417969 347.175781 376.984375 C 347.5 371.054688 347.851562 365.113281 349.230469 359.289062 C 349.617188 357.664062 349.941406 355.710938 352.277344 356.214844 C 354.3125 356.65625 355.023438 358.027344 354.601562 360.25 C 352.640625 370.542969 352.816406 380.878906 355.011719 391.089844 C 355.664062 394.121094 357.3125 397.011719 358.890625 399.734375 C 359.695312 401.140625 359.847656 402.636719 360.371094 404.050781 Z M 360.371094 404.050781 " fill-opacity="1" fill-rule="nonzero"/><path fill="#ffffff" d="M 522.898438 360.414062 C 521.871094 359.546875 520.46875 358.367188 519.164062 356.449219 C 519.140625 356.425781 517.269531 353.605469 516.371094 349.265625 C 514.363281 339.570312 520.34375 327.195312 520.398438 327.066406 C 528.003906 311.570312 520.0625 268.855469 490.769531 239.800781 C 486.925781 236 451.898438 202.863281 404.21875 211.296875 C 367.71875 217.753906 335.566406 246.257812 329.410156 277.613281 C 327.191406 288.902344 324.679688 301.683594 330.835938 314.023438 C 332.65625 317.675781 334.96875 320.773438 337.210938 323.769531 C 340.996094 328.820312 344.265625 333.171875 343.214844 338.140625 C 342.609375 341.042969 340.667969 343.710938 337.457031 346.085938 C 337.09375 346.351562 336.917969 346.796875 337 347.230469 C 337.082031 347.675781 337.410156 348.027344 337.832031 348.144531 C 340.203125 348.808594 342.632812 349.160156 345.058594 349.171875 C 345.960938 349.183594 346.753906 349.136719 347.441406 349.101562 C 348.820312 349.03125 349.546875 349.007812 349.859375 349.324219 C 350.082031 349.546875 350.703125 350.527344 349.417969 354.050781 C 345.027344 366.238281 349.894531 399.347656 363.011719 425.445312 C 366.925781 433.234375 369.75 438.859375 375.929688 444.789062 C 385.25 453.738281 397.492188 459.058594 412.289062 460.601562 C 414.507812 460.835938 416.636719 460.941406 418.691406 460.941406 C 428.78125 460.941406 437.34375 458.34375 448.476562 454.964844 C 465.761719 449.726562 474.441406 447.082031 481.9375 440.332031 C 500.066406 423.980469 505.789062 393.066406 506.300781 377.40625 C 506.605469 373.277344 508.546875 360.996094 510.273438 359.347656 C 510.390625 359.488281 510.53125 359.675781 510.660156 359.851562 C 511.183594 360.5625 511.992188 361.652344 513.425781 362.667969 C 516.5 364.84375 520.667969 365.441406 522.945312 364.761719 C 523.800781 364.507812 524.359375 364.074219 524.59375 363.464844 C 525.082031 362.214844 524.03125 361.335938 522.921875 360.402344 Z M 522.898438 360.414062 " fill-opacity="0.5" fill-rule="nonzero"/><path fill="#ed8f6b" d="M 385.445312 227.453125 C 387.210938 216.15625 376.011719 205.015625 360.429688 202.574219 C 344.847656 200.128906 330.78125 207.308594 329.015625 218.601562 C 327.25 229.898438 338.449219 241.035156 354.03125 243.480469 C 369.613281 245.921875 383.675781 238.746094 385.445312 227.453125 Z M 385.445312 227.453125 " fill-opacity="1" fill-rule="nonzero"/><path fill="#ed8f6b" d="M 502.789062 240 C 504.554688 228.703125 493.355469 217.566406 477.773438 215.121094 C 462.191406 212.679688 448.125 219.855469 446.359375 231.152344 C 444.59375 242.445312 455.792969 253.585938 471.375 256.027344 C 486.957031 258.472656 501.023438 251.296875 502.789062 240 Z M 502.789062 240 " fill-opacity="1" fill-rule="nonzero"/><path fill="#936242" d="M 571.183594 321.042969 C 575.578125 323.5 580.074219 324.585938 584.242188 326.363281 C 591.625 329.5 598.1875 333.839844 604.847656 338.109375 C 606.597656 339.230469 608.445312 341.558594 609.972656 341.347656 C 611.867188 341.078125 611.234375 337.78125 612.402344 336.085938 C 612.800781 335.511719 612.964844 334.796875 613.304688 334.175781 C 613.957031 332.972656 614.726562 331.816406 616.339844 332.574219 C 617.824219 333.277344 618.558594 334.796875 617.976562 336.140625 C 616.738281 338.925781 616.832031 342.15625 615.066406 344.714844 C 614.121094 346.074219 615.417969 346.351562 615.988281 346.902344 C 621.550781 352.203125 626.664062 357.839844 630.824219 364.355469 C 632.164062 366.460938 632.433594 368.050781 630.472656 369.570312 C 628.464844 371.113281 627.425781 369.804688 626.300781 368.074219 C 619.644531 357.769531 610.96875 349.382812 600.933594 342.46875 C 590.820312 335.488281 579.945312 329.898438 567.960938 326.832031 C 565.964844 326.316406 564.117188 326.726562 562.015625 328.082031 C 552.929688 333.96875 543.28125 338.621094 532.851562 342.027344 C 523.261719 345.160156 513.484375 346.410156 503.6875 347.945312 C 502.039062 348.203125 500.347656 348.179688 498.675781 348.191406 C 496.933594 348.214844 495.683594 347.628906 495.535156 345.59375 C 495.394531 343.640625 496.328125 342.890625 498.089844 342.398438 C 502.648438 341.148438 507.332031 341.921875 511.957031 341.125 C 526.882812 338.550781 541.191406 334.0625 554.121094 326.269531 C 564.550781 319.988281 573.601562 311.953125 580.621094 301.613281 C 585.914062 293.8125 590.234375 285.671875 592.675781 276.691406 C 596.753906 261.671875 597.195312 246.539062 593.832031 231.167969 C 591.753906 221.625 588.542969 212.558594 585.128906 203.507812 C 585.003906 203.179688 584.78125 202.886719 584.570312 202.59375 C 582.597656 199.878906 582.828125 197.636719 584.710938 194.59375 C 589.800781 186.324219 593.261719 177.226562 595.492188 167.773438 C 598.398438 155.433594 599.542969 142.964844 598.375 130.242188 C 597.746094 123.328125 596.261719 116.789062 594.148438 110.183594 C 591.402344 101.550781 585.433594 97.515625 577.257812 95.996094 C 567.050781 94.097656 556.808594 93.28125 546.351562 94.636719 C 537.464844 95.796875 528.878906 97.925781 520.632812 101.140625 C 510.507812 105.082031 501.023438 110.324219 492.894531 117.808594 C 489.390625 121.035156 486.109375 124.417969 482.90625 127.9375 C 481.238281 129.773438 478.609375 129.621094 476.625 128.359375 C 464.136719 120.371094 450.238281 119.410156 436.164062 120.730469 C 431.621094 121.152344 429.53125 119.996094 427.40625 116.417969 C 423.65625 110.101562 418.070312 105.457031 412.359375 100.917969 C 404.417969 94.613281 395.53125 90.015625 386.347656 85.980469 C 377.789062 82.226562 368.746094 79.785156 359.519531 78.296875 C 356.660156 77.828125 353.984375 79.46875 352.347656 81.632812 C 345.46875 90.753906 340.46875 101 337.292969 111.890625 C 333.496094 124.917969 331.160156 138.347656 331.992188 152.019531 C 332.445312 159.457031 333.230469 166.96875 335.761719 174.054688 C 336.722656 176.734375 335.667969 178.417969 333.964844 179.597656 C 324.761719 186.019531 317.554688 194.289062 312.261719 204.019531 C 308.558594 210.816406 305.675781 218.011719 303.632812 225.660156 C 301.609375 233.226562 300.511719 240.78125 300.117188 248.46875 C 299.589844 258.609375 300.582031 268.609375 303.339844 278.515625 C 305.230469 285.285156 307.636719 291.742188 311.105469 297.789062 C 316.011719 306.316406 322.074219 313.800781 330.71875 318.984375 C 333.859375 320.867188 336.859375 322.902344 340.421875 323.910156 C 342.351562 324.457031 342.011719 326.070312 341.929688 327.464844 C 341.824219 329.359375 340.050781 329.3125 338.988281 329.289062 C 337.515625 329.253906 335.949219 328.703125 334.605469 328.023438 C 329.816406 325.617188 328.558594 326.152344 326.980469 331.136719 C 322.589844 344.949219 323.230469 359.066406 323.710938 373.300781 C 324.105469 384.894531 327.410156 396.144531 326.96875 407.78125 C 326.851562 410.859375 327.492188 413.957031 327.714844 417.058594 C 327.84375 418.964844 327.433594 420.976562 325.203125 421.035156 C 323.207031 421.09375 321.898438 419.363281 321.96875 417.433594 C 322.367188 406.261719 319.597656 395.382812 318.851562 384.320312 C 318.242188 375.40625 316.839844 366.554688 316.957031 357.570312 C 317.109375 345.933594 318.898438 334.644531 324.480469 324.292969 C 325.378906 322.632812 324.878906 322.445312 323.882812 321.699219 C 315.546875 315.3125 309.097656 307.207031 304.378906 297.976562 C 299.859375 289.136719 296.84375 279.683594 295.316406 269.730469 C 293.457031 257.566406 293.75 245.636719 295.769531 233.484375 C 297.605469 222.453125 301.296875 212.207031 306.386719 202.511719 C 311.222656 193.296875 317.449219 184.828125 325.976562 178.59375 C 329.09375 176.3125 329.65625 173.820312 328.929688 170.664062 C 325.25 154.605469 325.953125 138.605469 328.835938 122.488281 C 330.53125 112.964844 333.390625 103.867188 337.480469 95.234375 C 340.65625 88.519531 343.960938 81.65625 349.453125 76.402344 C 353.328125 72.683594 358 71.480469 363.480469 72.742188 C 374.238281 75.210938 384.773438 78.367188 394.664062 83.234375 C 407.40625 89.503906 419.8125 96.71875 428.539062 108.125 C 432.449219 113.234375 435.859375 114.566406 441.957031 114.21875 C 454.546875 113.480469 466.695312 116.195312 477.945312 122.207031 C 479.136719 122.847656 479.671875 122.671875 480.582031 121.644531 C 489.121094 111.914062 499.46875 104.519531 511.042969 98.894531 C 521.730469 93.703125 533.074219 90.566406 544.847656 88.859375 C 556.433594 87.1875 567.925781 87.949219 579.242188 90.4375 C 587.96875 92.355469 594.859375 96.355469 598.609375 105.761719 C 605.289062 122.476562 606.074219 139.304688 603.515625 156.816406 C 602.347656 164.851562 600.429688 172.605469 597.992188 180.253906 C 596.566406 184.722656 594.742188 189.226562 592.195312 193.132812 C 589.582031 197.144531 590.011719 200.488281 591.695312 204.546875 C 596.578125 216.265625 600.058594 228.324219 601.191406 241.121094 C 601.972656 249.894531 601.621094 258.574219 600.898438 267.238281 C 600.5 272.011719 598.9375 276.726562 597.5 281.34375 C 594.371094 291.367188 589.453125 300.527344 582.96875 308.773438 C 579.523438 313.160156 575.785156 317.324219 571.207031 321.136719 Z M 571.183594 321.042969 " fill-opacity="1" fill-rule="nonzero"/><path fill="#936242" d="M 437.835938 460.730469 C 432.601562 463.46875 427.941406 464.953125 422.941406 462.390625 C 421.808594 461.808594 420.792969 461.796875 419.648438 462.507812 C 413.167969 466.507812 409.953125 466.242188 404.101562 461.328125 C 404.007812 461.257812 403.949219 461.140625 403.871094 461.058594 C 401.742188 459.210938 400.191406 457.632812 396.417969 458.542969 C 391.253906 459.796875 386.511719 456.496094 382.296875 453.363281 C 376.058594 448.730469 371.832031 442.472656 368.351562 435.679688 C 367.53125 434.085938 366.996094 432.132812 369.285156 431.140625 C 371.375 430.238281 372.019531 431.292969 373.070312 433.304688 C 377.203125 441.152344 382.671875 448.0625 390.960938 451.855469 C 393.066406 452.8125 396.558594 454.472656 398.097656 450.179688 C 398.484375 449.105469 399.605469 448.613281 400.796875 448.976562 C 402.058594 449.363281 403.332031 449.878906 403.566406 451.421875 C 404.335938 456.507812 408.609375 457.832031 412.40625 459.46875 C 414.113281 460.203125 415.621094 458.941406 416.542969 457.386719 C 418.117188 454.753906 419.601562 452.074219 421.144531 449.421875 C 422.007812 447.9375 423.070312 446.871094 424.871094 448.109375 C 426.410156 449.175781 427.183594 450.507812 426.167969 452.378906 C 425.933594 452.800781 425.722656 453.222656 425.476562 453.644531 C 423.421875 457.152344 423.84375 458.054688 428.082031 458.089844 C 430.171875 458.101562 432.367188 457.574219 434.121094 456.238281 C 440.460938 451.410156 446.371094 446.074219 452.140625 440.578125 C 453.835938 438.964844 455.472656 439.011719 456.722656 440.273438 C 458.109375 441.679688 457.679688 443.175781 456.019531 444.777344 C 450.824219 449.832031 445.507812 454.742188 439.480469 459.550781 C 441.6875 460.261719 442.726562 461.515625 442.601562 463.691406 C 442.214844 470.207031 442.542969 476.777344 439.609375 482.941406 C 438.546875 485.175781 437.238281 487.28125 436.1875 489.527344 C 434.402344 493.339844 434.4375 497.152344 434.5625 501.058594 C 434.65625 504.019531 438.863281 507.09375 442.820312 508.511719 C 452.972656 512.113281 463.425781 512.183594 473.855469 511.199219 C 481.191406 510.511719 488.222656 508.019531 493.886719 502.976562 C 495.988281 501.105469 497.34375 498.382812 498.277344 495.703125 C 502.472656 483.667969 503.851562 471 506.199219 458.554688 C 506.59375 456.472656 506.300781 454.25 506.3125 452.097656 C 506.335938 449.679688 507.609375 447.9375 509.933594 448.203125 C 512.222656 448.460938 512.726562 450.402344 512.515625 452.753906 C 511.605469 462.472656 509.910156 472.078125 508.347656 481.703125 C 507.855469 484.730469 506.558594 487.585938 506.035156 490.664062 C 505.707031 492.558594 506.210938 492.777344 507.667969 492.605469 C 511.570312 492.136719 515.460938 491.621094 519.347656 491.105469 C 529.359375 489.796875 538.949219 486.929688 548.375 483.351562 C 550.511719 482.546875 551.984375 480.695312 554.285156 480.242188 C 555.078125 480.089844 554.65625 479.328125 554.425781 478.777344 C 549.695312 467.585938 554.238281 458.496094 561.375 450.308594 C 563.042969 448.402344 562.949219 446.871094 562.121094 445.398438 C 559.269531 440.296875 557.214844 434.847656 555.765625 429.304688 C 552.789062 417.886719 550.875 406.414062 553.828125 394.484375 C 557.167969 381.03125 563.523438 369.6875 574.339844 360.972656 C 576.019531 359.617188 577.550781 357.804688 579.851562 357.59375 C 580.914062 357.5 582.769531 356.632812 583.015625 358.667969 C 583.191406 360.132812 583.71875 361.59375 581.683594 362.925781 C 575.636719 366.890625 570.472656 371.921875 566.722656 378.167969 C 558.992188 391.042969 557.214844 404.800781 559.832031 419.628906 C 561.480469 428.976562 564.679688 437.527344 568.847656 445.867188 C 569.875 447.925781 569.28125 449.503906 567.914062 451.070312 C 565.496094 453.84375 562.820312 456.355469 561.199219 459.832031 C 558.078125 466.496094 558.042969 472.976562 560.988281 479.726562 C 564 486.636719 569.863281 488.453125 576.335938 487.996094 C 590.199219 487.023438 603.1875 482.917969 614.820312 475.058594 C 620.789062 471.023438 624.070312 464.917969 626.476562 458.484375 C 629.152344 451.316406 631.910156 444.121094 633.578125 436.613281 C 636.054688 425.492188 638.683594 414.367188 637.09375 402.8125 C 636.816406 400.753906 637.679688 399.253906 639.582031 398.578125 C 641.324219 397.957031 642.597656 399.195312 642.78125 400.578125 C 643.589844 406.25 648.355469 406.027344 651.953125 406.273438 C 666.015625 407.246094 677.589844 401.769531 684.726562 389.710938 C 687.632812 384.789062 691.417969 382.707031 695.796875 380.25 C 703.648438 375.839844 710.433594 370.179688 713.46875 361.242188 C 714.089844 359.429688 714.671875 357.910156 716.753906 358.574219 C 718.855469 359.242188 719.078125 361.078125 718.46875 363.019531 C 716.308594 369.898438 712.371094 375.582031 706.707031 379.980469 C 702.503906 383.242188 697.925781 385.980469 693.160156 388.367188 C 690.238281 389.828125 689.96875 393.113281 688.242188 395.417969 C 681.515625 404.378906 672.941406 409.734375 661.855469 411.523438 C 656.179688 412.449219 650.703125 411.886719 645.199219 411.011719 C 643.367188 410.71875 643.449219 411.5 643.414062 412.636719 C 643.003906 424.707031 640.179688 436.390625 636.570312 447.761719 C 634.128906 455.457031 631.570312 463.292969 627.238281 470.300781 C 623.710938 476.007812 618.511719 479.902344 612.894531 483.164062 C 608.316406 485.832031 603.410156 487.878906 598.386719 489.679688 C 588.566406 493.210938 578.402344 494.230469 568.160156 493.117188 C 564.421875 492.710938 560.71875 490.652344 558.675781 486.894531 C 557.894531 485.445312 557.003906 485.046875 555.558594 486.101562 C 550.464844 489.761719 544.378906 491.246094 538.585938 493.09375 C 531.039062 495.503906 523.144531 496.769531 515.273438 497.914062 C 512.761719 498.277344 510.226562 498.628906 507.785156 498.277344 C 504.632812 497.832031 502.761719 499.117188 501.769531 501.796875 C 499.246094 508.582031 493.140625 511.539062 487.359375 513.867188 C 478.621094 517.398438 469.136719 518.476562 459.675781 517.679688 C 450.824219 516.945312 442.050781 515.515625 434.144531 511.035156 C 431.679688 509.644531 430.089844 507.339844 429.578125 504.558594 C 429.109375 502.054688 428.5625 500.917969 425.429688 501.65625 C 417.007812 503.65625 408.691406 502.546875 400.667969 499.410156 C 399.207031 498.835938 398.660156 499.234375 397.878906 500.488281 C 392.027344 510.007812 382.472656 512.664062 372.285156 514.230469 C 365.476562 515.28125 358.65625 515.164062 351.976562 514.066406 C 343.25 512.628906 334.546875 510.335938 328.300781 503.433594 C 323.558594 498.195312 322.378906 491.503906 324.972656 485.105469 C 327.878906 477.9375 326.898438 470.847656 326.464844 463.65625 C 326.289062 460.8125 325.296875 458.054688 325.484375 455.152344 C 325.578125 453.75 325.824219 452.519531 327.574219 452.355469 C 329.292969 452.191406 330.296875 452.824219 330.53125 454.636719 C 331.746094 464.136719 334.863281 473.515625 331.980469 483.246094 C 331.664062 484.300781 331.253906 485.234375 330.800781 486.195312 C 328.207031 491.691406 330.71875 499.738281 336.464844 502.792969 C 348.855469 509.398438 361.972656 509.445312 375.289062 507.679688 C 379.445312 507.128906 383.546875 505.621094 387.15625 503.316406 C 390.972656 500.871094 393.753906 497.667969 393.671875 492.699219 C 393.519531 483.609375 394.105469 474.507812 392.867188 465.457031 C 392.621094 463.667969 392.679688 461.832031 394.933594 461.65625 C 396.835938 461.515625 397.714844 462.753906 398.027344 464.777344 C 399.070312 471.410156 398.964844 478.101562 399.300781 484.765625 C 399.710938 492.765625 402.304688 495.808594 410.375 496.183594 C 415.023438 496.394531 419.707031 496.347656 424.367188 496.183594 C 426.121094 496.125 428.386719 496.289062 428.886719 493.75 C 429.867188 488.8125 431.960938 484.371094 434.515625 480.078125 C 437.976562 474.242188 436.175781 467.503906 437.882812 460.730469 Z M 437.835938 460.730469 " fill-opacity="1" fill-rule="nonzero"/><path fill="#5f3925" d="M 408.378906 251.203125 C 399.21875 250.839844 390.730469 248.710938 383.90625 242 C 381.328125 239.460938 379.867188 236.292969 378.710938 232.992188 C 378.148438 231.390625 378.910156 229.824219 380.53125 229.132812 C 382.402344 228.347656 383.523438 229.625 384.128906 231.132812 C 385.601562 234.769531 387.296875 238.1875 390.90625 240.222656 C 391.417969 240.511719 391.816406 241.003906 392.339844 241.25 C 395.132812 242.558594 396.535156 244.070312 398.132812 243.636719 C 398.378906 243.566406 398.765625 243.425781 399.195312 243.085938 C 400.796875 231.613281 401.71875 226.96875 402.257812 225.789062 C 402.339844 225.613281 402.679688 224.921875 402.46875 224.1875 C 402.28125 223.566406 401.730469 223.074219 400.902344 222.675781 C 399.40625 221.964844 397.914062 221.191406 396.59375 220.195312 C 393.683594 218.011719 392.773438 214.734375 393.847656 211.566406 C 394.921875 208.371094 398.039062 206.511719 401.242188 206.019531 C 407.59375 205.039062 413.914062 204.839844 419.753906 208.664062 C 422.605469 210.523438 425.289062 213.882812 424.964844 216.628906 C 424.625 219.449219 421.296875 223.15625 418.316406 223.742188 C 416.109375 224.175781 413.808594 224.640625 411.601562 224.476562 C 410.480469 224.394531 409.6875 224.570312 409.101562 224.96875 C 407.933594 225.742188 407.535156 227.085938 407.304688 228.011719 C 405.304688 235.730469 405.75 235.589844 405.09375 242.011719 C 405.039062 242.550781 404.921875 243.742188 405.632812 244.515625 C 406.226562 245.15625 407.152344 245.25 407.675781 245.238281 C 414.554688 245.179688 421.167969 244.246094 426.5625 239.390625 C 427.359375 238.675781 428.09375 237.835938 428.992188 237.285156 C 430.335938 236.476562 431.679688 236.511719 432.835938 237.8125 C 433.875 238.992188 433.933594 240.199219 432.964844 241.367188 C 429.285156 245.789062 424.507812 248.421875 418.972656 249.730469 C 415.503906 250.550781 412.058594 251.625 408.390625 251.203125 Z M 408.378906 251.203125 " fill-opacity="1" fill-rule="nonzero"/><path fill="#936242" d="M 443.476562 352.386719 C 433.476562 352.039062 423.550781 350.855469 413.585938 349.957031 C 402.679688 348.972656 392.074219 346.550781 381.457031 344.363281 C 372.742188 342.574219 364.109375 339.910156 355.769531 336.585938 C 354.277344 335.992188 353.539062 334.433594 354.101562 332.761719 C 354.636719 331.136719 355.980469 330.84375 357.570312 331.101562 C 361.796875 331.792969 365.59375 333.804688 369.695312 334.972656 C 380.625 338.097656 391.652344 340.550781 402.839844 342.480469 C 418.257812 345.136719 433.78125 346.492188 449.386719 345.945312 C 458.34375 345.628906 467.429688 345.429688 476.121094 342.515625 C 477.734375 341.980469 479.683594 341.441406 480.488281 343.96875 C 481.226562 346.304688 480.304688 347.558594 478.082031 348.238281 C 471.472656 350.285156 464.582031 350.796875 457.785156 351.605469 C 453.078125 352.167969 448.289062 352.726562 443.488281 352.378906 Z M 443.476562 352.386719 " fill-opacity="1" fill-rule="nonzero"/><path fill="#936242" d="M 565.085938 149.035156 C 565.636719 154.96875 564.890625 161.480469 562.414062 167.878906 C 561.757812 169.5625 560.824219 170.59375 559.539062 171.15625 C 557.8125 171.914062 556.304688 170.207031 555.742188 169.179688 C 551.949219 162.3125 545.816406 157.691406 540.222656 152.617188 C 534.382812 147.328125 528.25 142.335938 520.960938 139.035156 C 518.542969 137.9375 518.496094 135.421875 520.773438 133.914062 C 527.5 129.46875 534.964844 127.152344 542.929688 126.113281 C 547.578125 125.503906 552.203125 125.351562 556.863281 125.515625 C 559.644531 125.609375 561.292969 126.570312 562.613281 129.621094 C 565.25 135.714844 565.214844 141.902344 565.085938 149.046875 Z M 528.167969 135.949219 C 539.542969 143.65625 549.179688 152.019531 557.8125 161.691406 C 559.679688 156.136719 560.347656 144.816406 559.191406 139.539062 C 557.953125 133.917969 554.4375 131.125 548.652344 131.164062 C 548.175781 131.164062 547.695312 131.128906 547.230469 131.1875 C 540.921875 132.007812 534.753906 133.375 528.179688 135.949219 Z M 528.167969 135.949219 " fill-opacity="1" fill-rule="nonzero"/><path fill="#5f3925" d="M 461.101562 223.882812 C 452.503906 224.675781 445.8125 216.394531 446.199219 208.722656 C 446.652344 199.730469 452.164062 194.03125 461.265625 193.878906 C 469.03125 193.75 475.933594 199.835938 476.226562 208.921875 C 476.484375 217.039062 468.25 225.085938 461.101562 223.882812 Z M 461.101562 223.882812 " fill-opacity="1" fill-rule="nonzero"/><path fill="#936242" d="M 352.125 144.289062 C 352.910156 132.765625 355.527344 121.855469 362.753906 112.472656 C 364.578125 110.113281 366.621094 109.222656 369.742188 109.773438 C 381.152344 111.785156 390.039062 117.949219 397.5625 126.347656 C 399.898438 128.953125 400.433594 132.664062 395.355469 133.679688 C 384.058594 135.925781 373.898438 140.699219 364.332031 146.945312 C 362.777344 147.949219 361.191406 148.988281 359.917969 150.3125 C 358.527344 151.75 357.359375 153.003906 355.082031 152.335938 C 352.757812 151.644531 352.523438 149.703125 352.160156 147.878906 C 351.941406 146.734375 352.113281 145.492188 352.113281 144.300781 Z M 358.386719 144.148438 C 359.964844 142.359375 361.320312 142.160156 362.300781 141.46875 C 370.582031 135.609375 379.691406 131.585938 389.480469 129.058594 C 391.535156 128.535156 391.136719 127.515625 390.109375 126.660156 C 385.25 122.613281 380.265625 118.542969 374.261719 116.507812 C 371.679688 115.632812 368 113.457031 365.628906 117.410156 C 360.898438 125.304688 358.867188 133.960938 358.386719 144.136719 Z M 358.386719 144.148438 " fill-opacity="1" fill-rule="nonzero"/><path fill="#936242" d="M 649.488281 253.34375 C 655.679688 253.730469 662.859375 255.308594 669.050781 259.894531 C 670.417969 260.898438 671.984375 262.445312 670.945312 264.339844 C 669.949219 266.152344 668.210938 266.292969 666.375 265.027344 C 665.035156 264.09375 663.46875 263.507812 662.066406 262.644531 C 655.515625 258.585938 648.179688 259.050781 641.21875 260.035156 C 635.566406 260.84375 630.449219 263.929688 626.863281 268.914062 C 625.613281 270.65625 625.8125 272.128906 626.933594 273.660156 C 630.402344 278.445312 632.761719 283.765625 634.992188 289.21875 C 638.601562 298.046875 638.941406 307.042969 636.59375 316.046875 C 635.726562 319.347656 633.21875 322.246094 631.300781 325.230469 C 630.367188 326.667969 628.683594 327.300781 627.261719 326.234375 C 625.988281 325.277344 625.636719 323.582031 626.511719 322.011719 C 627.273438 320.667969 628.253906 319.441406 628.988281 318.082031 C 633.542969 309.730469 632.621094 301.195312 629.957031 292.527344 C 627.996094 286.140625 624.480469 280.609375 621 275.019531 C 618.746094 271.402344 619.257812 268.269531 621.96875 265.179688 C 628.90625 257.273438 637.679688 253.425781 649.488281 253.34375 Z M 649.488281 253.34375 " fill-opacity="1" fill-rule="nonzero"/><path fill="#936242" d="M 679.902344 262.726562 C 689.773438 262.796875 697.75 267.484375 705.085938 273.4375 C 711.765625 278.867188 717.019531 285.71875 721.097656 293.148438 C 726.75 303.453125 730.300781 314.679688 730.007812 326.621094 C 729.84375 333.195312 729.015625 339.875 724.964844 345.5 C 723.726562 347.21875 722.347656 349.3125 719.789062 347.171875 C 717.511719 345.253906 719.089844 343.617188 720.234375 341.957031 C 722.148438 339.183594 723.445312 335.957031 723.609375 332.761719 C 724.097656 322.773438 723.574219 313.03125 719.296875 303.5 C 715.257812 294.46875 710.082031 286.503906 703.097656 279.683594 C 697.175781 273.894531 690.179688 269.917969 681.898438 268.5625 C 680.042969 268.257812 678.136719 268.28125 676.234375 268.855469 C 674.050781 269.519531 672.683594 268.257812 672.460938 266.222656 C 672.261719 264.421875 673.234375 262.957031 675.242188 262.761719 C 676.785156 262.609375 678.347656 262.726562 679.902344 262.726562 Z M 679.902344 262.726562 " fill-opacity="1" fill-rule="nonzero"/><path fill="#5f3925" d="M 385.742188 198.710938 C 386.523438 206.277344 378.371094 213.414062 371.386719 213.074219 C 363.875 212.710938 357.136719 207.285156 357.230469 198.546875 C 357.3125 190.3125 363.398438 184.511719 371.164062 184.171875 C 378.910156 183.832031 386.488281 191.261719 385.742188 198.710938 Z M 385.742188 198.710938 " fill-opacity="1" fill-rule="nonzero"/><path fill="#936242" d="M 511.359375 368.667969 C 510.367188 377.617188 510.050781 386.589844 507.761719 395.488281 C 505.367188 404.800781 499.679688 411.394531 493.628906 418.039062 C 492.566406 419.210938 491 420.449219 489.367188 418.601562 C 487.460938 416.460938 488.722656 414.648438 490.183594 413.035156 C 493.035156 409.910156 496.128906 407.023438 498.207031 403.234375 C 502.332031 395.710938 504.070312 387.464844 504.914062 379.125 C 505.449219 373.828125 506.628906 368.507812 505.917969 363.089844 C 505.71875 361.546875 506.945312 360.644531 508.335938 360.472656 C 510.027344 360.261719 511.125 361.371094 511.3125 362.925781 C 511.535156 364.808594 511.371094 366.75 511.371094 368.660156 Z M 511.359375 368.667969 " fill-opacity="1" fill-rule="nonzero"/><path fill="#936242" d="M 347.175781 376.996094 C 347.5 371.066406 347.863281 365.125 349.230469 359.300781 C 349.617188 357.664062 349.941406 355.710938 352.277344 356.226562 C 354.3125 356.667969 355.011719 358.039062 354.589844 360.261719 C 352.640625 370.554688 352.804688 380.878906 355.011719 391.089844 C 355.664062 394.121094 357.3125 397.011719 358.890625 399.746094 C 359.695312 401.152344 359.847656 402.648438 360.371094 404.0625 C 360.945312 405.605469 360.175781 406.953125 358.609375 407.476562 C 357.03125 408.003906 355.675781 407.164062 355.035156 405.828125 C 350.574219 396.742188 346.800781 387.429688 347.175781 376.996094 Z M 347.175781 376.996094 " fill-opacity="1" fill-rule="nonzero"/><path fill="#936242" d="M 488.363281 429.023438 C 488.539062 430.519531 488.058594 431.492188 487.242188 432.472656 C 480.605469 440.53125 473.363281 448.003906 464.6875 453.832031 C 461.753906 455.796875 458.554688 457.949219 454.628906 457.75 C 453.207031 457.679688 451.933594 457.210938 451.863281 455.597656 C 451.792969 454.238281 452.328125 452.90625 453.847656 452.601562 C 461.160156 451.152344 465.972656 445.902344 471.050781 441.175781 C 475.632812 436.917969 479.941406 432.355469 483.726562 427.339844 C 484.707031 426.027344 486.15625 426.484375 487.371094 426.636719 C 488.980469 426.847656 488.09375 428.367188 488.363281 429.035156 Z M 488.363281 429.023438 " fill-opacity="1" fill-rule="nonzero"/><path fill="#936242" d="M 365.652344 422.507812 C 365.699219 423.710938 365.289062 424.707031 364.039062 424.917969 C 362.535156 425.175781 361.121094 424.613281 360.359375 423.339844 C 359.34375 421.617188 358.46875 419.769531 357.886719 417.875 C 357.476562 416.53125 357.570312 414.929688 359.355469 414.332031 C 361.085938 413.757812 362.21875 414.238281 362.90625 416.132812 C 363.691406 418.296875 365.253906 420.15625 365.664062 422.496094 Z M 365.652344 422.507812 " fill-opacity="1" fill-rule="nonzero"/><path fill="#936242" d="M 324.058594 443.339844 C 324.058594 441.457031 323.851562 440.285156 325.097656 439.738281 C 326.347656 439.175781 327.5625 439.46875 328.242188 440.589844 C 329.316406 442.378906 331.605469 442.589844 332.667969 444.425781 C 333.355469 445.632812 333.613281 446.519531 332.5625 447.5625 C 331.664062 448.449219 330.800781 449.234375 329.503906 448.238281 C 327.386719 446.625 324.796875 445.46875 324.058594 443.351562 Z M 324.058594 443.339844 " fill-opacity="1" fill-rule="nonzero"/><path fill="#936242" d="M 331.734375 435.621094 C 331.078125 437 329.78125 438.074219 328.207031 437.550781 C 325.964844 436.789062 323.976562 435.316406 322.867188 433.140625 C 322.003906 431.445312 322.949219 430.109375 324.585938 429.503906 C 326.152344 428.917969 331.804688 433.691406 331.722656 435.621094 Z M 331.734375 435.621094 " fill-opacity="1" fill-rule="nonzero"/><path fill="#936242" d="M 721.296875 357.523438 C 719.566406 357.535156 716.601562 354.320312 716.683594 352.621094 C 716.753906 350.949219 717.816406 350.003906 719.34375 349.78125 C 720.898438 349.558594 723.679688 353.089844 723.738281 355.078125 C 723.796875 356.949219 722.894531 357.664062 721.296875 357.523438 Z M 721.296875 357.523438 " fill-opacity="1" fill-rule="nonzero"/><path fill="#936242" d="M 624.011719 331.511719 C 623.851562 333.710938 624.550781 335.992188 621.980469 335.851562 C 618.359375 335.652344 619.027344 332.503906 618.792969 330.175781 C 618.640625 328.667969 619.074219 327.148438 621.070312 327.429688 C 623.816406 327.816406 624.257812 329.804688 624.011719 331.511719 Z M 624.011719 331.511719 " fill-opacity="1" fill-rule="nonzero"/><path fill="#936242" d="M 639.511719 393.394531 C 637.234375 393.828125 636.054688 392.835938 636.078125 390.613281 C 636.113281 388.085938 638.019531 388.472656 639.652344 388.4375 C 641.546875 388.402344 643.4375 388.519531 643.332031 391.035156 C 643.238281 393.511719 641.347656 393.582031 639.5 393.394531 Z M 639.511719 393.394531 " fill-opacity="1" fill-rule="nonzero"/><path fill="#936242" d="M 636.417969 383.394531 C 634.675781 383.5 633.21875 383.066406 633.390625 380.972656 C 633.554688 379.089844 634.664062 378.273438 636.710938 378.261719 C 638.835938 378.261719 639.957031 379.441406 640.003906 381.101562 C 640.0625 383.277344 638.144531 383.453125 636.417969 383.382812 Z M 636.417969 383.394531 " fill-opacity="1" fill-rule="nonzero"/><path fill="#ffffff" d="M 364.613281 199.824219 C 367.023438 199.824219 368.980469 197.863281 368.980469 195.449219 C 368.980469 193.03125 367.023438 191.074219 364.613281 191.074219 C 362.199219 191.074219 360.246094 193.03125 360.246094 195.449219 C 360.246094 197.863281 362.199219 199.824219 364.613281 199.824219 Z M 364.613281 199.824219 " fill-opacity="1" fill-rule="nonzero"/><path fill="#ffffff" d="M 455.820312 207.378906 C 458.234375 207.378906 460.191406 205.421875 460.191406 203.003906 C 460.191406 200.585938 458.234375 198.628906 455.820312 198.628906 C 453.410156 198.628906 451.453125 200.585938 451.453125 203.003906 C 451.453125 205.421875 453.410156 207.378906 455.820312 207.378906 Z M 455.820312 207.378906 " fill-opacity="1" fill-rule="nonzero"/><path fill="#ed8f6b" d="M 559.179688 139.527344 C 560.335938 144.804688 559.667969 156.125 557.800781 161.679688 C 549.179688 152.007812 539.53125 143.644531 528.167969 135.9375 C 534.742188 133.375 540.898438 132.007812 547.21875 131.175781 C 547.683594 131.117188 548.164062 131.164062 548.640625 131.152344 C 554.425781 131.113281 557.941406 133.90625 559.179688 139.527344 Z M 559.179688 139.527344 " fill-opacity="0.55" fill-rule="nonzero"/><path fill="#ed8f6b" d="M 390.109375 126.660156 C 391.136719 127.515625 391.535156 128.523438 389.480469 129.058594 C 379.691406 131.585938 370.59375 135.609375 362.300781 141.46875 C 361.320312 142.160156 359.964844 142.359375 358.386719 144.148438 C 358.867188 133.972656 360.898438 125.304688 365.628906 117.410156 C 368 113.457031 371.679688 115.632812 374.25 116.507812 C 380.265625 118.542969 385.25 122.601562 390.109375 126.660156 Z M 390.109375 126.660156 " fill-opacity="0.55" fill-rule="nonzero"/></svg>