<svg xmlns="http://www.w3.org/2000/svg" xmlns:xlink="http://www.w3.org/1999/xlink" width="1366" zoomAndPan="magnify" viewBox="0 0 1024.5 576" height="768" preserveAspectRatio="xMidYMid meet" version="1.0"><defs><clipPath id="bba8231dc7"><path d="M 102 223.113281 L 921.898438 223.113281 L 921.898438 352 L 102 352 Z M 102 223.113281 " clip-rule="nonzero"/></clipPath></defs><g clip-path="url(#bba8231dc7)"><path fill="#ffc30f" d="M 235.964844 275.277344 L 205.761719 304.710938 C 205.128906 305.324219 204.84375 306.207031 204.992188 307.074219 L 212.125 348.636719 C 212.496094 350.816406 210.207031 352.480469 208.25 351.449219 L 170.914062 331.824219 C 170.136719 331.417969 169.207031 331.417969 168.429688 331.824219 L 131.09375 351.449219 C 129.132812 352.476562 126.847656 350.816406 127.222656 348.636719 L 134.351562 307.074219 C 134.5 306.207031 134.214844 305.324219 133.585938 304.710938 L 103.375 275.277344 C 101.792969 273.730469 102.664062 271.039062 104.855469 270.722656 L 146.597656 264.660156 C 147.46875 264.535156 148.21875 263.988281 148.609375 263.199219 L 167.277344 225.386719 C 168.257812 223.398438 171.085938 223.398438 172.066406 225.386719 L 190.734375 263.199219 C 191.121094 263.988281 191.875 264.53125 192.746094 264.660156 L 234.488281 270.722656 C 236.679688 271.039062 237.554688 273.730469 235.96875 275.277344 Z M 405.574219 270.722656 L 363.828125 264.660156 C 362.960938 264.535156 362.207031 263.988281 361.820312 263.199219 L 343.152344 225.386719 C 342.171875 223.398438 339.34375 223.398438 338.363281 225.386719 L 319.695312 263.199219 C 319.308594 263.988281 318.554688 264.53125 317.6875 264.660156 L 275.941406 270.722656 C 273.75 271.039062 272.878906 273.730469 274.464844 275.277344 L 304.667969 304.710938 C 305.296875 305.324219 305.582031 306.207031 305.433594 307.074219 L 298.304688 348.636719 C 297.929688 350.816406 300.21875 352.480469 302.175781 351.449219 L 339.511719 331.824219 C 340.289062 331.417969 341.21875 331.417969 341.996094 331.824219 L 379.332031 351.449219 C 381.292969 352.476562 383.582031 350.816406 383.207031 348.636719 L 376.074219 307.074219 C 375.925781 306.207031 376.214844 305.324219 376.84375 304.710938 L 407.046875 275.277344 C 408.632812 273.730469 407.757812 271.039062 405.570312 270.722656 Z M 576.664062 270.722656 L 534.921875 264.660156 C 534.050781 264.535156 533.296875 263.988281 532.910156 263.199219 L 514.242188 225.386719 C 513.261719 223.398438 510.433594 223.398438 509.453125 225.386719 L 490.785156 263.199219 C 490.394531 263.988281 489.644531 264.53125 488.773438 264.660156 L 447.03125 270.722656 C 444.839844 271.039062 443.964844 273.730469 445.550781 275.277344 L 475.753906 304.710938 C 476.386719 305.324219 476.671875 306.207031 476.523438 307.074219 L 469.390625 348.636719 C 469.019531 350.816406 471.308594 352.480469 473.265625 351.449219 L 510.601562 331.824219 C 511.378906 331.417969 512.308594 331.417969 513.085938 331.824219 L 550.421875 351.449219 C 552.382812 352.476562 554.667969 350.816406 554.292969 348.636719 L 547.164062 307.074219 C 547.015625 306.207031 547.300781 305.324219 547.929688 304.710938 L 578.136719 275.277344 C 579.71875 273.730469 578.847656 271.039062 576.65625 270.722656 Z M 747.753906 270.722656 L 706.011719 264.660156 C 705.140625 264.535156 704.390625 263.988281 704 263.199219 L 685.332031 225.386719 C 684.351562 223.398438 681.523438 223.398438 680.542969 225.386719 L 661.875 263.199219 C 661.484375 263.988281 660.734375 264.53125 659.863281 264.660156 L 618.121094 270.722656 C 615.929688 271.039062 615.054688 273.730469 616.640625 275.277344 L 646.847656 304.710938 C 647.476562 305.324219 647.761719 306.207031 647.613281 307.074219 L 640.480469 348.636719 C 640.109375 350.816406 642.398438 352.480469 644.355469 351.449219 L 681.691406 331.824219 C 682.46875 331.417969 683.398438 331.417969 684.175781 331.824219 L 721.511719 351.449219 C 723.472656 352.476562 725.757812 350.816406 725.386719 348.636719 L 718.253906 307.074219 C 718.105469 306.207031 718.390625 305.324219 719.019531 304.710938 L 749.226562 275.277344 C 750.808594 273.730469 749.9375 271.039062 747.746094 270.722656 Z M 920.324219 275.277344 C 921.90625 273.730469 921.035156 271.039062 918.84375 270.722656 L 877.101562 264.660156 C 876.230469 264.535156 875.480469 263.988281 875.089844 263.199219 L 856.421875 225.386719 C 855.441406 223.398438 852.613281 223.398438 851.632812 225.386719 L 832.964844 263.199219 C 832.574219 263.988281 831.824219 264.53125 830.953125 264.660156 L 789.210938 270.722656 C 787.019531 271.039062 786.144531 273.730469 787.730469 275.277344 L 817.9375 304.710938 C 818.566406 305.324219 818.851562 306.207031 818.703125 307.074219 L 811.570312 348.636719 C 811.199219 350.816406 813.488281 352.480469 815.445312 351.449219 L 852.78125 331.824219 C 853.558594 331.417969 854.488281 331.417969 855.265625 331.824219 L 892.601562 351.449219 C 894.5625 352.476562 896.847656 350.816406 896.476562 348.636719 L 889.34375 307.074219 C 889.195312 306.207031 889.480469 305.324219 890.109375 304.710938 L 920.316406 275.277344 Z M 920.324219 275.277344 " fill-opacity="1" fill-rule="nonzero"/></g></svg>