<svg xmlns="http://www.w3.org/2000/svg" xmlns:xlink="http://www.w3.org/1999/xlink" width="1366" zoomAndPan="magnify" viewBox="0 0 1024.5 576" height="768" preserveAspectRatio="xMidYMid meet" version="1.0"><defs><clipPath id="d413e185e3"><path d="M 271 28.304688 L 771.800781 28.304688 L 771.800781 528 L 271 528 Z M 271 28.304688 " clip-rule="nonzero"/></clipPath></defs><g clip-path="url(#d413e185e3)"><path fill="#936242" d="M 771.339844 278.152344 C 771.339844 282.238281 771.242188 286.324219 771.042969 290.40625 C 770.84375 294.488281 770.542969 298.5625 770.140625 302.628906 C 769.742188 306.695312 769.242188 310.75 768.644531 314.792969 C 768.042969 318.835938 767.347656 322.863281 766.550781 326.871094 C 765.753906 330.878906 764.859375 334.867188 763.863281 338.832031 C 762.871094 342.796875 761.785156 346.734375 760.597656 350.644531 C 759.410156 354.554688 758.128906 358.433594 756.753906 362.28125 C 755.378906 366.132812 753.90625 369.941406 752.34375 373.71875 C 750.78125 377.496094 749.125 381.230469 747.378906 384.925781 C 745.632812 388.621094 743.792969 392.269531 741.867188 395.875 C 739.941406 399.480469 737.929688 403.035156 735.828125 406.539062 C 733.726562 410.046875 731.542969 413.496094 729.273438 416.894531 C 727 420.292969 724.648438 423.632812 722.214844 426.917969 C 719.78125 430.199219 717.269531 433.421875 714.675781 436.582031 C 712.082031 439.742188 709.414062 442.835938 706.671875 445.863281 C 703.925781 448.890625 701.109375 451.851562 698.21875 454.742188 C 695.328125 457.628906 692.371094 460.449219 689.34375 463.191406 C 686.316406 465.9375 683.222656 468.605469 680.0625 471.199219 C 676.902344 473.792969 673.683594 476.308594 670.398438 478.742188 C 667.117188 481.175781 663.777344 483.527344 660.378906 485.800781 C 656.980469 488.070312 653.53125 490.257812 650.023438 492.359375 C 646.519531 494.460938 642.964844 496.472656 639.359375 498.402344 C 635.757812 500.328125 632.105469 502.164062 628.414062 503.914062 C 624.71875 505.660156 620.984375 507.316406 617.207031 508.878906 C 613.433594 510.445312 609.621094 511.914062 605.773438 513.292969 C 601.925781 514.667969 598.042969 515.949219 594.132812 517.136719 C 590.222656 518.324219 586.285156 519.414062 582.320312 520.40625 C 578.355469 521.402344 574.371094 522.296875 570.363281 523.09375 C 566.355469 523.890625 562.328125 524.589844 558.285156 525.191406 C 554.242188 525.789062 550.1875 526.289062 546.121094 526.691406 C 542.054688 527.089844 537.980469 527.390625 533.898438 527.59375 C 529.816406 527.792969 525.730469 527.894531 521.644531 527.894531 C 517.558594 527.894531 513.472656 527.792969 509.390625 527.59375 C 505.308594 527.394531 501.234375 527.09375 497.167969 526.691406 C 493.097656 526.292969 489.042969 525.792969 485 525.191406 C 480.957031 524.59375 476.933594 523.894531 472.925781 523.097656 C 468.917969 522.300781 464.929688 521.40625 460.964844 520.414062 C 457 519.417969 453.0625 518.332031 449.152344 517.144531 C 445.242188 515.957031 441.363281 514.675781 437.515625 513.300781 C 433.667969 511.921875 429.855469 510.453125 426.078125 508.886719 C 422.300781 507.324219 418.566406 505.667969 414.871094 503.921875 C 411.179688 502.175781 407.527344 500.335938 403.925781 498.410156 C 400.320312 496.484375 396.765625 494.46875 393.257812 492.371094 C 389.753906 490.269531 386.300781 488.082031 382.902344 485.8125 C 379.507812 483.542969 376.164062 481.1875 372.882812 478.753906 C 369.601562 476.320312 366.378906 473.804688 363.21875 471.214844 C 360.0625 468.621094 356.96875 465.953125 353.9375 463.207031 C 350.910156 460.464844 347.953125 457.644531 345.0625 454.757812 C 342.171875 451.867188 339.355469 448.90625 336.609375 445.878906 C 333.867188 442.851562 331.195312 439.757812 328.605469 436.597656 C 326.011719 433.4375 323.5 430.21875 321.0625 426.933594 C 318.628906 423.652344 316.277344 420.3125 314.007812 416.914062 C 311.734375 413.515625 309.550781 410.0625 307.449219 406.558594 C 305.347656 403.050781 303.332031 399.496094 301.40625 395.894531 C 299.480469 392.289062 297.644531 388.640625 295.898438 384.945312 C 294.148438 381.25 292.492188 377.515625 290.929688 373.738281 C 289.367188 369.964844 287.894531 366.152344 286.519531 362.304688 C 285.140625 358.457031 283.859375 354.574219 282.675781 350.664062 C 281.488281 346.753906 280.398438 342.816406 279.40625 338.851562 C 278.414062 334.886719 277.519531 330.902344 276.722656 326.890625 C 275.921875 322.882812 275.226562 318.859375 274.625 314.816406 C 274.027344 310.773438 273.527344 306.71875 273.125 302.652344 C 272.726562 298.582031 272.425781 294.507812 272.226562 290.425781 C 272.023438 286.34375 271.925781 282.261719 271.925781 278.171875 C 271.925781 274.085938 272.023438 270.003906 272.226562 265.921875 C 272.425781 261.839844 272.726562 257.765625 273.128906 253.695312 C 273.527344 249.628906 274.03125 245.574219 274.628906 241.53125 C 275.230469 237.488281 275.929688 233.464844 276.726562 229.457031 C 277.523438 225.445312 278.417969 221.460938 279.410156 217.496094 C 280.40625 213.53125 281.496094 209.59375 282.683594 205.683594 C 283.867188 201.773438 285.152344 197.894531 286.527344 194.046875 C 287.90625 190.199219 289.375 186.386719 290.941406 182.609375 C 292.503906 178.835938 294.160156 175.097656 295.90625 171.40625 C 297.65625 167.710938 299.492188 164.0625 301.417969 160.457031 C 303.347656 156.851562 305.359375 153.296875 307.460938 149.792969 C 309.5625 146.289062 311.75 142.835938 314.019531 139.4375 C 316.289062 136.039062 318.644531 132.699219 321.078125 129.417969 C 323.511719 126.136719 326.027344 122.914062 328.621094 119.753906 C 331.214844 116.597656 333.882812 113.503906 336.628906 110.476562 C 339.371094 107.445312 342.191406 104.488281 345.078125 101.597656 C 347.96875 98.707031 350.929688 95.890625 353.957031 93.148438 C 356.984375 90.402344 360.082031 87.734375 363.238281 85.144531 C 366.398438 82.550781 369.621094 80.035156 372.902344 77.601562 C 376.1875 75.167969 379.527344 72.816406 382.925781 70.546875 C 386.324219 68.277344 389.777344 66.089844 393.28125 63.988281 C 396.785156 61.890625 400.34375 59.875 403.945312 57.949219 C 407.550781 56.023438 411.199219 54.1875 414.894531 52.441406 C 418.589844 50.691406 422.324219 49.039062 426.101562 47.472656 C 429.878906 45.910156 433.691406 44.441406 437.539062 43.066406 C 441.386719 41.6875 445.265625 40.40625 449.175781 39.222656 C 453.085938 38.035156 457.027344 36.945312 460.992188 35.953125 C 464.953125 34.960938 468.941406 34.066406 472.949219 33.269531 C 476.957031 32.472656 480.984375 31.773438 485.027344 31.175781 C 489.070312 30.578125 493.125 30.078125 497.191406 29.675781 C 501.257812 29.277344 505.332031 28.976562 509.414062 28.777344 C 513.496094 28.578125 517.582031 28.476562 521.667969 28.476562 C 525.757812 28.464844 529.847656 28.550781 533.933594 28.734375 C 538.019531 28.921875 542.097656 29.210938 546.167969 29.597656 C 550.242188 29.984375 554.300781 30.472656 558.347656 31.0625 C 562.394531 31.652344 566.425781 32.339844 570.441406 33.125 C 574.453125 33.914062 578.445312 34.796875 582.417969 35.78125 C 586.386719 36.765625 590.328125 37.847656 594.246094 39.027344 C 598.164062 40.203125 602.046875 41.476562 605.902344 42.847656 C 609.757812 44.21875 613.574219 45.683594 617.355469 47.242188 C 621.136719 48.800781 624.878906 50.449219 628.578125 52.191406 C 632.277344 53.9375 635.933594 55.769531 639.542969 57.691406 C 643.152344 59.617188 646.714844 61.625 650.222656 63.726562 C 653.734375 65.824219 657.191406 68.007812 660.59375 70.277344 C 663.996094 72.546875 667.34375 74.898438 670.628906 77.332031 C 673.914062 79.765625 677.140625 82.28125 680.304688 84.875 C 683.464844 87.46875 686.5625 90.136719 689.59375 92.882812 C 692.625 95.628906 695.585938 98.449219 698.480469 101.339844 C 701.371094 104.234375 704.191406 107.195312 706.9375 110.226562 C 709.683594 113.257812 712.351562 116.355469 714.945312 119.515625 C 717.539062 122.679688 720.054688 125.90625 722.488281 129.191406 C 724.921875 132.480469 727.273438 135.824219 729.542969 139.226562 C 731.8125 142.628906 733.996094 146.085938 736.09375 149.597656 C 738.195312 153.105469 740.203125 156.667969 742.128906 160.277344 C 744.050781 163.886719 745.882812 167.542969 747.625 171.242188 C 749.371094 174.941406 751.019531 178.683594 752.578125 182.464844 C 754.136719 186.246094 755.601562 190.066406 756.972656 193.917969 C 758.339844 197.773438 759.617188 201.65625 760.792969 205.574219 C 761.972656 209.492188 763.054688 213.433594 764.039062 217.40625 C 765.023438 221.375 765.90625 225.367188 766.695312 229.378906 C 767.480469 233.394531 768.167969 237.425781 768.757812 241.472656 C 769.34375 245.519531 769.832031 249.578125 770.222656 253.652344 C 770.609375 257.722656 770.898438 261.800781 771.082031 265.886719 C 771.269531 269.972656 771.355469 274.0625 771.339844 278.152344 Z M 771.339844 278.152344 " fill-opacity="1" fill-rule="nonzero"/></g><path fill="#ffffff" d="M 714.273438 437.121094 C 711.324219 440.691406 708.28125 444.179688 705.136719 447.582031 C 701.996094 450.984375 698.761719 454.296875 695.4375 457.519531 C 692.109375 460.742188 688.695312 463.871094 685.195312 466.902344 C 681.695312 469.933594 678.113281 472.867188 674.449219 475.703125 C 670.789062 478.535156 667.046875 481.265625 663.234375 483.890625 C 659.417969 486.515625 655.53125 489.03125 651.578125 491.441406 C 647.621094 493.851562 643.601562 496.148438 639.519531 498.335938 C 635.4375 500.519531 631.296875 502.589844 627.097656 504.546875 C 622.898438 506.5 618.648438 508.339844 614.347656 510.058594 C 610.046875 511.777344 605.703125 513.375 601.3125 514.851562 C 596.925781 516.328125 592.496094 517.683594 588.03125 518.914062 C 583.566406 520.144531 579.070312 521.25 574.546875 522.230469 C 570.019531 523.214844 565.46875 524.066406 560.894531 524.796875 C 556.320312 525.523438 551.730469 526.121094 547.125 526.59375 C 542.515625 527.066406 537.898438 527.410156 533.273438 527.628906 C 528.648438 527.84375 524.019531 527.929688 519.386719 527.886719 C 514.757812 527.84375 510.128906 527.675781 505.507812 527.375 C 500.886719 527.074219 496.277344 526.648438 491.679688 526.09375 C 487.082031 525.535156 482.503906 524.851562 477.941406 524.042969 C 473.382812 523.230469 468.847656 522.296875 464.339844 521.234375 C 459.832031 520.171875 455.359375 518.984375 450.917969 517.671875 C 446.476562 516.359375 442.074219 514.925781 437.710938 513.367188 C 433.351562 511.8125 429.035156 510.136719 424.765625 508.339844 C 420.496094 506.542969 416.28125 504.628906 412.121094 502.597656 C 407.957031 500.566406 403.855469 498.421875 399.8125 496.160156 C 395.769531 493.902344 391.792969 491.53125 387.882812 489.050781 C 383.972656 486.570312 380.132812 483.984375 376.363281 481.289062 C 372.597656 478.59375 368.910156 475.796875 365.296875 472.898438 C 361.6875 470 358.15625 467 354.710938 463.90625 C 351.269531 460.808594 347.914062 457.621094 344.644531 454.339844 C 341.378906 451.054688 338.203125 447.683594 335.125 444.226562 C 332.042969 440.765625 329.0625 437.226562 326.179688 433.601562 C 352.78125 395.671875 394.015625 369.351562 480.722656 368.367188 C 580.785156 367.164062 654.394531 363.511719 684.796875 397.148438 C 695.863281 409.558594 705.6875 422.882812 714.273438 437.121094 Z M 714.273438 437.121094 " fill-opacity="1" fill-rule="nonzero"/><path fill="#14213d" d="M 438.9375 215.1875 C 390.925781 197.820312 398.757812 134.488281 405.570312 133.125 C 412.378906 131.765625 427.011719 143 427.695312 143.339844 C 428.382812 143.679688 424.296875 115.078125 433.492188 101.800781 C 442.6875 88.523438 477.757812 115.417969 504.65625 115.761719 C 531.554688 116.101562 596.59375 117.804688 615.65625 134.828125 C 634.722656 151.855469 624.824219 188.289062 624.824219 188.289062 C 624.824219 188.289062 646.640625 194.074219 642.207031 224.722656 C 637.773438 255.367188 603.390625 281.683594 591.132812 303.765625 C 578.875 325.847656 506.0625 329.9375 494.769531 297.929688 " fill-opacity="1" fill-rule="nonzero"/><path fill="#ffb5a6" d="M 518.019531 405.273438 C 483.113281 405.273438 477.976562 376.136719 477.839844 371.214844 C 477.839844 370.652344 477.769531 369.664062 477.839844 368.328125 C 477.769531 365.585938 477.769531 361.359375 477.769531 356.4375 C 477.910156 343.132812 478.046875 324.769531 477.839844 316.886719 L 544.476562 293.03125 L 556.582031 288.667969 L 570.023438 283.882812 C 570.023438 283.882812 569.953125 286.484375 569.8125 290.78125 C 569.742188 293.242188 569.671875 296.269531 569.601562 299.71875 C 569.609375 300.121094 569.585938 300.523438 569.53125 300.921875 C 569.460938 305.914062 569.390625 311.617188 569.25 317.597656 C 569.039062 336.386719 568.96875 357.5 569.953125 365.097656 C 571.777344 379.871094 552.917969 405.273438 518.019531 405.273438 Z M 518.019531 405.273438 " fill-opacity="1" fill-rule="nonzero"/><path fill="#e86b70" d="M 570.085938 299.859375 C 569.925781 300.226562 569.738281 300.578125 569.523438 300.914062 C 545.878906 349.539062 510.34375 368.820312 477.832031 368.328125 C 477.761719 365.585938 477.761719 361.359375 477.761719 356.4375 C 477.902344 343.132812 478.042969 324.769531 477.832031 316.886719 L 544.472656 293.03125 L 569.597656 299.71875 Z M 570.085938 299.859375 " fill-opacity="1" fill-rule="nonzero"/><path fill="#ffb5a6" d="M 437.617188 171.941406 C 476.433594 218.476562 572.300781 210.078125 572.300781 210.078125 C 572.300781 210.078125 574.117188 264.558594 583.652344 264.105469 C 593.1875 263.652344 594.777344 233.460938 618.15625 238.464844 C 641.539062 243.464844 627.007812 288.628906 608.851562 291.125 C 590.691406 293.617188 586.148438 278.183594 586.148438 278.183594 C 586.148438 278.183594 552.667969 344.582031 499.546875 344.582031 C 446.429688 344.582031 432.832031 293.660156 433.152344 265.921875 C 433.46875 238.183594 437.617188 171.941406 437.617188 171.941406 Z M 437.617188 171.941406 " fill-opacity="1" fill-rule="nonzero"/></svg>