<svg xmlns="http://www.w3.org/2000/svg" xmlns:xlink="http://www.w3.org/1999/xlink" width="1366" zoomAndPan="magnify" viewBox="0 0 1024.5 576" height="768" preserveAspectRatio="xMidYMid meet" version="1.0"><defs><clipPath id="6ac821cedb"><path d="M 287.292969 63.292969 L 737.070312 63.292969 L 737.070312 513.070312 L 287.292969 513.070312 Z M 287.292969 63.292969 " clip-rule="nonzero"/></clipPath><clipPath id="69ae571a5a"><path d="M 350 337 L 674 337 L 674 513.070312 L 350 513.070312 Z M 350 337 " clip-rule="nonzero"/></clipPath></defs><g clip-path="url(#6ac821cedb)"><path fill="#ff9561" d="M 737.105469 288.199219 C 737.105469 291.878906 737.015625 295.558594 736.835938 299.234375 C 736.65625 302.910156 736.382812 306.582031 736.023438 310.242188 C 735.660156 313.90625 735.210938 317.558594 734.671875 321.199219 C 734.132812 324.839844 733.503906 328.464844 732.785156 332.074219 C 732.066406 335.6875 731.261719 339.277344 730.367188 342.847656 C 729.472656 346.417969 728.488281 349.964844 727.421875 353.484375 C 726.351562 357.007812 725.199219 360.5 723.957031 363.96875 C 722.71875 367.433594 721.394531 370.867188 719.984375 374.265625 C 718.578125 377.667969 717.085938 381.03125 715.511719 384.359375 C 713.9375 387.6875 712.285156 390.972656 710.550781 394.21875 C 708.8125 397.464844 707 400.667969 705.109375 403.824219 C 703.214844 406.980469 701.246094 410.089844 699.203125 413.148438 C 697.15625 416.210938 695.039062 419.21875 692.84375 422.175781 C 690.652344 425.132812 688.390625 428.03125 686.054688 430.878906 C 683.71875 433.722656 681.316406 436.507812 678.84375 439.238281 C 676.371094 441.964844 673.835938 444.628906 671.230469 447.230469 C 668.628906 449.835938 665.964844 452.371094 663.238281 454.84375 C 660.507812 457.316406 657.722656 459.71875 654.878906 462.054688 C 652.03125 464.390625 649.132812 466.652344 646.175781 468.84375 C 643.21875 471.039062 640.210938 473.15625 637.148438 475.203125 C 634.089844 477.246094 630.980469 479.214844 627.824219 481.109375 C 624.667969 483 621.464844 484.8125 618.21875 486.550781 C 614.972656 488.285156 611.6875 489.9375 608.359375 491.511719 C 605.03125 493.085938 601.667969 494.578125 598.265625 495.984375 C 594.867188 497.394531 591.433594 498.71875 587.96875 499.957031 C 584.5 501.199219 581.007812 502.351562 577.484375 503.421875 C 573.964844 504.488281 570.417969 505.472656 566.847656 506.367188 C 563.277344 507.261719 559.6875 508.066406 556.074219 508.785156 C 552.464844 509.503906 548.839844 510.132812 545.199219 510.671875 C 541.558594 511.210938 537.90625 511.660156 534.242188 512.023438 C 530.582031 512.382812 526.910156 512.652344 523.234375 512.835938 C 519.558594 513.015625 515.878906 513.105469 512.199219 513.105469 C 508.519531 513.105469 504.839844 513.015625 501.164062 512.835938 C 497.488281 512.652344 493.816406 512.382812 490.152344 512.023438 C 486.492188 511.660156 482.839844 511.210938 479.199219 510.671875 C 475.558594 510.132812 471.929688 509.503906 468.320312 508.785156 C 464.710938 508.066406 461.121094 507.261719 457.550781 506.367188 C 453.980469 505.472656 450.433594 504.488281 446.910156 503.421875 C 443.390625 502.351562 439.894531 501.199219 436.429688 499.957031 C 432.964844 498.71875 429.53125 497.394531 426.128906 495.984375 C 422.730469 494.578125 419.367188 493.085938 416.039062 491.511719 C 412.710938 489.9375 409.425781 488.285156 406.179688 486.550781 C 402.933594 484.8125 399.730469 483 396.574219 481.109375 C 393.414062 479.214844 390.308594 477.246094 387.246094 475.203125 C 384.1875 473.15625 381.179688 471.039062 378.222656 468.84375 C 375.265625 466.652344 372.363281 464.390625 369.519531 462.054688 C 366.671875 459.71875 363.886719 457.316406 361.160156 454.84375 C 358.433594 452.371094 355.769531 449.835938 353.164062 447.230469 C 350.5625 444.628906 348.023438 441.964844 345.554688 439.238281 C 343.082031 436.507812 340.679688 433.722656 338.34375 430.878906 C 336.007812 428.03125 333.742188 425.132812 331.550781 422.175781 C 329.359375 419.21875 327.238281 416.210938 325.195312 413.148438 C 323.148438 410.089844 321.179688 406.980469 319.289062 403.824219 C 317.398438 400.667969 315.582031 397.464844 313.847656 394.21875 C 312.113281 390.972656 310.457031 387.6875 308.882812 384.359375 C 307.3125 381.03125 305.820312 377.667969 304.410156 374.265625 C 303.003906 370.867188 301.679688 367.433594 300.4375 363.96875 C 299.199219 360.5 298.042969 357.007812 296.976562 353.484375 C 295.90625 349.964844 294.925781 346.417969 294.03125 342.847656 C 293.136719 339.277344 292.332031 335.6875 291.613281 332.074219 C 290.894531 328.464844 290.265625 324.839844 289.726562 321.199219 C 289.183594 317.558594 288.734375 313.90625 288.375 310.242188 C 288.011719 306.582031 287.742188 302.910156 287.5625 299.234375 C 287.382812 295.558594 287.292969 291.878906 287.292969 288.199219 C 287.292969 284.519531 287.382812 280.839844 287.5625 277.164062 C 287.742188 273.488281 288.011719 269.816406 288.375 266.152344 C 288.734375 262.492188 289.183594 258.839844 289.726562 255.199219 C 290.265625 251.558594 290.894531 247.929688 291.613281 244.320312 C 292.332031 240.710938 293.136719 237.121094 294.03125 233.550781 C 294.925781 229.980469 295.90625 226.433594 296.976562 222.910156 C 298.042969 219.390625 299.199219 215.894531 300.4375 212.429688 C 301.679688 208.964844 303.003906 205.53125 304.410156 202.128906 C 305.820312 198.730469 307.3125 195.367188 308.882812 192.039062 C 310.457031 188.710938 312.113281 185.425781 313.847656 182.179688 C 315.582031 178.933594 317.398438 175.730469 319.289062 172.574219 C 321.179688 169.414062 323.148438 166.308594 325.195312 163.246094 C 327.238281 160.1875 329.359375 157.175781 331.550781 154.222656 C 333.742188 151.265625 336.007812 148.363281 338.34375 145.519531 C 340.679688 142.671875 343.082031 139.886719 345.554688 137.160156 C 348.023438 134.433594 350.5625 131.769531 353.164062 129.164062 C 355.769531 126.5625 358.433594 124.023438 361.160156 121.554688 C 363.886719 119.082031 366.671875 116.679688 369.519531 114.34375 C 372.363281 112.007812 375.265625 109.742188 378.222656 107.550781 C 381.179688 105.359375 384.1875 103.238281 387.246094 101.195312 C 390.308594 99.148438 393.414062 97.179688 396.574219 95.289062 C 399.730469 93.398438 402.933594 91.582031 406.179688 89.847656 C 409.425781 88.113281 412.710938 86.457031 416.039062 84.882812 C 419.367188 83.3125 422.730469 81.820312 426.128906 80.410156 C 429.53125 79.003906 432.964844 77.679688 436.429688 76.4375 C 439.894531 75.199219 443.390625 74.042969 446.910156 72.976562 C 450.433594 71.90625 453.980469 70.925781 457.550781 70.03125 C 461.121094 69.136719 464.710938 68.332031 468.320312 67.613281 C 471.929688 66.894531 475.558594 66.265625 479.199219 65.726562 C 482.839844 65.183594 486.492188 64.734375 490.152344 64.375 C 493.816406 64.011719 497.488281 63.742188 501.164062 63.5625 C 504.839844 63.382812 508.519531 63.292969 512.199219 63.292969 C 515.878906 63.292969 519.558594 63.382812 523.234375 63.5625 C 526.910156 63.742188 530.582031 64.011719 534.242188 64.375 C 537.90625 64.734375 541.558594 65.183594 545.199219 65.726562 C 548.839844 66.265625 552.464844 66.894531 556.074219 67.613281 C 559.6875 68.332031 563.277344 69.136719 566.847656 70.03125 C 570.417969 70.925781 573.964844 71.90625 577.484375 72.976562 C 581.007812 74.042969 584.5 75.199219 587.96875 76.4375 C 591.433594 77.679688 594.867188 79.003906 598.265625 80.410156 C 601.667969 81.820312 605.03125 83.3125 608.359375 84.882812 C 611.6875 86.457031 614.972656 88.113281 618.21875 89.847656 C 621.464844 91.582031 624.667969 93.398438 627.824219 95.289062 C 630.980469 97.179688 634.089844 99.148438 637.148438 101.195312 C 640.210938 103.238281 643.21875 105.359375 646.175781 107.550781 C 649.132812 109.742188 652.03125 112.007812 654.878906 114.34375 C 657.722656 116.679688 660.507812 119.082031 663.238281 121.554688 C 665.964844 124.023438 668.628906 126.5625 671.230469 129.164062 C 673.835938 131.769531 676.371094 134.433594 678.84375 137.160156 C 681.316406 139.886719 683.71875 142.671875 686.054688 145.519531 C 688.390625 148.363281 690.652344 151.265625 692.84375 154.222656 C 695.039062 157.175781 697.15625 160.1875 699.203125 163.246094 C 701.246094 166.308594 703.214844 169.414062 705.109375 172.574219 C 707 175.730469 708.8125 178.933594 710.550781 182.179688 C 712.285156 185.425781 713.9375 188.710938 715.511719 192.039062 C 717.085938 195.367188 718.578125 198.730469 719.984375 202.128906 C 721.394531 205.53125 722.71875 208.964844 723.957031 212.429688 C 725.199219 215.894531 726.351562 219.390625 727.421875 222.910156 C 728.488281 226.433594 729.472656 229.980469 730.367188 233.550781 C 731.261719 237.121094 732.066406 240.710938 732.785156 244.320312 C 733.503906 247.929688 734.132812 251.558594 734.671875 255.199219 C 735.210938 258.839844 735.660156 262.492188 736.023438 266.152344 C 736.382812 269.816406 736.65625 273.488281 736.835938 277.164062 C 737.015625 280.839844 737.105469 284.519531 737.105469 288.199219 Z M 737.105469 288.199219 " fill-opacity="1" fill-rule="nonzero"/></g><path fill="#002c5c" d="M 569.734375 162.167969 C 558.324219 118.363281 428.179688 101.019531 410.859375 205.394531 C 393.535156 309.769531 332.265625 396.820312 470.4375 417.949219 C 608.609375 439.074219 638.1875 387.949219 629.738281 320.761719 C 621.285156 253.578125 605.652344 158.222656 569.734375 162.167969 Z M 569.734375 162.167969 " fill-opacity="1" fill-rule="nonzero"/><g clip-path="url(#69ae571a5a)"><path fill="#00669b" d="M 673.667969 444.894531 C 671.050781 447.589844 668.375 450.214844 665.628906 452.773438 C 662.882812 455.332031 660.074219 457.820312 657.207031 460.238281 C 654.335938 462.65625 651.40625 465 648.421875 467.269531 C 645.433594 469.542969 642.390625 471.738281 639.296875 473.859375 C 636.199219 475.976562 633.050781 478.015625 629.851562 479.980469 C 626.652344 481.941406 623.40625 483.820312 620.113281 485.621094 C 616.824219 487.421875 613.488281 489.136719 610.109375 490.769531 C 606.730469 492.402344 603.3125 493.949219 599.855469 495.410156 C 596.398438 496.871094 592.910156 498.246094 589.382812 499.535156 C 585.859375 500.820312 582.304688 502.019531 578.71875 503.128906 C 575.136719 504.238281 571.523438 505.257812 567.890625 506.183594 C 564.253906 507.113281 560.597656 507.949219 556.917969 508.695312 C 553.242188 509.441406 549.546875 510.09375 545.835938 510.65625 C 542.125 511.21875 538.40625 511.683594 534.671875 512.058594 C 530.9375 512.433594 527.195312 512.714844 523.449219 512.902344 C 519.699219 513.089844 515.949219 513.183594 512.199219 513.183594 C 508.445312 513.183594 504.695312 513.089844 500.949219 512.902344 C 497.199219 512.714844 493.460938 512.433594 489.726562 512.058594 C 485.992188 511.683594 482.269531 511.21875 478.558594 510.65625 C 474.847656 510.09375 471.15625 509.441406 467.476562 508.695312 C 463.800781 507.949219 460.144531 507.113281 456.507812 506.183594 C 452.871094 505.257812 449.261719 504.238281 445.675781 503.128906 C 442.09375 502.019531 438.539062 500.820312 435.011719 499.535156 C 431.488281 498.246094 427.996094 496.871094 424.542969 495.410156 C 421.085938 493.949219 417.667969 492.402344 414.289062 490.769531 C 410.910156 489.136719 407.574219 487.421875 404.28125 485.621094 C 400.988281 483.820312 397.742188 481.941406 394.542969 479.980469 C 391.34375 478.015625 388.199219 475.976562 385.101562 473.859375 C 382.003906 471.738281 378.960938 469.542969 375.976562 467.269531 C 372.988281 465 370.0625 462.65625 367.191406 460.238281 C 364.320312 457.820312 361.515625 455.332031 358.769531 452.773438 C 356.023438 450.214844 353.34375 447.589844 350.730469 444.894531 C 352.394531 440.957031 354.203125 437.082031 356.152344 433.273438 C 358.101562 429.464844 360.1875 425.730469 362.410156 422.074219 C 364.632812 418.417969 366.984375 414.851562 369.46875 411.367188 C 371.953125 407.882812 374.558594 404.496094 377.289062 401.203125 C 380.023438 397.910156 382.871094 394.722656 385.835938 391.636719 C 388.800781 388.554688 391.875 385.582031 395.058594 382.722656 C 398.242188 379.863281 401.523438 377.125 404.90625 374.507812 C 408.289062 371.886719 411.765625 369.394531 415.332031 367.03125 C 418.894531 364.667969 422.542969 362.4375 426.273438 360.339844 C 430 358.242188 433.800781 356.285156 437.675781 354.464844 C 441.546875 352.648438 445.480469 350.972656 449.476562 349.441406 C 453.46875 347.910156 457.515625 346.527344 461.613281 345.292969 C 465.707031 344.058594 469.84375 342.976562 474.019531 342.042969 C 478.195312 341.113281 482.398438 340.332031 486.632812 339.710938 C 490.863281 339.085938 495.113281 338.617188 499.382812 338.304688 C 503.648438 337.992188 507.921875 337.835938 512.199219 337.835938 C 516.476562 337.835938 520.75 337.992188 525.015625 338.304688 C 529.28125 338.617188 533.53125 339.085938 537.765625 339.710938 C 541.996094 340.332031 546.203125 341.113281 550.378906 342.042969 C 554.554688 342.976562 558.6875 344.058594 562.785156 345.292969 C 566.882812 346.527344 570.925781 347.910156 574.921875 349.441406 C 578.917969 350.972656 582.851562 352.648438 586.722656 354.464844 C 590.59375 356.285156 594.394531 358.242188 598.125 360.339844 C 601.855469 362.4375 605.5 364.667969 609.066406 367.03125 C 612.632812 369.394531 616.105469 371.886719 619.492188 374.507812 C 622.875 377.125 626.15625 379.863281 629.339844 382.722656 C 632.523438 385.582031 635.597656 388.554688 638.5625 391.636719 C 641.527344 394.722656 644.375 397.910156 647.105469 401.203125 C 649.839844 404.496094 652.445312 407.882812 654.929688 411.367188 C 657.414062 414.851562 659.765625 418.417969 661.988281 422.074219 C 664.210938 425.730469 666.296875 429.464844 668.246094 433.273438 C 670.195312 437.082031 672 440.957031 673.667969 444.894531 Z M 673.667969 444.894531 " fill-opacity="1" fill-rule="nonzero"/></g><path fill="#ff9561" d="M 512.109375 288.199219 C 513.148438 288.199219 514.183594 288.25 515.214844 288.351562 C 516.246094 288.453125 517.269531 288.605469 518.289062 288.808594 C 519.304688 289.007812 520.3125 289.261719 521.304688 289.5625 C 522.296875 289.863281 523.269531 290.210938 524.230469 290.609375 C 525.1875 291.007812 526.125 291.449219 527.039062 291.9375 C 527.953125 292.425781 528.84375 292.960938 529.703125 293.535156 C 530.566406 294.113281 531.398438 294.730469 532.199219 295.386719 C 533.003906 296.042969 533.769531 296.742188 534.503906 297.472656 C 535.238281 298.207031 535.933594 298.976562 536.589844 299.777344 C 537.25 300.578125 537.867188 301.410156 538.441406 302.273438 C 539.019531 303.136719 539.550781 304.023438 540.039062 304.9375 C 540.527344 305.851562 540.972656 306.789062 541.367188 307.746094 C 541.765625 308.707031 542.113281 309.679688 542.414062 310.675781 C 542.714844 311.667969 542.96875 312.671875 543.171875 313.6875 C 543.371094 314.707031 543.523438 315.730469 543.625 316.761719 C 543.726562 317.796875 543.777344 318.828125 543.777344 319.867188 L 543.777344 347.800781 C 543.777344 348.835938 543.726562 349.871094 543.625 350.902344 C 543.523438 351.933594 543.371094 352.960938 543.171875 353.976562 C 542.96875 354.996094 542.714844 356 542.414062 356.992188 C 542.113281 357.984375 541.765625 358.960938 541.367188 359.917969 C 540.972656 360.875 540.527344 361.8125 540.039062 362.726562 C 539.550781 363.640625 539.019531 364.53125 538.441406 365.394531 C 537.867188 366.253906 537.25 367.085938 536.589844 367.890625 C 535.933594 368.691406 535.238281 369.457031 534.503906 370.191406 C 533.769531 370.925781 533.003906 371.621094 532.199219 372.277344 C 531.398438 372.9375 530.566406 373.554688 529.703125 374.128906 C 528.84375 374.707031 527.953125 375.238281 527.039062 375.726562 C 526.125 376.21875 525.1875 376.660156 524.230469 377.058594 C 523.269531 377.453125 522.296875 377.804688 521.304688 378.105469 C 520.3125 378.40625 519.304688 378.65625 518.289062 378.859375 C 517.269531 379.0625 516.246094 379.214844 515.214844 379.316406 C 514.183594 379.417969 513.148438 379.46875 512.109375 379.46875 C 511.074219 379.46875 510.039062 379.417969 509.007812 379.316406 C 507.972656 379.214844 506.949219 379.0625 505.933594 378.859375 C 504.914062 378.65625 503.910156 378.40625 502.917969 378.105469 C 501.925781 377.804688 500.949219 377.453125 499.992188 377.058594 C 499.03125 376.660156 498.097656 376.21875 497.183594 375.726562 C 496.265625 375.238281 495.378906 374.707031 494.515625 374.128906 C 493.652344 373.554688 492.820312 372.9375 492.019531 372.277344 C 491.21875 371.621094 490.449219 370.925781 489.71875 370.191406 C 488.984375 369.457031 488.289062 368.691406 487.628906 367.890625 C 486.972656 367.085938 486.355469 366.253906 485.777344 365.394531 C 485.203125 364.53125 484.671875 363.640625 484.179688 362.726562 C 483.691406 361.8125 483.25 360.875 482.851562 359.917969 C 482.457031 358.960938 482.105469 357.984375 481.804688 356.992188 C 481.503906 356 481.253906 354.996094 481.050781 353.976562 C 480.847656 352.960938 480.695312 351.933594 480.59375 350.902344 C 480.492188 349.871094 480.441406 348.835938 480.441406 347.800781 L 480.441406 319.867188 C 480.441406 318.828125 480.492188 317.796875 480.59375 316.761719 C 480.695312 315.730469 480.847656 314.707031 481.050781 313.6875 C 481.253906 312.671875 481.503906 311.667969 481.804688 310.675781 C 482.105469 309.679688 482.457031 308.707031 482.851562 307.746094 C 483.25 306.789062 483.691406 305.851562 484.179688 304.9375 C 484.671875 304.023438 485.203125 303.136719 485.777344 302.273438 C 486.355469 301.410156 486.972656 300.578125 487.628906 299.777344 C 488.289062 298.976562 488.984375 298.207031 489.71875 297.472656 C 490.449219 296.742188 491.21875 296.042969 492.019531 295.386719 C 492.820312 294.730469 493.652344 294.113281 494.515625 293.535156 C 495.378906 292.960938 496.265625 292.425781 497.183594 291.9375 C 498.097656 291.449219 499.03125 291.007812 499.992188 290.609375 C 500.949219 290.210938 501.925781 289.863281 502.917969 289.5625 C 503.910156 289.261719 504.914062 289.007812 505.933594 288.808594 C 506.949219 288.605469 507.972656 288.453125 509.007812 288.351562 C 510.039062 288.25 511.074219 288.199219 512.109375 288.199219 Z M 512.109375 288.199219 " fill-opacity="1" fill-rule="nonzero"/><path fill="#ff9561" d="M 454.386719 268.257812 C 454.386719 268.914062 454.355469 269.566406 454.292969 270.21875 C 454.226562 270.867188 454.132812 271.515625 454.003906 272.15625 C 453.878906 272.796875 453.71875 273.429688 453.527344 274.058594 C 453.339844 274.683594 453.117188 275.296875 452.867188 275.902344 C 452.617188 276.507812 452.339844 277.097656 452.03125 277.671875 C 451.722656 278.25 451.386719 278.8125 451.023438 279.355469 C 450.660156 279.898438 450.269531 280.421875 449.855469 280.929688 C 449.441406 281.433594 449 281.917969 448.539062 282.382812 C 448.078125 282.84375 447.59375 283.28125 447.085938 283.695312 C 446.582031 284.113281 446.058594 284.5 445.511719 284.863281 C 444.96875 285.226562 444.410156 285.5625 443.832031 285.871094 C 443.253906 286.179688 442.664062 286.460938 442.058594 286.710938 C 441.457031 286.960938 440.839844 287.179688 440.214844 287.371094 C 439.589844 287.558594 438.957031 287.71875 438.3125 287.847656 C 437.671875 287.972656 437.027344 288.070312 436.375 288.132812 C 435.722656 288.199219 435.070312 288.230469 434.417969 288.230469 C 433.765625 288.230469 433.109375 288.199219 432.460938 288.132812 C 431.808594 288.070312 431.164062 287.972656 430.523438 287.847656 C 429.878906 287.71875 429.246094 287.558594 428.621094 287.371094 C 427.996094 287.179688 427.378906 286.960938 426.777344 286.710938 C 426.171875 286.460938 425.582031 286.179688 425.003906 285.871094 C 424.425781 285.5625 423.867188 285.226562 423.324219 284.863281 C 422.777344 284.5 422.253906 284.113281 421.75 283.695312 C 421.242188 283.28125 420.757812 282.84375 420.296875 282.382812 C 419.835938 281.917969 419.394531 281.433594 418.980469 280.929688 C 418.566406 280.421875 418.175781 279.898438 417.8125 279.355469 C 417.449219 278.8125 417.113281 278.25 416.804688 277.671875 C 416.496094 277.097656 416.21875 276.507812 415.96875 275.902344 C 415.71875 275.296875 415.496094 274.683594 415.308594 274.058594 C 415.117188 273.429688 414.957031 272.796875 414.832031 272.15625 C 414.703125 271.515625 414.609375 270.867188 414.542969 270.21875 C 414.480469 269.566406 414.445312 268.914062 414.445312 268.257812 C 414.445312 267.605469 414.480469 266.953125 414.542969 266.300781 C 414.609375 265.652344 414.703125 265.003906 414.832031 264.363281 C 414.957031 263.722656 415.117188 263.089844 415.308594 262.460938 C 415.496094 261.835938 415.71875 261.222656 415.96875 260.617188 C 416.21875 260.011719 416.496094 259.421875 416.804688 258.84375 C 417.113281 258.269531 417.449219 257.707031 417.8125 257.164062 C 418.175781 256.621094 418.566406 256.097656 418.980469 255.589844 C 419.394531 255.085938 419.835938 254.601562 420.296875 254.136719 C 420.757812 253.675781 421.242188 253.238281 421.75 252.820312 C 422.253906 252.40625 422.777344 252.019531 423.324219 251.65625 C 423.867188 251.292969 424.425781 250.957031 425.003906 250.648438 C 425.582031 250.339844 426.171875 250.058594 426.777344 249.808594 C 427.378906 249.558594 427.996094 249.339844 428.621094 249.148438 C 429.246094 248.960938 429.878906 248.800781 430.523438 248.671875 C 431.164062 248.546875 431.808594 248.449219 432.460938 248.386719 C 433.109375 248.320312 433.765625 248.289062 434.417969 248.289062 C 435.070312 248.289062 435.722656 248.320312 436.375 248.386719 C 437.027344 248.449219 437.671875 248.546875 438.3125 248.671875 C 438.957031 248.800781 439.589844 248.960938 440.214844 249.148438 C 440.839844 249.339844 441.457031 249.558594 442.058594 249.808594 C 442.664062 250.058594 443.253906 250.339844 443.832031 250.648438 C 444.410156 250.957031 444.96875 251.292969 445.511719 251.65625 C 446.058594 252.019531 446.582031 252.40625 447.085938 252.820312 C 447.59375 253.238281 448.078125 253.675781 448.539062 254.136719 C 449 254.601562 449.441406 255.085938 449.855469 255.589844 C 450.269531 256.097656 450.660156 256.621094 451.023438 257.164062 C 451.386719 257.707031 451.722656 258.269531 452.03125 258.84375 C 452.339844 259.421875 452.617188 260.011719 452.867188 260.617188 C 453.117188 261.222656 453.339844 261.835938 453.527344 262.460938 C 453.71875 263.089844 453.878906 263.722656 454.003906 264.363281 C 454.132812 265.003906 454.226562 265.652344 454.292969 266.300781 C 454.355469 266.953125 454.386719 267.605469 454.386719 268.257812 Z M 454.386719 268.257812 " fill-opacity="1" fill-rule="nonzero"/><path fill="#ff9561" d="M 607.914062 268.257812 C 607.914062 268.914062 607.882812 269.566406 607.816406 270.21875 C 607.753906 270.867188 607.65625 271.515625 607.53125 272.15625 C 607.402344 272.796875 607.242188 273.429688 607.054688 274.058594 C 606.863281 274.683594 606.644531 275.296875 606.394531 275.902344 C 606.144531 276.507812 605.863281 277.097656 605.554688 277.671875 C 605.246094 278.25 604.910156 278.8125 604.546875 279.355469 C 604.183594 279.898438 603.796875 280.421875 603.382812 280.929688 C 602.964844 281.433594 602.527344 281.917969 602.066406 282.382812 C 601.601562 282.84375 601.117188 283.28125 600.613281 283.695312 C 600.105469 284.113281 599.582031 284.5 599.039062 284.863281 C 598.496094 285.226562 597.933594 285.5625 597.359375 285.871094 C 596.78125 286.179688 596.191406 286.460938 595.585938 286.710938 C 594.980469 286.960938 594.367188 287.179688 593.742188 287.371094 C 593.113281 287.558594 592.480469 287.71875 591.839844 287.847656 C 591.199219 287.972656 590.550781 288.070312 589.902344 288.132812 C 589.25 288.199219 588.597656 288.230469 587.945312 288.230469 C 587.289062 288.230469 586.636719 288.199219 585.984375 288.132812 C 585.335938 288.070312 584.6875 287.972656 584.046875 287.847656 C 583.40625 287.71875 582.773438 287.558594 582.144531 287.371094 C 581.519531 287.179688 580.90625 286.960938 580.300781 286.710938 C 579.695312 286.460938 579.105469 286.179688 578.527344 285.871094 C 577.953125 285.5625 577.390625 285.226562 576.847656 284.863281 C 576.304688 284.5 575.78125 284.113281 575.273438 283.695312 C 574.769531 283.28125 574.285156 282.84375 573.820312 282.382812 C 573.359375 281.917969 572.921875 281.433594 572.503906 280.929688 C 572.089844 280.421875 571.703125 279.898438 571.339844 279.355469 C 570.976562 278.8125 570.640625 278.25 570.332031 277.671875 C 570.023438 277.097656 569.742188 276.507812 569.492188 275.902344 C 569.242188 275.296875 569.023438 274.683594 568.832031 274.058594 C 568.644531 273.429688 568.484375 272.796875 568.355469 272.15625 C 568.230469 271.515625 568.132812 270.867188 568.070312 270.21875 C 568.003906 269.566406 567.972656 268.914062 567.972656 268.257812 C 567.972656 267.605469 568.003906 266.953125 568.070312 266.300781 C 568.132812 265.652344 568.230469 265.003906 568.355469 264.363281 C 568.484375 263.722656 568.644531 263.089844 568.832031 262.460938 C 569.023438 261.835938 569.242188 261.222656 569.492188 260.617188 C 569.742188 260.011719 570.023438 259.421875 570.332031 258.84375 C 570.640625 258.269531 570.976562 257.707031 571.339844 257.164062 C 571.703125 256.621094 572.089844 256.097656 572.507812 255.589844 C 572.921875 255.085938 573.359375 254.601562 573.820312 254.136719 C 574.285156 253.675781 574.769531 253.238281 575.273438 252.820312 C 575.78125 252.40625 576.304688 252.019531 576.847656 251.65625 C 577.390625 251.292969 577.953125 250.957031 578.527344 250.648438 C 579.105469 250.339844 579.695312 250.058594 580.300781 249.808594 C 580.90625 249.558594 581.519531 249.339844 582.144531 249.148438 C 582.773438 248.960938 583.40625 248.800781 584.046875 248.671875 C 584.6875 248.546875 585.335938 248.449219 585.984375 248.386719 C 586.636719 248.320312 587.289062 248.289062 587.945312 248.289062 C 588.597656 248.289062 589.25 248.320312 589.902344 248.386719 C 590.550781 248.449219 591.199219 248.546875 591.839844 248.671875 C 592.480469 248.800781 593.113281 248.960938 593.742188 249.148438 C 594.367188 249.339844 594.980469 249.558594 595.585938 249.808594 C 596.191406 250.058594 596.78125 250.339844 597.359375 250.648438 C 597.933594 250.957031 598.496094 251.292969 599.039062 251.65625 C 599.582031 252.019531 600.105469 252.40625 600.613281 252.820312 C 601.117188 253.238281 601.601562 253.675781 602.066406 254.136719 C 602.527344 254.601562 602.964844 255.085938 603.382812 255.589844 C 603.796875 256.097656 604.183594 256.621094 604.546875 257.164062 C 604.910156 257.707031 605.246094 258.269531 605.554688 258.84375 C 605.863281 259.421875 606.144531 260.011719 606.394531 260.617188 C 606.644531 261.222656 606.863281 261.835938 607.054688 262.460938 C 607.242188 263.089844 607.402344 263.722656 607.53125 264.363281 C 607.65625 265.003906 607.753906 265.652344 607.816406 266.300781 C 607.882812 266.953125 607.914062 267.605469 607.914062 268.257812 Z M 607.914062 268.257812 " fill-opacity="1" fill-rule="nonzero"/><path fill="#ffc9ac" d="M 512.199219 162.167969 C 513.46875 162.167969 514.742188 162.199219 516.015625 162.261719 C 517.285156 162.324219 518.554688 162.417969 519.820312 162.542969 C 521.085938 162.667969 522.351562 162.820312 523.609375 163.007812 C 524.867188 163.195312 526.121094 163.414062 527.371094 163.660156 C 528.621094 163.910156 529.863281 164.1875 531.097656 164.496094 C 532.332031 164.808594 533.558594 165.148438 534.777344 165.515625 C 535.992188 165.886719 537.203125 166.285156 538.398438 166.714844 C 539.597656 167.140625 540.785156 167.601562 541.960938 168.085938 C 543.136719 168.574219 544.300781 169.089844 545.453125 169.632812 C 546.601562 170.179688 547.738281 170.75 548.863281 171.351562 C 549.984375 171.949219 551.09375 172.578125 552.183594 173.234375 C 553.277344 173.886719 554.351562 174.566406 555.410156 175.273438 C 556.46875 175.984375 557.507812 176.714844 558.53125 177.472656 C 559.554688 178.230469 560.554688 179.015625 561.539062 179.820312 C 562.523438 180.628906 563.488281 181.460938 564.429688 182.316406 C 565.375 183.171875 566.296875 184.046875 567.195312 184.949219 C 568.097656 185.847656 568.972656 186.769531 569.828125 187.714844 C 570.683594 188.65625 571.515625 189.621094 572.320312 190.605469 C 573.128906 191.589844 573.910156 192.589844 574.671875 193.613281 C 575.429688 194.636719 576.160156 195.675781 576.867188 196.734375 C 577.574219 197.792969 578.257812 198.867188 578.910156 199.960938 C 579.566406 201.050781 580.191406 202.160156 580.792969 203.28125 C 581.394531 204.40625 581.964844 205.542969 582.507812 206.691406 C 583.054688 207.84375 583.570312 209.007812 584.054688 210.183594 C 584.542969 211.359375 585 212.546875 585.429688 213.742188 C 585.859375 214.941406 586.257812 216.152344 586.628906 217.367188 C 586.996094 218.585938 587.335938 219.8125 587.644531 221.046875 C 587.953125 222.28125 588.234375 223.523438 588.480469 224.773438 C 588.730469 226.023438 588.949219 227.277344 589.136719 228.535156 C 589.320312 229.792969 589.476562 231.058594 589.601562 232.324219 C 589.726562 233.589844 589.820312 234.859375 589.882812 236.132812 C 589.945312 237.402344 589.976562 238.675781 589.976562 239.949219 L 589.976562 260.054688 C 589.976562 261.324219 589.945312 262.597656 589.882812 263.871094 C 589.820312 265.140625 589.726562 266.410156 589.601562 267.675781 C 589.476562 268.945312 589.320312 270.207031 589.136719 271.464844 C 588.949219 272.726562 588.730469 273.980469 588.480469 275.226562 C 588.234375 276.476562 587.953125 277.71875 587.644531 278.953125 C 587.335938 280.1875 586.996094 281.414062 586.628906 282.632812 C 586.257812 283.847656 585.859375 285.058594 585.429688 286.257812 C 585 287.453125 584.542969 288.640625 584.054688 289.816406 C 583.570312 290.996094 583.054688 292.15625 582.507812 293.308594 C 581.964844 294.460938 581.394531 295.597656 580.792969 296.71875 C 580.191406 297.839844 579.566406 298.949219 578.910156 300.039062 C 578.257812 301.132812 577.574219 302.207031 576.867188 303.265625 C 576.160156 304.324219 575.429688 305.363281 574.671875 306.386719 C 573.910156 307.410156 573.128906 308.414062 572.320312 309.394531 C 571.515625 310.378906 570.683594 311.34375 569.828125 312.289062 C 568.972656 313.230469 568.097656 314.152344 567.195312 315.050781 C 566.296875 315.953125 565.375 316.828125 564.429688 317.683594 C 563.488281 318.539062 562.523438 319.371094 561.539062 320.179688 C 560.554688 320.984375 559.554688 321.769531 558.53125 322.527344 C 557.507812 323.285156 556.46875 324.019531 555.410156 324.726562 C 554.351562 325.433594 553.277344 326.113281 552.183594 326.765625 C 551.09375 327.421875 549.984375 328.050781 548.863281 328.648438 C 547.738281 329.25 546.601562 329.820312 545.453125 330.367188 C 544.300781 330.910156 543.136719 331.425781 541.960938 331.914062 C 540.785156 332.398438 539.597656 332.859375 538.398438 333.285156 C 537.203125 333.714844 535.992188 334.113281 534.777344 334.484375 C 533.558594 334.855469 532.332031 335.191406 531.097656 335.503906 C 529.863281 335.8125 528.621094 336.089844 527.371094 336.339844 C 526.121094 336.585938 524.867188 336.804688 523.609375 336.992188 C 522.351562 337.179688 521.085938 337.335938 519.820312 337.457031 C 518.554688 337.582031 517.285156 337.675781 516.015625 337.738281 C 514.742188 337.800781 513.46875 337.832031 512.199219 337.832031 C 510.925781 337.832031 509.652344 337.800781 508.378906 337.738281 C 507.109375 337.675781 505.839844 337.582031 504.574219 337.457031 C 503.308594 337.335938 502.042969 337.179688 500.785156 336.992188 C 499.527344 336.804688 498.273438 336.585938 497.023438 336.339844 C 495.773438 336.089844 494.53125 335.8125 493.296875 335.503906 C 492.0625 335.191406 490.835938 334.855469 489.617188 334.484375 C 488.402344 334.113281 487.191406 333.714844 485.996094 333.285156 C 484.796875 332.859375 483.609375 332.398438 482.433594 331.914062 C 481.257812 331.425781 480.09375 330.910156 478.941406 330.367188 C 477.792969 329.820312 476.65625 329.25 475.53125 328.648438 C 474.410156 328.050781 473.300781 327.421875 472.210938 326.765625 C 471.117188 326.113281 470.042969 325.433594 468.984375 324.726562 C 467.925781 324.019531 466.886719 323.285156 465.863281 322.527344 C 464.839844 321.769531 463.839844 320.984375 462.855469 320.179688 C 461.871094 319.371094 460.90625 318.539062 459.964844 317.683594 C 459.019531 316.828125 458.097656 315.953125 457.199219 315.050781 C 456.300781 314.152344 455.421875 313.230469 454.566406 312.289062 C 453.710938 311.34375 452.878906 310.378906 452.074219 309.394531 C 451.265625 308.414062 450.484375 307.410156 449.722656 306.386719 C 448.964844 305.363281 448.234375 304.324219 447.527344 303.265625 C 446.820312 302.207031 446.136719 301.132812 445.484375 300.039062 C 444.828125 298.949219 444.203125 297.839844 443.601562 296.71875 C 443 295.597656 442.429688 294.460938 441.886719 293.308594 C 441.339844 292.15625 440.824219 290.996094 440.339844 289.816406 C 439.851562 288.640625 439.394531 287.453125 438.964844 286.257812 C 438.535156 285.058594 438.136719 283.847656 437.765625 282.632812 C 437.398438 281.414062 437.058594 280.1875 436.75 278.953125 C 436.441406 277.71875 436.160156 276.476562 435.914062 275.226562 C 435.664062 273.980469 435.445312 272.726562 435.257812 271.464844 C 435.074219 270.207031 434.917969 268.945312 434.792969 267.675781 C 434.667969 266.410156 434.574219 265.140625 434.511719 263.871094 C 434.449219 262.597656 434.417969 261.324219 434.417969 260.054688 L 434.417969 239.949219 C 434.417969 238.675781 434.449219 237.402344 434.511719 236.132812 C 434.574219 234.859375 434.667969 233.589844 434.792969 232.324219 C 434.917969 231.058594 435.074219 229.792969 435.257812 228.535156 C 435.445312 227.277344 435.664062 226.023438 435.914062 224.773438 C 436.160156 223.523438 436.441406 222.28125 436.75 221.046875 C 437.058594 219.8125 437.398438 218.585938 437.765625 217.367188 C 438.136719 216.152344 438.535156 214.941406 438.964844 213.742188 C 439.394531 212.546875 439.851562 211.359375 440.339844 210.183594 C 440.824219 209.007812 441.339844 207.84375 441.886719 206.691406 C 442.429688 205.542969 443 204.40625 443.601562 203.28125 C 444.203125 202.160156 444.828125 201.050781 445.484375 199.960938 C 446.136719 198.867188 446.820312 197.792969 447.527344 196.734375 C 448.234375 195.675781 448.964844 194.636719 449.722656 193.613281 C 450.484375 192.589844 451.265625 191.589844 452.074219 190.605469 C 452.878906 189.621094 453.710938 188.65625 454.566406 187.714844 C 455.421875 186.769531 456.300781 185.847656 457.199219 184.949219 C 458.097656 184.046875 459.019531 183.171875 459.964844 182.316406 C 460.90625 181.460938 461.871094 180.628906 462.855469 179.820312 C 463.839844 179.015625 464.839844 178.230469 465.863281 177.472656 C 466.886719 176.714844 467.925781 175.984375 468.984375 175.273438 C 470.042969 174.566406 471.117188 173.886719 472.210938 173.234375 C 473.300781 172.578125 474.410156 171.949219 475.53125 171.351562 C 476.65625 170.75 477.792969 170.179688 478.941406 169.632812 C 480.09375 169.089844 481.257812 168.574219 482.433594 168.085938 C 483.609375 167.601562 484.796875 167.140625 485.996094 166.714844 C 487.191406 166.285156 488.402344 165.886719 489.617188 165.515625 C 490.835938 165.148438 492.0625 164.808594 493.296875 164.496094 C 494.53125 164.1875 495.773438 163.910156 497.023438 163.660156 C 498.273438 163.414062 499.527344 163.195312 500.785156 163.007812 C 502.042969 162.820312 503.308594 162.667969 504.574219 162.542969 C 505.839844 162.417969 507.109375 162.324219 508.378906 162.261719 C 509.652344 162.199219 510.925781 162.167969 512.199219 162.167969 Z M 512.199219 162.167969 " fill-opacity="1" fill-rule="nonzero"/><path fill="#002c5c" d="M 434.417969 248.289062 C 538.882812 249.351562 567.972656 190.191406 567.972656 190.191406 C 567.972656 190.191406 572.910156 237.53125 589.976562 249.996094 C 598.902344 200.335938 572.691406 155.125 504.664062 151.742188 C 436.636719 148.363281 418.261719 226.097656 434.417969 248.289062 Z M 434.417969 248.289062 " fill-opacity="1" fill-rule="nonzero"/></svg>