<svg xmlns="http://www.w3.org/2000/svg" xmlns:xlink="http://www.w3.org/1999/xlink" width="1366" zoomAndPan="magnify" viewBox="0 0 1024.5 576" height="768" preserveAspectRatio="xMidYMid meet" version="1.0"><defs><clipPath id="845cb8eb28"><path d="M 310 75 L 733.941406 75 L 733.941406 499 L 310 499 Z M 310 75 " clip-rule="nonzero"/></clipPath></defs><g clip-path="url(#845cb8eb28)"><path fill="#3b9ec6" d="M 733.992188 287.003906 C 734 294.289062 733.632812 301.558594 732.886719 308.804688 C 732.144531 316.054688 731.027344 323.246094 729.539062 330.378906 C 728.046875 337.511719 726.195312 344.546875 723.976562 351.488281 C 721.757812 358.429688 719.183594 365.238281 716.261719 371.914062 C 713.335938 378.589844 710.074219 385.097656 706.476562 391.433594 C 702.878906 397.773438 698.960938 403.90625 694.726562 409.839844 C 690.492188 415.773438 685.964844 421.472656 681.140625 426.9375 C 676.3125 432.402344 671.21875 437.601562 665.855469 442.539062 C 663.089844 445.09375 660.273438 447.59375 657.351562 449.992188 C 654.90625 452.019531 652.417969 453.992188 649.882812 455.90625 C 647.347656 457.820312 644.773438 459.675781 642.15625 461.476562 C 639.539062 463.277344 636.882812 465.015625 634.1875 466.695312 C 631.492188 468.375 628.757812 469.992188 625.992188 471.550781 C 623.222656 473.105469 620.421875 474.601562 617.585938 476.03125 C 614.75 477.464844 611.882812 478.828125 608.984375 480.132812 C 606.089844 481.433594 603.164062 482.671875 600.210938 483.84375 C 597.257812 485.011719 594.28125 486.117188 591.277344 487.15625 C 588.273438 488.191406 585.25 489.160156 582.203125 490.0625 C 579.15625 490.964844 576.09375 491.796875 573.007812 492.558594 C 569.925781 493.324219 566.828125 494.019531 563.710938 494.640625 C 560.597656 495.265625 557.46875 495.820312 554.328125 496.304688 C 551.191406 496.789062 548.039062 497.203125 544.882812 497.546875 C 541.722656 497.886719 538.558594 498.160156 535.390625 498.359375 C 532.21875 498.558594 529.042969 498.6875 525.867188 498.746094 C 522.691406 498.804688 519.515625 498.792969 516.339844 498.707031 C 513.164062 498.621094 509.992188 498.464844 506.824219 498.238281 C 503.652344 498.011719 500.492188 497.714844 497.335938 497.34375 C 494.179688 496.972656 491.035156 496.535156 487.898438 496.023438 C 484.765625 495.511719 481.640625 494.933594 478.53125 494.28125 C 475.421875 493.628906 472.332031 492.910156 469.253906 492.121094 C 466.175781 491.332031 463.117188 490.472656 460.078125 489.546875 C 457.042969 488.617188 454.027344 487.621094 451.03125 486.558594 C 448.039062 485.496094 445.070312 484.367188 442.128906 483.171875 C 439.183594 481.976562 436.269531 480.714844 433.382812 479.386719 C 430.496094 478.0625 427.644531 476.671875 424.820312 475.214844 C 421.996094 473.761719 419.207031 472.242188 416.453125 470.660156 C 413.695312 469.082031 410.976562 467.441406 408.296875 465.738281 C 405.617188 464.035156 402.972656 462.273438 400.371094 460.453125 C 397.769531 458.628906 395.210938 456.753906 392.691406 454.816406 C 390.175781 452.878906 387.703125 450.886719 385.273438 448.839844 C 382.847656 446.792969 380.464844 444.691406 378.132812 442.539062 C 376.515625 441.078125 374.949219 439.570312 373.4375 438.054688 C 370.335938 435.011719 367.335938 431.875 364.425781 428.648438 C 361.519531 425.417969 358.714844 422.105469 356.011719 418.703125 C 353.3125 415.300781 350.714844 411.820312 348.226562 408.261719 C 345.738281 404.699219 343.363281 401.066406 341.097656 397.359375 C 338.832031 393.652344 336.683594 389.882812 334.652344 386.042969 C 332.621094 382.203125 330.707031 378.308594 328.914062 374.351562 C 327.121094 370.394531 325.453125 366.386719 323.90625 362.328125 C 322.363281 358.269531 320.941406 354.167969 319.648438 350.023438 C 318.355469 345.875 317.191406 341.695312 316.15625 337.476562 C 315.121094 333.257812 314.214844 329.015625 313.441406 324.742188 C 312.667969 320.46875 312.023438 316.175781 311.515625 311.863281 C 311.003906 307.550781 310.628906 303.226562 310.382812 298.890625 C 310.140625 294.554688 310.027344 290.214844 310.050781 285.871094 C 310.074219 281.53125 310.234375 277.191406 310.523438 272.859375 C 310.8125 268.527344 311.238281 264.207031 311.792969 259.898438 C 312.351562 255.59375 313.039062 251.308594 313.859375 247.042969 C 314.679688 242.777344 315.628906 238.542969 316.710938 234.335938 C 317.789062 230.132812 319 225.960938 320.335938 221.832031 C 321.675781 217.699219 323.140625 213.613281 324.726562 209.570312 C 326.316406 205.527344 328.03125 201.539062 329.863281 197.601562 C 331.699219 193.664062 333.652344 189.789062 335.726562 185.972656 C 337.800781 182.15625 339.988281 178.40625 342.292969 174.722656 C 344.597656 171.042969 347.011719 167.433594 349.539062 163.902344 C 352.066406 160.367188 354.699219 156.914062 357.4375 153.542969 C 360.175781 150.171875 363.015625 146.886719 365.957031 143.691406 C 368.898438 140.492188 371.9375 137.390625 375.070312 134.378906 C 378.203125 131.367188 381.421875 128.457031 384.734375 125.644531 C 388.046875 122.832031 391.441406 120.125 394.921875 117.519531 C 398.398438 114.914062 401.953125 112.421875 405.585938 110.035156 C 409.21875 107.648438 412.917969 105.378906 416.691406 103.21875 C 420.460938 101.0625 424.296875 99.023438 428.195312 97.101562 C 432.09375 95.179688 436.046875 93.378906 440.054688 91.699219 C 444.0625 90.019531 448.117188 88.464844 452.222656 87.035156 C 456.324219 85.605469 460.46875 84.300781 464.652344 83.125 C 468.835938 81.953125 473.054688 80.90625 477.304688 79.988281 C 481.550781 79.074219 485.824219 78.289062 490.121094 77.636719 C 494.417969 76.980469 498.730469 76.460938 503.058594 76.074219 C 507.386719 75.683594 511.726562 75.429688 516.070312 75.308594 C 520.414062 75.183594 524.757812 75.195312 529.101562 75.339844 C 533.445312 75.488281 537.78125 75.765625 542.109375 76.175781 C 546.4375 76.589844 550.746094 77.132812 555.039062 77.808594 C 559.332031 78.484375 563.601562 79.292969 567.84375 80.230469 C 572.089844 81.171875 576.296875 82.238281 580.476562 83.4375 C 584.65625 84.632812 588.792969 85.957031 592.886719 87.410156 C 596.984375 88.863281 601.03125 90.4375 605.03125 92.136719 C 609.03125 93.839844 612.972656 95.660156 616.859375 97.605469 C 620.746094 99.546875 624.570312 101.605469 628.332031 103.785156 C 632.089844 105.960938 635.78125 108.253906 639.398438 110.660156 C 643.019531 113.0625 646.5625 115.578125 650.027344 118.199219 C 653.488281 120.820312 656.871094 123.546875 660.167969 126.378906 C 663.464844 129.207031 666.667969 132.136719 669.785156 135.164062 C 672.902344 138.191406 675.921875 141.3125 678.847656 144.523438 C 681.769531 147.738281 684.59375 151.035156 687.3125 154.421875 C 690.035156 157.808594 692.648438 161.277344 695.15625 164.824219 C 697.664062 168.371094 700.0625 171.988281 702.34375 175.683594 C 704.628906 179.378906 706.800781 183.140625 708.851562 186.96875 C 710.90625 190.792969 712.839844 194.679688 714.652344 198.628906 C 716.464844 202.574219 718.15625 206.574219 719.726562 210.621094 C 721.292969 214.671875 722.734375 218.769531 724.050781 222.90625 C 725.363281 227.046875 726.550781 231.222656 727.609375 235.433594 C 728.667969 239.644531 729.597656 243.882812 730.394531 248.152344 C 731.191406 252.421875 731.855469 256.710938 732.390625 261.019531 C 732.921875 265.332031 733.324219 269.652344 733.589844 273.988281 C 733.859375 278.320312 733.992188 282.660156 733.992188 287.003906 Z M 733.992188 287.003906 " fill-opacity="1" fill-rule="nonzero"/></g><path fill="#1d274e" d="M 586.238281 215.351562 C 584.371094 176.953125 489.75 146.605469 446.566406 206.058594 C 403.386719 265.515625 422.597656 298.335938 400.28125 337.355469 C 377.96875 376.375 445.058594 474.84375 563.078125 438.921875 C 681.09375 403.003906 646.375 375.75 631.496094 318.777344 C 616.621094 261.800781 623.429688 204.203125 586.238281 215.351562 Z M 586.238281 215.351562 " fill-opacity="1" fill-rule="nonzero"/><path fill="#dee6ff" d="M 657.351562 449.992188 C 654.90625 452.019531 652.417969 453.992188 649.882812 455.90625 C 647.347656 457.820312 644.773438 459.675781 642.15625 461.476562 C 639.539062 463.277344 636.882812 465.015625 634.1875 466.695312 C 631.492188 468.375 628.757812 469.992188 625.992188 471.550781 C 623.222656 473.105469 620.421875 474.601562 617.585938 476.03125 C 614.75 477.464844 611.882812 478.828125 608.984375 480.132812 C 606.089844 481.433594 603.164062 482.671875 600.210938 483.84375 C 597.257812 485.011719 594.28125 486.117188 591.277344 487.15625 C 588.273438 488.191406 585.25 489.160156 582.203125 490.0625 C 579.15625 490.964844 576.09375 491.796875 573.007812 492.558594 C 569.925781 493.324219 566.828125 494.019531 563.710938 494.640625 C 560.597656 495.265625 557.46875 495.820312 554.328125 496.304688 C 551.191406 496.789062 548.039062 497.203125 544.882812 497.546875 C 541.722656 497.886719 538.558594 498.160156 535.390625 498.359375 C 532.21875 498.558594 529.042969 498.6875 525.867188 498.746094 C 522.691406 498.804688 519.515625 498.792969 516.339844 498.707031 C 513.164062 498.621094 509.992188 498.464844 506.824219 498.238281 C 503.652344 498.011719 500.492188 497.714844 497.335938 497.34375 C 494.179688 496.972656 491.035156 496.535156 487.898438 496.023438 C 484.765625 495.511719 481.640625 494.933594 478.53125 494.28125 C 475.421875 493.628906 472.332031 492.910156 469.253906 492.121094 C 466.175781 491.332031 463.117188 490.472656 460.078125 489.546875 C 457.042969 488.617188 454.027344 487.621094 451.03125 486.558594 C 448.039062 485.496094 445.070312 484.367188 442.128906 483.171875 C 439.183594 481.976562 436.269531 480.714844 433.382812 479.386719 C 430.496094 478.0625 427.644531 476.671875 424.820312 475.214844 C 421.996094 473.761719 419.207031 472.242188 416.453125 470.660156 C 413.695312 469.082031 410.976562 467.441406 408.296875 465.738281 C 405.617188 464.035156 402.972656 462.273438 400.371094 460.453125 C 397.769531 458.628906 395.210938 456.753906 392.691406 454.816406 C 390.175781 452.878906 387.703125 450.886719 385.273438 448.839844 C 382.847656 446.792969 380.464844 444.691406 378.132812 442.539062 C 376.515625 441.078125 374.949219 439.570312 373.4375 438.054688 C 378.863281 428.414062 390.550781 412.460938 413.765625 400.105469 C 430.09375 391.347656 452.164062 384.414062 481.691406 382.746094 C 485.710938 382.539062 489.882812 382.382812 494.214844 382.382812 C 513.882812 382.277344 530.941406 382.382812 545.765625 382.851562 C 594.230469 384.464844 618.804688 390.199219 634.195312 406.621094 C 639.402344 412.253906 643.558594 418.582031 646.664062 425.597656 C 650.882812 434.675781 654.746094 442.753906 657.351562 449.992188 Z M 657.351562 449.992188 " fill-opacity="1" fill-rule="nonzero"/><path fill="#ff908b" d="M 481.171875 328.996094 C 482.511719 350.207031 482.511719 371.417969 481.171875 392.628906 C 481.171875 392.628906 490.9375 407.957031 515.109375 414.460938 C 539.285156 420.960938 545.792969 398.203125 545.792969 398.203125 C 545.792969 398.203125 544.863281 366.617188 548.582031 341.535156 Z M 481.171875 328.996094 " fill-opacity="1" fill-rule="nonzero"/><path fill="#ffb5ac" d="M 472.941406 290.753906 L 476.292969 301.125 L 482.105469 262.230469 C 482.105469 262.230469 539.578125 285.960938 585.308594 233.933594 C 585.308594 233.933594 595.847656 296.175781 586.238281 334.882812 C 576.632812 373.589844 562.144531 375.75 541.609375 376.839844 C 521.074219 377.933594 480.5625 351.765625 475.59375 317.386719 C 453.898438 322.957031 440.570312 309.640625 449.25 289.820312 L 449.511719 289.234375 C 454.234375 278.820312 469.421875 279.871094 472.941406 290.753906 Z M 472.941406 290.753906 " fill-opacity="1" fill-rule="nonzero"/></svg>