<svg xmlns="http://www.w3.org/2000/svg" xmlns:xlink="http://www.w3.org/1999/xlink" width="1366" zoomAndPan="magnify" viewBox="0 0 1024.5 576" height="768" preserveAspectRatio="xMidYMid meet" version="1.0"><defs><clipPath id="9932fc6783"><path d="M 365.4375 151 L 658.542969 151 L 658.542969 561 L 365.4375 561 Z M 365.4375 151 " clip-rule="nonzero"/></clipPath></defs><g clip-path="url(#9932fc6783)"><path fill="#4f5537" d="M 515.183594 560.980469 C 484.945312 561.042969 458.300781 558.265625 432.167969 550.878906 C 423.453125 548.417969 420.488281 545.257812 419.351562 536.421875 C 414.300781 497.28125 408.996094 458.136719 404.261719 418.871094 C 400.09375 383.582031 396.558594 348.226562 392.644531 312.875 C 390.308594 291.660156 387.910156 270.386719 385.636719 249.175781 C 385.195312 245.257812 383.175781 243.429688 379.515625 242.859375 C 378.316406 242.671875 377.117188 242.355469 375.980469 242.039062 C 368.910156 239.894531 365.6875 236.167969 365.5625 228.84375 C 365.4375 223.730469 365.753906 218.554688 366.445312 213.441406 C 367.394531 207.757812 370.359375 203.53125 376.167969 202.960938 C 385.007812 202.078125 387.847656 196.773438 388.796875 189.007812 C 389.425781 183.644531 390.6875 178.339844 391.824219 173.101562 C 393.152344 166.914062 396.8125 163.125 403.253906 162.050781 C 437.027344 156.246094 470.992188 153.152344 505.273438 151.886719 C 540.816406 150.625 576.042969 154.414062 611.460938 155.992188 C 615.246094 156.246094 618.972656 157.003906 622.570312 158.265625 C 628.503906 160.09375 632.167969 164.074219 633.746094 170.007812 C 635.257812 176.066406 636.394531 182.191406 637.089844 188.378906 C 638.417969 198.605469 640.058594 200.375 650.03125 202.457031 C 654.199219 203.339844 656.34375 206.054688 657.101562 209.90625 C 658.175781 215.335938 658.554688 220.953125 658.238281 226.445312 C 657.988281 231.433594 655.398438 235.980469 651.230469 238.695312 C 646.308594 242.039062 644.351562 246.523438 643.65625 252.265625 C 639.996094 283.832031 636.144531 315.398438 632.230469 346.902344 C 628.1875 379.476562 623.769531 412.050781 619.601562 444.628906 C 615.6875 475.058594 611.710938 505.550781 608.050781 536.042969 C 607.167969 543.679688 603.441406 547.847656 596.246094 550.121094 C 568.78125 558.769531 540.4375 559.84375 515.183594 560.980469 Z M 505.523438 325.121094 C 506.34375 325.121094 507.167969 325.121094 507.988281 325.121094 C 543.214844 324.425781 578.1875 320.953125 613.226562 317.546875 C 627.304688 316.15625 625.09375 318.175781 627.117188 304.160156 C 629.703125 286.105469 632.671875 268.113281 634.375 249.867188 C 634.878906 244.3125 635.007812 244.3125 629.386719 245.324219 C 612.59375 248.289062 595.675781 250.5 578.757812 252.265625 C 544.097656 255.867188 509.375 257.253906 474.589844 255.425781 C 449.464844 254.160156 424.402344 251.320312 399.652344 246.902344 C 396.496094 246.332031 395.234375 246.648438 395.675781 250.375 C 397.824219 268.492188 399.78125 286.675781 401.738281 304.792969 C 402.242188 309.273438 404.453125 312.367188 408.871094 313.566406 C 414.488281 315.082031 420.046875 316.722656 425.726562 317.988281 C 451.988281 323.984375 478.695312 325.4375 505.523438 325.121094 Z M 509.882812 551.761719 C 535.132812 551.574219 560.324219 549.046875 585.132812 544.125 C 596.179688 541.976562 599.085938 539.136719 600.726562 528.089844 C 604.136719 504.917969 606.914062 481.6875 609.503906 458.453125 C 609.878906 455.234375 608.617188 455.234375 606.15625 455.738281 C 580.210938 461.230469 554.074219 465.460938 527.496094 467.101562 C 491.445312 469.3125 455.839844 466.472656 421.117188 456.054688 C 416.761719 454.730469 416.445312 454.980469 417.140625 459.589844 C 420.613281 483.582031 424.148438 507.507812 427.683594 531.433594 C 428.632812 537.683594 432.796875 541.597656 438.289062 542.988281 C 462.53125 548.984375 487.214844 551.953125 509.882812 551.761719 Z M 639.617188 210.851562 C 639.171875 209.96875 638.351562 209.339844 637.34375 209.210938 C 631.597656 207.757812 629.453125 203.59375 628.820312 198.164062 C 628.441406 194.816406 627.808594 191.472656 627.621094 188.0625 C 627.429688 185.09375 626.421875 184.148438 623.328125 184.71875 C 617.898438 185.726562 612.34375 186.230469 606.851562 187.050781 C 568.910156 192.988281 530.839844 195.953125 492.457031 194.3125 C 463.164062 192.988281 433.933594 189.765625 405.019531 184.78125 C 399.402344 183.832031 399.085938 184.210938 398.074219 189.640625 C 396.625 197.59375 397.003906 206.371094 387.972656 211.421875 C 394.539062 214.578125 400.917969 215.902344 407.230469 217.167969 C 430.964844 221.773438 454.957031 223.417969 479.007812 224.109375 C 523.960938 225.5 568.84375 225.121094 613.417969 218.050781 C 622.445312 216.789062 631.28125 214.957031 639.617188 210.851562 Z M 515.6875 438.945312 C 516.507812 437.9375 517.140625 437.242188 517.644531 436.484375 C 523.515625 427.582031 530.210938 419.1875 537.660156 411.546875 C 544.667969 404.222656 552.875 398.226562 559.816406 390.777344 C 567.015625 383.011719 568.84375 374.238281 564.742188 364.578125 C 560.449219 354.539062 552.429688 349.175781 541.507812 348.226562 C 531.722656 347.34375 524.210938 351.699219 517.835938 358.453125 C 515.625 360.789062 514.109375 360.601562 511.710938 358.960938 C 507.039062 355.738281 502.429688 352.394531 497.191406 350.121094 C 488.289062 346.332031 479.765625 346.839844 471.9375 352.773438 C 464.109375 358.707031 462.46875 366.722656 463.859375 375.941406 C 465.5 386.609375 471.75 394.125 480.019531 400.246094 C 494.222656 410.789062 507.671875 422.089844 515.6875 438.945312 Z M 624.589844 172.53125 C 620.675781 169.753906 617.265625 167.796875 613.039062 167.417969 C 607.101562 166.914062 601.230469 165.96875 595.296875 165.460938 C 558.746094 162.304688 522.128906 160.851562 485.449219 161.863281 C 463.796875 162.429688 442.203125 163.757812 420.867188 167.230469 C 414.679688 168.238281 408.617188 169.945312 403.0625 173.226562 C 403.945312 174.804688 405.273438 174.742188 406.410156 174.996094 C 414.742188 177.332031 423.265625 178.972656 431.851562 179.980469 C 487.660156 186.800781 543.53125 187.179688 599.273438 179.160156 C 607.988281 178.023438 616.507812 175.753906 624.589844 172.53125 Z M 504.957031 246.902344 C 515.625 246.964844 526.296875 246.710938 536.964844 246.207031 C 571.9375 244.628906 606.789062 240.460938 641.195312 233.832031 C 643.089844 233.582031 644.855469 232.824219 646.433594 231.75 C 649.652344 229.222656 649.273438 225.625 648.328125 222.40625 C 647.378906 219.058594 644.539062 221.332031 642.835938 221.648438 C 609.1875 227.835938 575.285156 232.191406 541.066406 233.960938 C 503.378906 235.980469 465.5625 234.652344 428.125 229.917969 C 411.773438 227.835938 395.550781 224.867188 379.386719 221.585938 C 376.738281 221.015625 375.851562 221.523438 375.410156 224.238281 C 374.402344 230.550781 375.347656 231.9375 382.671875 233.644531 C 422.886719 242.796875 463.605469 247.59375 504.957031 246.902344 Z M 504.957031 246.902344 " fill-opacity="1" fill-rule="nonzero"/></g><path fill="#4f5537" d="M 442.710938 105.046875 C 442.457031 98.101562 446.308594 93.933594 451.484375 90.777344 C 454.957031 88.695312 458.746094 87.117188 462.214844 85.09375 C 468.71875 81.179688 471.054688 75.5 469.222656 68.113281 C 467.015625 59.464844 462.46875 51.953125 457.796875 44.4375 C 452.050781 35.601562 454.386719 23.796875 463.101562 17.859375 C 463.984375 17.230469 464.929688 16.660156 465.878906 16.21875 C 467.710938 15.460938 469.792969 14.957031 471.179688 16.535156 C 472.824219 18.367188 471.054688 20.070312 469.980469 21.523438 C 468.972656 22.785156 467.898438 23.984375 466.761719 25.121094 C 461.332031 30.992188 460.890625 34.148438 465.246094 40.96875 C 468.78125 46.460938 472.003906 52.015625 474.273438 58.136719 C 474.90625 59.78125 475.601562 61.421875 476.105469 63.0625 C 480.589844 77.457031 476.042969 87.875 462.46875 94.4375 C 460.132812 95.574219 457.734375 96.585938 455.589844 97.847656 C 450.539062 100.878906 449.527344 104.601562 452.367188 109.84375 C 454.136719 113.0625 456.535156 115.777344 458.871094 118.617188 C 462.34375 122.785156 465.6875 127.015625 469.351562 130.992188 C 471.433594 133.265625 470.613281 134.210938 468.277344 135.285156 C 465.941406 136.359375 463.417969 136.925781 461.648438 134.527344 C 456.722656 127.773438 449.84375 122.59375 445.867188 115.082031 C 444.160156 111.863281 442.519531 108.582031 442.710938 105.046875 Z M 442.710938 105.046875 " fill-opacity="1" fill-rule="nonzero"/><path fill="#4f5537" d="M 516.003906 65.96875 C 515.5 70.953125 512.28125 75.375 508.238281 79.289062 C 506.21875 81.246094 503.820312 82.886719 501.863281 84.90625 C 496.8125 89.957031 496.558594 93.933594 501.042969 99.488281 C 503.0625 102.015625 504.832031 104.730469 506.34375 107.632812 C 512.34375 119.058594 506.976562 129.601562 498.707031 136.800781 C 496.179688 138.945312 494.917969 135.851562 493.277344 134.96875 C 491.320312 133.894531 492.394531 132.570312 493.277344 131.308594 C 494.917969 129.035156 496.6875 126.761719 498.136719 124.300781 C 502.304688 117.355469 501.925781 113.316406 496.75 107.003906 C 495.613281 105.675781 494.476562 104.351562 493.402344 102.898438 C 487.910156 95.324219 488.417969 87.117188 494.917969 80.488281 C 498.328125 77.015625 502.050781 73.921875 505.398438 70.386719 C 509.058594 66.535156 508.679688 63.945312 504.386719 60.726562 C 503.1875 59.84375 501.863281 59.085938 500.917969 58.011719 C 499.96875 56.9375 498.582031 55.488281 499.464844 53.71875 C 500.285156 52.140625 501.925781 51.761719 503.628906 51.699219 C 510.007812 51.445312 516.195312 58.074219 516.003906 65.96875 Z M 516.003906 65.96875 " fill-opacity="1" fill-rule="nonzero"/></svg>