<svg xmlns="http://www.w3.org/2000/svg" xmlns:xlink="http://www.w3.org/1999/xlink" width="1366" zoomAndPan="magnify" viewBox="0 0 1024.5 576" height="768" preserveAspectRatio="xMidYMid meet" version="1.0"><defs><g/><clipPath id="b19fc9afc5"><path d="M 257.574219 33.574219 L 766.425781 33.574219 L 766.425781 542.425781 L 257.574219 542.425781 Z M 257.574219 33.574219 " clip-rule="nonzero"/></clipPath><clipPath id="840870f3a7"><path d="M 512 33.574219 C 371.484375 33.574219 257.574219 147.484375 257.574219 288 C 257.574219 428.515625 371.484375 542.425781 512 542.425781 C 652.515625 542.425781 766.425781 428.515625 766.425781 288 C 766.425781 147.484375 652.515625 33.574219 512 33.574219 Z M 512 33.574219 " clip-rule="nonzero"/></clipPath><clipPath id="65d22c453b"><path d="M 318.390625 94.390625 L 705.609375 94.390625 L 705.609375 481.609375 L 318.390625 481.609375 Z M 318.390625 94.390625 " clip-rule="nonzero"/></clipPath><clipPath id="c0a4ff0a90"><path d="M 512 94.390625 C 405.074219 94.390625 318.390625 181.074219 318.390625 288 C 318.390625 394.925781 405.074219 481.609375 512 481.609375 C 618.925781 481.609375 705.609375 394.925781 705.609375 288 C 705.609375 181.074219 618.925781 94.390625 512 94.390625 Z M 512 94.390625 " clip-rule="nonzero"/></clipPath><clipPath id="a7360ecd6a"><path d="M 324.832031 100.675781 L 698.898438 100.675781 L 698.898438 475.492188 L 324.832031 475.492188 Z M 324.832031 100.675781 " clip-rule="nonzero"/></clipPath></defs><g clip-path="url(#b19fc9afc5)"><g clip-path="url(#840870f3a7)"><path fill="#4a3518" d="M 257.574219 33.574219 L 766.425781 33.574219 L 766.425781 542.425781 L 257.574219 542.425781 Z M 257.574219 33.574219 " fill-opacity="1" fill-rule="nonzero"/></g></g><g clip-path="url(#65d22c453b)"><g clip-path="url(#c0a4ff0a90)"><path fill="#d9d8d2" d="M 318.390625 94.390625 L 705.609375 94.390625 L 705.609375 481.609375 L 318.390625 481.609375 Z M 318.390625 94.390625 " fill-opacity="1" fill-rule="nonzero"/></g></g><g clip-path="url(#a7360ecd6a)"><path fill="#9a6637" d="M 511.996094 475.160156 C 615.363281 475.160156 699.15625 391.363281 699.15625 287.996094 C 699.15625 184.628906 615.363281 100.832031 511.996094 100.832031 C 408.628906 100.832031 324.832031 184.628906 324.832031 287.996094 C 324.832031 391.363281 408.628906 475.160156 511.996094 475.160156 Z M 511.296875 144.128906 C 509.859375 138.957031 507.167969 134.570312 503.21875 130.960938 C 497.042969 125.285156 485.535156 126.375 482.195312 134.066406 C 481.914062 134.714844 481.671875 135.398438 481.460938 136.125 C 480.230469 140.882812 480.28125 145.636719 481.609375 150.382812 C 483.464844 157.050781 486.082031 163.40625 489.464844 169.445312 C 493.242188 175.875 496.832031 182.421875 500.238281 189.085938 C 502.683594 194.289062 504.429688 199.722656 505.476562 205.382812 C 507.003906 214.679688 507.683594 224.042969 507.515625 233.464844 C 506.179688 228.753906 504.820312 224.046875 503.4375 219.351562 C 500.550781 209.84375 496.523438 200.871094 491.359375 192.433594 C 487.734375 186.433594 483.394531 180.976562 478.332031 176.0625 C 477.296875 175.222656 476.179688 174.492188 474.984375 173.882812 C 471.8125 172.582031 469.160156 176.277344 468.335938 179.605469 C 468.15625 180.324219 468.019531 181.0625 467.925781 181.8125 C 467.3125 186.398438 467.117188 191.007812 467.34375 195.632812 C 467.980469 209.488281 472.976562 221.46875 482.335938 231.570312 C 486.847656 236.277344 491.457031 240.882812 496.160156 245.394531 C 496.71875 246 497.277344 246.605469 497.835938 247.214844 L 497.859375 247.238281 C 498.089844 247.492188 498.324219 247.746094 498.558594 248 C 498.875 248.34375 499.191406 248.6875 499.507812 249.03125 C 503.367188 253.257812 505.84375 258.207031 506.933594 263.871094 C 507.640625 268.160156 507.933594 272.476562 507.804688 276.820312 C 507.355469 275.878906 506.871094 274.957031 506.351562 274.058594 C 503.039062 269.292969 499.035156 265.195312 494.34375 261.761719 C 485.664062 255.609375 477.316406 249.015625 469.308594 241.976562 C 462.46875 235.578125 456.914062 228.230469 452.644531 219.933594 C 451.820312 218.464844 450.683594 218.125 449.222656 218.914062 C 448.449219 219.949219 447.9375 221.113281 447.695312 222.40625 C 446.863281 225.855469 446.28125 229.347656 445.949219 232.882812 C 444.117188 248.964844 448 263.464844 457.59375 276.386719 C 460.644531 280.308594 464.015625 283.96875 467.707031 287.371094 C 471.226562 290.355469 474.742188 293.335938 478.261719 296.320312 C 481.777344 299.300781 485.292969 302.285156 488.8125 305.265625 C 491.566406 307.875 494.160156 310.617188 496.597656 313.488281 C 502.078125 320.320312 504.988281 328.128906 505.332031 336.914062 C 503.871094 333.175781 501.664062 329.949219 498.707031 327.238281 C 496.050781 324.9375 493.238281 322.855469 490.265625 320.980469 C 485.84375 318.257812 481.378906 315.589844 476.878906 312.980469 C 473.527344 310.867188 470.230469 308.6875 466.980469 306.429688 C 460.890625 302.089844 455.675781 296.875 451.335938 290.789062 C 446.773438 284.003906 443.136719 276.726562 440.417969 268.964844 C 438.207031 262.570312 436.023438 256.171875 433.871094 249.757812 C 433.304688 248.296875 432.628906 246.886719 431.832031 245.539062 C 429.292969 242.109375 426.671875 242.0625 423.972656 245.394531 C 422.0625 248.308594 420.652344 251.460938 419.75 254.851562 C 416.203125 267.945312 417.027344 280.746094 422.226562 293.261719 C 426.351562 302.160156 432.148438 309.800781 439.617188 316.179688 C 445.804688 321.34375 452.351562 326 459.265625 330.148438 C 466.144531 334.261719 472.984375 338.433594 479.789062 342.660156 C 484.941406 345.964844 489.671875 349.820312 493.976562 354.226562 C 497.679688 358.332031 500.152344 363.082031 501.402344 368.488281 C 499.203125 364.878906 496.507812 361.652344 493.324219 358.8125 C 487.957031 354.285156 482.230469 350.257812 476.148438 346.734375 C 468.503906 342.390625 460.9375 337.925781 453.445312 333.347656 C 444.363281 327.617188 436.1875 320.753906 428.921875 312.761719 C 414.324219 295.960938 408.839844 276.511719 412.472656 254.414062 C 413.675781 247.8125 415.132812 241.265625 416.839844 234.773438 C 417.210938 233.1875 417.5 231.585938 417.714844 229.972656 C 417.96875 228.609375 417.96875 227.253906 417.714844 225.898438 C 417.179688 223.53125 415.746094 222.730469 413.421875 223.496094 C 412.351562 223.984375 411.378906 224.613281 410.507812 225.386719 C 406.714844 229.230469 403.535156 233.523438 400.976562 238.265625 C 393.929688 251.804688 390.730469 266.207031 391.371094 281.476562 C 391.632812 296.523438 396.386719 309.910156 405.632812 321.636719 C 410.730469 327.898438 416.335938 333.691406 422.445312 339.023438 C 432.148438 347.316406 442.386719 354.882812 453.152344 361.722656 C 455.332031 363.085938 457.507812 364.453125 459.683594 365.820312 C 462.066406 367.316406 464.453125 368.808594 466.835938 370.304688 C 471.394531 373.167969 475.957031 376.027344 480.515625 378.890625 C 483.652344 380.960938 486.710938 383.140625 489.683594 385.4375 C 493.9375 388.8125 497.453125 392.8125 500.238281 397.441406 C 500.851562 398.523438 501.335938 399.636719 501.691406 400.789062 C 500.265625 399.117188 498.789062 397.496094 497.253906 395.914062 C 492.523438 391.816406 487.425781 388.226562 481.972656 385.148438 C 474.449219 380.902344 466.882812 376.730469 459.265625 372.632812 C 446.457031 365.601562 434.621094 357.210938 423.753906 347.460938 C 408.859375 333.765625 397.582031 317.542969 389.914062 298.792969 C 386.253906 289.488281 384.335938 279.835938 384.167969 269.839844 C 384.472656 257.460938 387.164062 245.625 392.242188 234.335938 C 397.210938 223.523438 403.421875 213.535156 410.875 204.363281 C 414.9375 199.523438 419.109375 194.769531 423.390625 190.105469 C 425.195312 188 426.890625 185.820312 428.484375 183.558594 C 429.265625 182.335938 429.847656 181.027344 430.230469 179.628906 C 430.871094 176.269531 426.054688 175.320312 422.722656 176.109375 C 421.992188 176.28125 421.269531 176.507812 420.550781 176.792969 C 415.238281 178.910156 410.390625 181.773438 405.996094 185.375 C 399.417969 190.835938 393.71875 197.070312 388.894531 204.074219 C 380.402344 216.347656 373.707031 229.589844 368.8125 243.792969 C 365.128906 254.5 362.992188 265.511719 362.40625 276.820312 C 361.871094 300.769531 366.722656 323.5625 376.960938 345.207031 C 383.539062 359.109375 392.878906 370.820312 404.980469 380.34375 C 415.03125 387.796875 425.898438 393.910156 437.582031 398.679688 C 445.988281 402.105469 454.429688 405.449219 462.90625 408.71875 C 467.414062 410.605469 471.828125 412.691406 476.148438 414.972656 C 484.425781 419.511719 491.289062 425.644531 496.742188 433.378906 C 498.136719 435.378906 499.515625 437.238281 500.949219 439.171875 L 500.949219 439.175781 C 501.984375 440.574219 503.046875 442.011719 504.167969 443.5625 C 504.320312 443.78125 504.472656 443.992188 504.621094 444.199219 C 506.996094 447.519531 508.417969 449.503906 511.820312 449.503906 C 515.039062 449.503906 516.757812 447.1875 518.707031 444.554688 C 518.949219 444.226562 519.195312 443.898438 519.449219 443.5625 C 521.738281 440.550781 524.800781 436.46875 527.308594 432.796875 C 531.164062 427.390625 535.796875 422.757812 541.207031 418.902344 C 547.324219 414.828125 553.824219 411.429688 560.710938 408.71875 C 569.867188 405.164062 578.984375 401.527344 588.070312 397.804688 C 597.292969 393.875 606.027344 389.121094 614.269531 383.546875 C 627.367188 374.441406 637.582031 362.824219 644.90625 348.699219 C 651.835938 334.859375 656.636719 320.308594 659.316406 305.050781 C 662.152344 289.089844 661.910156 273.183594 658.585938 257.324219 C 654.171875 238.996094 646.75 222.023438 636.320312 206.402344 C 631.519531 199.175781 625.867188 192.652344 619.363281 186.832031 C 614.496094 182.601562 609.0625 179.253906 603.0625 176.792969 C 602.347656 176.507812 601.621094 176.28125 600.890625 176.109375 C 597.5625 175.320312 592.746094 176.269531 593.382812 179.628906 C 593.769531 181.027344 594.351562 182.335938 595.132812 183.558594 C 596.722656 185.820312 598.421875 188 600.226562 190.105469 C 604.503906 194.769531 608.679688 199.523438 612.742188 204.363281 C 615.375 207.675781 617.898438 211.070312 620.308594 214.546875 C 627.453125 224.851562 632.789062 236.054688 636.320312 248.160156 C 641.148438 265.332031 640.277344 282.207031 633.699219 298.792969 C 626.035156 317.542969 614.753906 333.765625 599.859375 347.460938 C 588.996094 357.210938 577.15625 365.601562 564.347656 372.632812 C 556.734375 376.730469 549.164062 380.902344 541.644531 385.148438 C 538.839844 386.835938 536.074219 388.582031 533.347656 390.382812 C 529.039062 393.285156 525.230469 396.753906 521.921875 400.789062 C 521.824219 400.640625 521.824219 400.496094 521.921875 400.351562 C 523.871094 396.222656 526.441406 392.535156 529.636719 389.292969 C 533.832031 385.4375 538.320312 381.96875 543.097656 378.890625 C 553.53125 372.414062 563.910156 365.867188 574.246094 359.246094 C 584.769531 352.414062 594.714844 344.800781 604.082031 336.40625 C 610.574219 330.449219 616.371094 323.925781 621.472656 316.835938 C 625.089844 311.402344 627.804688 305.535156 629.625 299.230469 C 632.296875 288.6875 632.976562 278.019531 631.664062 267.21875 C 630.136719 253.566406 625.378906 241.199219 617.398438 230.117188 C 616.339844 228.699219 615.167969 227.390625 613.886719 226.195312 C 612.285156 224.695312 610.378906 223.066406 608.195312 223.289062 C 606.59375 223.453125 605.757812 224.882812 605.683594 227.570312 C 605.863281 230.25 606.277344 232.894531 606.921875 235.5 C 608.601562 241.746094 610.007812 248.050781 611.140625 254.414062 C 614.773438 276.511719 609.292969 295.960938 594.695312 312.761719 C 587.429688 320.753906 579.253906 327.617188 570.171875 333.347656 C 562.675781 337.925781 555.109375 342.390625 547.464844 346.734375 C 541.382812 350.257812 535.660156 354.285156 530.292969 358.8125 C 527.105469 361.652344 524.414062 364.878906 522.214844 368.488281 C 523.460938 363.082031 525.933594 358.332031 529.636719 354.226562 C 533.945312 349.820312 538.675781 345.964844 543.828125 342.660156 C 551.421875 337.96875 559.035156 333.3125 566.675781 328.691406 C 574.699219 323.832031 582.097656 318.132812 588.871094 311.597656 C 597.226562 303.140625 602.613281 293.054688 605.027344 281.332031 C 607.007812 270.578125 606.035156 260.101562 602.117188 249.90625 C 601.277344 247.761719 600.089844 245.847656 598.550781 244.15625 C 598.003906 243.679688 597.453125 243.339844 596.890625 243.144531 C 594.410156 242.28125 592.148438 244.785156 590.902344 247.097656 C 590.449219 247.941406 590.0625 248.828125 589.746094 249.757812 C 587.589844 256.171875 585.410156 262.570312 583.195312 268.964844 C 581.855469 272.503906 580.398438 275.996094 578.832031 279.441406 C 575.25 287.191406 570.421875 294.054688 564.347656 300.03125 C 558.886719 304.90625 553.015625 309.222656 546.738281 312.980469 C 542.234375 315.589844 537.773438 318.257812 533.347656 320.980469 C 531.160156 322.414062 529.027344 323.914062 526.945312 325.492188 C 523.003906 328.507812 520.121094 332.3125 518.285156 336.914062 C 518.628906 328.132812 521.539062 320.320312 527.015625 313.488281 C 529.453125 310.617188 532.046875 307.875 534.804688 305.265625 C 540.785156 300.070312 546.851562 294.980469 552.996094 289.988281 C 555.875 287.40625 558.664062 284.710938 561.363281 281.914062 C 575.121094 266.992188 580.40625 249.433594 577.230469 229.242188 C 576.839844 225.898438 576.066406 222.648438 574.902344 219.496094 C 573.4375 218.035156 572.128906 218.179688 570.96875 219.933594 C 569.1875 223.15625 567.296875 226.308594 565.292969 229.390625 C 563.179688 232.328125 560.898438 235.144531 558.453125 237.828125 C 552.496094 243.867188 546.117188 249.371094 539.316406 254.34375 C 534.152344 257.949219 529.15625 261.78125 524.324219 265.835938 C 520.761719 268.957031 517.925781 272.621094 515.808594 276.820312 C 515.738281 274.445312 515.785156 272.066406 515.957031 269.691406 C 516.140625 265.898438 516.871094 262.214844 518.140625 258.636719 C 519.8125 254.609375 522.140625 251.019531 525.125 247.867188 L 539.824219 233.171875 C 540.886719 231.867188 542.003906 230.605469 543.171875 229.390625 C 552.269531 218.449219 556.660156 205.816406 556.34375 191.488281 C 556.445312 187.085938 555.984375 182.742188 554.960938 178.464844 C 553.5625 173.121094 550.625 172.078125 546.15625 175.335938 C 544.632812 176.714844 543.152344 178.144531 541.714844 179.628906 C 532.421875 190.542969 525.535156 202.859375 521.050781 216.585938 C 519.371094 222.152344 517.722656 227.730469 516.101562 233.316406 C 515.953125 232.847656 515.878906 232.359375 515.882812 231.863281 C 516.027344 225.738281 516.390625 219.628906 516.972656 213.53125 C 517.40625 209.007812 518.179688 204.546875 519.304688 200.144531 C 521.117188 193.878906 523.640625 187.914062 526.871094 182.246094 C 530.734375 175.691406 534.371094 168.996094 537.785156 162.167969 C 540.167969 157.214844 541.816406 152.023438 542.734375 146.601562 C 543.347656 142.589844 543.007812 138.660156 541.714844 134.816406 C 540.527344 131.539062 538.367188 129.140625 535.238281 127.613281 C 531.007812 126.082031 526.980469 126.519531 523.160156 128.921875 C 517.769531 132.671875 514.167969 137.707031 512.34375 144.03125 C 512.328125 144.09375 512.296875 144.152344 512.257812 144.207031 C 512.019531 144.546875 511.507812 144.597656 511.339844 144.21875 C 511.332031 144.207031 511.328125 144.191406 511.320312 144.179688 C 511.316406 144.171875 511.3125 144.160156 511.308594 144.152344 C 511.304688 144.144531 511.300781 144.136719 511.296875 144.128906 Z M 511.296875 144.128906 " fill-opacity="1" fill-rule="evenodd"/></g><g fill="#d9d8d2" fill-opacity="1"><g transform="translate(301.551323, 389.250582)"><g><path d="M 4.625 9.015625 C 3.851562 7.628906 3.335938 6.300781 3.078125 5.03125 C 2.816406 3.769531 2.765625 2.625 2.921875 1.59375 C 3.085938 0.5625 3.398438 -0.328125 3.859375 -1.078125 L 7.71875 -0.375 L 7.90625 -0.03125 C 7.34375 1.0625 7.050781 2.21875 7.03125 3.4375 C 7.007812 4.65625 7.34375 5.882812 8.03125 7.125 C 8.613281 8.175781 9.273438 8.847656 10.015625 9.140625 C 10.765625 9.441406 11.53125 9.375 12.3125 8.9375 C 12.789062 8.675781 13.140625 8.367188 13.359375 8.015625 C 13.585938 7.660156 13.703125 7.21875 13.703125 6.6875 C 13.710938 6.164062 13.613281 5.519531 13.40625 4.75 L 12.5625 1.84375 C 11.96875 -0.175781 11.90625 -1.890625 12.375 -3.296875 C 12.84375 -4.703125 13.835938 -5.820312 15.359375 -6.65625 C 16.484375 -7.28125 17.628906 -7.546875 18.796875 -7.453125 C 19.960938 -7.367188 21.082031 -6.914062 22.15625 -6.09375 C 23.226562 -5.28125 24.179688 -4.125 25.015625 -2.625 C 25.867188 -1.082031 26.394531 0.34375 26.59375 1.65625 C 26.800781 2.976562 26.691406 4.253906 26.265625 5.484375 L 22.515625 5.015625 L 22.328125 4.6875 C 22.609375 3.78125 22.691406 2.878906 22.578125 1.984375 C 22.472656 1.097656 22.160156 0.1875 21.640625 -0.75 C 21.035156 -1.832031 20.382812 -2.550781 19.6875 -2.90625 C 19 -3.257812 18.316406 -3.25 17.640625 -2.875 C 17.023438 -2.53125 16.640625 -2.054688 16.484375 -1.453125 C 16.328125 -0.847656 16.414062 -0.00390625 16.75 1.078125 L 17.65625 4 C 18.3125 6.175781 18.390625 7.96875 17.890625 9.375 C 17.398438 10.789062 16.367188 11.9375 14.796875 12.8125 C 13.546875 13.507812 12.3125 13.84375 11.09375 13.8125 C 9.875 13.789062 8.707031 13.378906 7.59375 12.578125 C 6.488281 11.773438 5.5 10.585938 4.625 9.015625 Z M 4.625 9.015625 "/></g></g></g><g fill="#d9d8d2" fill-opacity="1"><g transform="translate(319.940292, 419.870323)"><g><path d="M 3.828125 5.53125 C 3.148438 4.65625 2.722656 3.769531 2.546875 2.875 C 2.378906 1.976562 2.472656 1.117188 2.828125 0.296875 C 3.191406 -0.523438 3.8125 -1.269531 4.6875 -1.9375 C 5.5 -2.5625 6.3125 -2.910156 7.125 -2.984375 C 7.9375 -3.066406 8.796875 -2.878906 9.703125 -2.421875 C 10.617188 -1.960938 11.625 -1.222656 12.71875 -0.203125 C 13.476562 0.523438 14.097656 1.039062 14.578125 1.34375 C 15.066406 1.644531 15.46875 1.789062 15.78125 1.78125 C 16.09375 1.78125 16.398438 1.664062 16.703125 1.4375 C 17.140625 1.09375 17.359375 0.679688 17.359375 0.203125 C 17.359375 -0.273438 17.082031 -0.875 16.53125 -1.59375 C 15.945312 -2.351562 15.222656 -2.941406 14.359375 -3.359375 C 13.492188 -3.785156 12.585938 -4.039062 11.640625 -4.125 L 11.453125 -4.375 L 12.515625 -7.46875 C 13.828125 -7.363281 15.078125 -6.972656 16.265625 -6.296875 C 17.460938 -5.628906 18.515625 -4.707031 19.421875 -3.53125 C 20.804688 -1.71875 21.425781 -0.113281 21.28125 1.28125 C 21.144531 2.6875 20.367188 3.929688 18.953125 5.015625 L 13.015625 9.578125 C 12.410156 10.046875 12.3125 10.539062 12.71875 11.0625 C 12.875 11.269531 13.0625 11.441406 13.28125 11.578125 L 13.375 11.796875 L 11.171875 13.875 C 10.898438 13.78125 10.59375 13.59375 10.25 13.3125 C 9.914062 13.039062 9.597656 12.707031 9.296875 12.3125 C 8.671875 11.488281 8.335938 10.726562 8.296875 10.03125 C 8.253906 9.332031 8.492188 8.625 9.015625 7.90625 L 8.84375 7.640625 C 6.894531 8.054688 5.222656 7.351562 3.828125 5.53125 Z M 7.234375 4.65625 C 7.847656 5.445312 8.601562 5.875 9.5 5.9375 C 10.394531 6 11.316406 5.664062 12.265625 4.9375 L 13.65625 3.875 L 13.515625 3.609375 C 13.191406 3.523438 12.847656 3.359375 12.484375 3.109375 C 12.117188 2.859375 11.640625 2.460938 11.046875 1.921875 C 10.359375 1.265625 9.738281 0.890625 9.1875 0.796875 C 8.632812 0.710938 8.082031 0.878906 7.53125 1.296875 C 6.9375 1.753906 6.617188 2.269531 6.578125 2.84375 C 6.546875 3.425781 6.765625 4.03125 7.234375 4.65625 Z M 7.234375 4.65625 "/></g></g></g><g fill="#d9d8d2" fill-opacity="1"><g transform="translate(341.708772, 446.359376)"><g><path d="M 1.796875 1.71875 L 13.734375 -10.6875 L 16.71875 -7.796875 L 14.96875 -5.984375 L 15.15625 -5.71875 C 17.28125 -6.375 19.207031 -5.867188 20.9375 -4.203125 C 22.375 -2.828125 23.050781 -1.425781 22.96875 0 C 22.894531 1.414062 22.140625 2.867188 20.703125 4.359375 L 12.9375 12.4375 L 9.828125 9.453125 L 17.21875 1.765625 C 18.019531 0.929688 18.429688 0.175781 18.453125 -0.5 C 18.472656 -1.1875 18.117188 -1.878906 17.390625 -2.578125 C 16.492188 -3.441406 15.515625 -3.820312 14.453125 -3.71875 C 13.398438 -3.625 12.28125 -2.957031 11.09375 -1.71875 L 4.90625 4.71875 Z M 1.796875 1.71875 "/></g></g></g><g fill="#d9d8d2" fill-opacity="1"><g transform="translate(368.742815, 470.564955)"><g><path d="M 3.078125 11.140625 C 0.753906 9.492188 -0.71875 7.9375 -1.34375 6.46875 C -1.96875 5.007812 -1.847656 3.675781 -0.984375 2.46875 C -0.460938 1.726562 0.195312 1.285156 1 1.140625 C 1.800781 1.003906 2.703125 1.171875 3.703125 1.640625 L 3.890625 1.359375 C 3.628906 0.734375 3.519531 0.171875 3.5625 -0.328125 C 3.601562 -0.828125 3.789062 -1.3125 4.125 -1.78125 C 4.914062 -2.914062 6.1875 -3.15625 7.9375 -2.5 L 8.125 -2.765625 C 7.675781 -3.734375 7.488281 -4.671875 7.5625 -5.578125 C 7.632812 -6.492188 7.992188 -7.40625 8.640625 -8.3125 C 9.296875 -9.25 10.085938 -9.921875 11.015625 -10.328125 C 11.941406 -10.734375 12.957031 -10.835938 14.0625 -10.640625 C 15.175781 -10.453125 16.3125 -9.953125 17.46875 -9.140625 C 18.644531 -8.304688 19.4375 -7.4375 19.84375 -6.53125 C 20.71875 -6.851562 21.484375 -7.40625 22.140625 -8.1875 L 22.515625 -8.15625 L 24.609375 -5.75 C 24.046875 -5.125 23.453125 -4.691406 22.828125 -4.453125 C 22.203125 -4.222656 21.429688 -4.164062 20.515625 -4.28125 L 20.3125 -4 C 20.613281 -2.75 20.320312 -1.5 19.4375 -0.25 C 18.820312 0.613281 18.050781 1.234375 17.125 1.609375 C 16.207031 1.992188 15.191406 2.09375 14.078125 1.90625 C 12.972656 1.726562 11.847656 1.234375 10.703125 0.421875 L 10.1875 0.03125 C 9.851562 -0.226562 9.617188 -0.40625 9.484375 -0.5 C 9.160156 -0.726562 8.84375 -0.816406 8.53125 -0.765625 C 8.226562 -0.722656 7.984375 -0.566406 7.796875 -0.296875 C 7.578125 -0.00390625 7.53125 0.304688 7.65625 0.640625 C 7.78125 0.972656 8.066406 1.3125 8.515625 1.65625 L 11.59375 4 C 14.613281 6.289062 15.210938 8.726562 13.390625 11.3125 C 12.742188 12.226562 11.9375 12.878906 10.96875 13.265625 C 10.007812 13.648438 8.863281 13.679688 7.53125 13.359375 C 6.207031 13.046875 4.722656 12.304688 3.078125 11.140625 Z M 12.453125 -2.0625 C 13.140625 -1.582031 13.816406 -1.40625 14.484375 -1.53125 C 15.148438 -1.65625 15.742188 -2.085938 16.265625 -2.828125 C 16.785156 -3.566406 16.992188 -4.269531 16.890625 -4.9375 C 16.796875 -5.601562 16.40625 -6.175781 15.71875 -6.65625 C 15.03125 -7.144531 14.359375 -7.320312 13.703125 -7.1875 C 13.046875 -7.050781 12.457031 -6.613281 11.9375 -5.875 C 11.40625 -5.125 11.1875 -4.421875 11.28125 -3.765625 C 11.375 -3.117188 11.765625 -2.550781 12.453125 -2.0625 Z M 4.890625 8.578125 C 6.097656 9.429688 7.09375 9.878906 7.875 9.921875 C 8.664062 9.972656 9.253906 9.722656 9.640625 9.171875 C 9.953125 8.734375 10.039062 8.3125 9.90625 7.90625 C 9.769531 7.5 9.398438 7.066406 8.796875 6.609375 L 6.109375 4.515625 C 6.015625 4.453125 5.929688 4.390625 5.859375 4.328125 C 5.785156 4.265625 5.710938 4.207031 5.640625 4.15625 C 5.046875 3.726562 4.503906 3.53125 4.015625 3.5625 C 3.523438 3.59375 3.117188 3.835938 2.796875 4.296875 C 2.378906 4.890625 2.335938 5.550781 2.671875 6.28125 C 3.015625 7.007812 3.753906 7.773438 4.890625 8.578125 Z M 4.890625 8.578125 "/></g></g></g><g fill="#d9d8d2" fill-opacity="1"><g transform="translate(397.131964, 489.254101)"><g><path d="M 18.625 0.890625 L 8.765625 -4.125 C 8.191406 -2.726562 8.078125 -1.5625 8.421875 -0.625 C 8.765625 0.3125 9.5 1.066406 10.625 1.640625 C 11.507812 2.085938 12.304688 2.285156 13.015625 2.234375 C 13.734375 2.179688 14.429688 1.910156 15.109375 1.421875 L 15.40625 1.5625 L 17.109375 4.5 C 16.066406 5.3125 14.867188 5.796875 13.515625 5.953125 C 12.171875 6.117188 10.648438 5.773438 8.953125 4.921875 C 7.367188 4.117188 6.148438 3.117188 5.296875 1.921875 C 4.453125 0.734375 4.019531 -0.613281 4 -2.125 C 3.976562 -3.632812 4.398438 -5.25 5.265625 -6.96875 C 6.148438 -8.71875 7.226562 -10.023438 8.5 -10.890625 C 9.769531 -11.753906 11.113281 -12.191406 12.53125 -12.203125 C 13.957031 -12.210938 15.367188 -11.863281 16.765625 -11.15625 C 18.941406 -10.050781 20.3125 -8.632812 20.875 -6.90625 C 21.445312 -5.175781 21.171875 -3.195312 20.046875 -0.96875 C 19.628906 -0.164062 19.285156 0.441406 19.015625 0.859375 Z M 16.59375 -3.28125 C 17.144531 -4.46875 17.300781 -5.457031 17.0625 -6.25 C 16.832031 -7.050781 16.226562 -7.695312 15.25 -8.1875 C 13.300781 -9.175781 11.585938 -8.640625 10.109375 -6.578125 Z M 16.59375 -3.28125 "/></g></g></g><g fill="#d9d8d2" fill-opacity="1"><g transform="translate(428.705986, 503.937186)"><g><path d="M 18.546875 -1.875 L 8.0625 -5.375 C 7.707031 -3.90625 7.769531 -2.734375 8.25 -1.859375 C 8.726562 -0.984375 9.566406 -0.34375 10.765625 0.0625 C 11.703125 0.375 12.519531 0.453125 13.21875 0.296875 C 13.914062 0.140625 14.5625 -0.238281 15.15625 -0.84375 L 15.46875 -0.734375 L 17.578125 1.921875 C 16.671875 2.890625 15.5625 3.550781 14.25 3.90625 C 12.9375 4.257812 11.382812 4.140625 9.59375 3.546875 C 7.894531 2.984375 6.535156 2.175781 5.515625 1.125 C 4.503906 0.0703125 3.878906 -1.195312 3.640625 -2.6875 C 3.398438 -4.1875 3.582031 -5.851562 4.1875 -7.6875 C 4.800781 -9.539062 5.671875 -10.988281 6.796875 -12.03125 C 7.929688 -13.070312 9.195312 -13.703125 10.59375 -13.921875 C 12 -14.148438 13.453125 -14.019531 14.953125 -13.53125 C 17.265625 -12.757812 18.828125 -11.554688 19.640625 -9.921875 C 20.460938 -8.296875 20.476562 -6.296875 19.6875 -3.921875 C 19.394531 -3.066406 19.140625 -2.40625 18.921875 -1.9375 Z M 15.921875 -5.703125 C 16.304688 -6.953125 16.320312 -7.953125 15.96875 -8.703125 C 15.613281 -9.453125 14.921875 -10 13.890625 -10.34375 C 11.804688 -11.03125 10.1875 -10.25 9.03125 -8 Z M 15.921875 -5.703125 "/></g></g></g><g fill="#d9d8d2" fill-opacity="1"><g transform="translate(461.984148, 513.675166)"><g><path d="M 12.4375 -1.859375 L 12.96875 1.5 C 12.4375 1.789062 11.800781 1.976562 11.0625 2.0625 C 10.320312 2.15625 9.507812 2.117188 8.625 1.953125 C 6.789062 1.609375 5.492188 0.847656 4.734375 -0.328125 C 3.972656 -1.503906 3.769531 -3.046875 4.125 -4.953125 L 5.640625 -13 L 3.046875 -13.484375 L 3.671875 -16.84375 L 6.265625 -16.359375 L 6.875 -19.671875 L 11.265625 -19.5625 L 10.515625 -15.5625 L 15.328125 -14.671875 L 14.703125 -11.3125 L 9.890625 -12.203125 L 8.4375 -4.46875 C 8.28125 -3.625 8.335938 -2.976562 8.609375 -2.53125 C 8.890625 -2.082031 9.363281 -1.796875 10.03125 -1.671875 C 10.78125 -1.523438 11.472656 -1.609375 12.109375 -1.921875 Z M 12.4375 -1.859375 "/></g></g></g><g fill="#d9d8d2" fill-opacity="1"><g transform="translate(490.971961, 518.166579)"><g><path d="M 6.6875 0.65625 C 5.59375 0.601562 4.648438 0.351562 3.859375 -0.09375 C 3.066406 -0.539062 2.46875 -1.164062 2.0625 -1.96875 C 1.664062 -2.78125 1.5 -3.738281 1.5625 -4.84375 C 1.613281 -5.851562 1.875 -6.691406 2.34375 -7.359375 C 2.8125 -8.035156 3.515625 -8.570312 4.453125 -8.96875 C 5.390625 -9.363281 6.601562 -9.644531 8.09375 -9.8125 C 9.125 -9.925781 9.910156 -10.066406 10.453125 -10.234375 C 11.003906 -10.410156 11.378906 -10.617188 11.578125 -10.859375 C 11.785156 -11.097656 11.894531 -11.410156 11.90625 -11.796875 C 11.9375 -12.347656 11.765625 -12.78125 11.390625 -13.09375 C 11.023438 -13.40625 10.394531 -13.582031 9.5 -13.625 C 8.539062 -13.664062 7.617188 -13.492188 6.734375 -13.109375 C 5.859375 -12.734375 5.082031 -12.210938 4.40625 -11.546875 L 4.09375 -11.5625 L 2.421875 -14.390625 C 3.347656 -15.304688 4.453125 -16 5.734375 -16.46875 C 7.015625 -16.945312 8.398438 -17.148438 9.890625 -17.078125 C 12.171875 -16.960938 13.796875 -16.394531 14.765625 -15.375 C 15.742188 -14.363281 16.1875 -12.96875 16.09375 -11.1875 L 15.71875 -3.71875 C 15.6875 -2.945312 16.003906 -2.546875 16.671875 -2.515625 C 16.929688 -2.503906 17.1875 -2.539062 17.4375 -2.625 L 17.65625 -2.546875 L 17.8125 0.484375 C 17.570312 0.628906 17.234375 0.738281 16.796875 0.8125 C 16.367188 0.894531 15.90625 0.921875 15.40625 0.890625 C 14.375 0.835938 13.578125 0.597656 13.015625 0.171875 C 12.453125 -0.242188 12.066406 -0.878906 11.859375 -1.734375 L 11.546875 -1.796875 C 10.609375 -0.046875 8.988281 0.769531 6.6875 0.65625 Z M 8.21875 -2.5 C 9.21875 -2.445312 10.035156 -2.742188 10.671875 -3.390625 C 11.304688 -4.035156 11.648438 -4.953125 11.703125 -6.140625 L 11.796875 -7.890625 L 11.5 -7.96875 C 11.226562 -7.769531 10.878906 -7.609375 10.453125 -7.484375 C 10.023438 -7.367188 9.410156 -7.265625 8.609375 -7.171875 C 7.660156 -7.054688 6.972656 -6.820312 6.546875 -6.46875 C 6.128906 -6.113281 5.90625 -5.585938 5.875 -4.890625 C 5.832031 -4.148438 6.015625 -3.578125 6.421875 -3.171875 C 6.835938 -2.765625 7.4375 -2.539062 8.21875 -2.5 Z M 8.21875 -2.5 "/></g></g></g><g fill="#d9d8d2" fill-opacity="1"><g transform="translate(524.94087, 518.581228)"><g><path d="M -0.359375 -14.859375 C 0.554688 -15.441406 1.3125 -16.097656 1.90625 -16.828125 C 2.5 -17.554688 2.816406 -18.28125 2.859375 -19 C 2.046875 -18.976562 1.398438 -19.175781 0.921875 -19.59375 C 0.441406 -20.007812 0.175781 -20.582031 0.125 -21.3125 C 0.0820312 -21.800781 0.15625 -22.242188 0.34375 -22.640625 C 0.539062 -23.046875 0.828125 -23.375 1.203125 -23.625 C 1.585938 -23.882812 2.046875 -24.035156 2.578125 -24.078125 C 3.410156 -24.140625 4.101562 -23.894531 4.65625 -23.34375 C 5.21875 -22.800781 5.535156 -22.007812 5.609375 -20.96875 C 5.742188 -19.238281 5.394531 -17.722656 4.5625 -16.421875 C 3.726562 -15.117188 2.5625 -13.96875 1.0625 -12.96875 Z M -0.359375 -14.859375 "/></g></g></g><g fill="#d9d8d2" fill-opacity="1"><g transform="translate(549.261358, 516.032376)"><g><path d="M 7.96875 -1.234375 C 6.8125 -1.003906 5.726562 -0.925781 4.71875 -1 C 3.707031 -1.082031 2.8125 -1.296875 2.03125 -1.640625 C 1.257812 -1.992188 0.648438 -2.445312 0.203125 -3 L 2.0625 -5.984375 L 2.390625 -6.046875 C 3.109375 -5.410156 3.882812 -4.976562 4.71875 -4.75 C 5.5625 -4.519531 6.429688 -4.492188 7.328125 -4.671875 C 8.160156 -4.835938 8.753906 -5.109375 9.109375 -5.484375 C 9.472656 -5.859375 9.597656 -6.320312 9.484375 -6.875 C 9.398438 -7.300781 9.175781 -7.628906 8.8125 -7.859375 C 8.457031 -8.097656 7.929688 -8.234375 7.234375 -8.265625 L 4.875 -8.359375 C 3.125 -8.429688 1.78125 -8.800781 0.84375 -9.46875 C -0.0820312 -10.144531 -0.671875 -11.113281 -0.921875 -12.375 C -1.128906 -13.425781 -1.039062 -14.390625 -0.65625 -15.265625 C -0.269531 -16.148438 0.367188 -16.890625 1.265625 -17.484375 C 2.160156 -18.085938 3.253906 -18.519531 4.546875 -18.78125 C 6.066406 -19.082031 7.375 -19.109375 8.46875 -18.859375 C 9.5625 -18.617188 10.460938 -18.191406 11.171875 -17.578125 L 9.390625 -14.6875 L 9.078125 -14.625 C 8.492188 -15.0625 7.882812 -15.34375 7.25 -15.46875 C 6.613281 -15.601562 5.929688 -15.597656 5.203125 -15.453125 C 3.523438 -15.117188 2.789062 -14.429688 3 -13.390625 C 3.082031 -12.953125 3.304688 -12.625 3.671875 -12.40625 C 4.046875 -12.195312 4.644531 -12.082031 5.46875 -12.0625 L 7.640625 -12.015625 C 9.429688 -11.984375 10.800781 -11.632812 11.75 -10.96875 C 12.695312 -10.3125 13.304688 -9.300781 13.578125 -7.9375 C 13.785156 -6.863281 13.703125 -5.863281 13.328125 -4.9375 C 12.960938 -4.019531 12.320312 -3.238281 11.40625 -2.59375 C 10.5 -1.957031 9.351562 -1.503906 7.96875 -1.234375 Z M 7.96875 -1.234375 "/></g></g></g><g fill="#d9d8d2" fill-opacity="1"><g transform="translate(580.02841, 508.798263)"><g/></g></g><g fill="#d9d8d2" fill-opacity="1"><g transform="translate(601.773932, 501.018028)"><g><path d="M 4.09375 -1.640625 C 3.59375 -1.421875 3.101562 -1.328125 2.625 -1.359375 C 2.144531 -1.390625 1.722656 -1.539062 1.359375 -1.8125 C 0.992188 -2.09375 0.710938 -2.460938 0.515625 -2.921875 C 0.304688 -3.378906 0.226562 -3.832031 0.28125 -4.28125 C 0.332031 -4.726562 0.503906 -5.144531 0.796875 -5.53125 C 1.085938 -5.914062 1.484375 -6.21875 1.984375 -6.4375 C 2.503906 -6.664062 3.003906 -6.757812 3.484375 -6.71875 C 3.960938 -6.675781 4.378906 -6.519531 4.734375 -6.25 C 5.097656 -5.976562 5.378906 -5.613281 5.578125 -5.15625 C 5.890625 -4.457031 5.914062 -3.78125 5.65625 -3.125 C 5.394531 -2.46875 4.875 -1.972656 4.09375 -1.640625 Z M 4.09375 -1.640625 "/></g></g></g><g fill="#d9d8d2" fill-opacity="1"><g transform="translate(623.766642, 490.508937)"><g/></g></g><g fill="#d9d8d2" fill-opacity="1"><g transform="translate(643.930019, 478.504853)"><g><path d="M 10.1875 -7.234375 C 8.5 -5.972656 6.75 -5.207031 4.9375 -4.9375 C 3.132812 -4.675781 1.34375 -4.972656 -0.4375 -5.828125 C -2.21875 -6.691406 -3.878906 -8.148438 -5.421875 -10.203125 C -6.972656 -12.265625 -7.910156 -14.265625 -8.234375 -16.203125 C -8.566406 -18.148438 -8.351562 -19.957031 -7.59375 -21.625 C -6.84375 -23.289062 -5.625 -24.753906 -3.9375 -26.015625 C -2.1875 -27.335938 -0.441406 -28.113281 1.296875 -28.34375 C 3.046875 -28.582031 4.710938 -28.191406 6.296875 -27.171875 L 4.859375 -23.59375 L 4.53125 -23.375 C 3.4375 -24.007812 2.398438 -24.285156 1.421875 -24.203125 C 0.453125 -24.117188 -0.550781 -23.6875 -1.59375 -22.90625 C -3.113281 -21.769531 -3.921875 -20.378906 -4.015625 -18.734375 C -4.117188 -17.097656 -3.347656 -15.1875 -1.703125 -13 C -0.0664062 -10.832031 1.546875 -9.566406 3.140625 -9.203125 C 4.742188 -8.835938 6.304688 -9.222656 7.828125 -10.359375 C 10.191406 -12.140625 10.773438 -14.378906 9.578125 -17.078125 L 9.890625 -17.3125 L 13.59375 -17.9375 C 14.394531 -15.820312 14.515625 -13.878906 13.953125 -12.109375 C 13.398438 -10.335938 12.144531 -8.710938 10.1875 -7.234375 Z M 10.1875 -7.234375 "/></g></g></g><g fill="#d9d8d2" fill-opacity="1"><g transform="translate(673.879908, 454.211586)"><g><path d="M 4.921875 -4.578125 C 4.148438 -3.785156 3.332031 -3.242188 2.46875 -2.953125 C 1.613281 -2.660156 0.753906 -2.628906 -0.109375 -2.859375 C -0.972656 -3.085938 -1.800781 -3.585938 -2.59375 -4.359375 C -3.332031 -5.066406 -3.796875 -5.820312 -3.984375 -6.625 C -4.179688 -7.425781 -4.117188 -8.304688 -3.796875 -9.265625 C -3.472656 -10.234375 -2.878906 -11.332031 -2.015625 -12.5625 C -1.421875 -13.414062 -1.007812 -14.101562 -0.78125 -14.625 C -0.550781 -15.15625 -0.460938 -15.570312 -0.515625 -15.875 C -0.566406 -16.175781 -0.726562 -16.460938 -1 -16.734375 C -1.394531 -17.117188 -1.828125 -17.273438 -2.296875 -17.203125 C -2.773438 -17.128906 -3.328125 -16.773438 -3.953125 -16.140625 C -4.617188 -15.453125 -5.097656 -14.644531 -5.390625 -13.71875 C -5.691406 -12.800781 -5.8125 -11.875 -5.75 -10.9375 L -5.96875 -10.703125 L -9.203125 -11.3125 C -9.296875 -12.613281 -9.09375 -13.898438 -8.59375 -15.171875 C -8.101562 -16.453125 -7.335938 -17.628906 -6.296875 -18.703125 C -4.710938 -20.335938 -3.21875 -21.1875 -1.8125 -21.25 C -0.40625 -21.3125 0.9375 -20.71875 2.21875 -19.46875 L 7.578125 -14.265625 C 8.128906 -13.722656 8.632812 -13.691406 9.09375 -14.171875 C 9.28125 -14.359375 9.429688 -14.570312 9.546875 -14.8125 L 9.734375 -14.9375 L 12.109375 -13.0625 C 12.054688 -12.78125 11.914062 -12.445312 11.6875 -12.0625 C 11.46875 -11.6875 11.1875 -11.320312 10.84375 -10.96875 C 10.125 -10.226562 9.414062 -9.785156 8.71875 -9.640625 C 8.03125 -9.503906 7.300781 -9.644531 6.53125 -10.0625 L 6.28125 -9.84375 C 6.976562 -7.988281 6.523438 -6.234375 4.921875 -4.578125 Z M 3.5625 -7.84375 C 4.257812 -8.550781 4.570312 -9.351562 4.5 -10.25 C 4.4375 -11.144531 3.976562 -12.015625 3.125 -12.859375 L 1.859375 -14.078125 L 1.609375 -13.890625 C 1.578125 -13.554688 1.460938 -13.191406 1.265625 -12.796875 C 1.078125 -12.398438 0.753906 -11.875 0.296875 -11.21875 C -0.242188 -10.425781 -0.519531 -9.75 -0.53125 -9.1875 C -0.539062 -8.632812 -0.296875 -8.117188 0.203125 -7.640625 C 0.734375 -7.117188 1.289062 -6.878906 1.875 -6.921875 C 2.457031 -6.972656 3.019531 -7.28125 3.5625 -7.84375 Z M 3.5625 -7.84375 "/></g></g></g><g fill="#d9d8d2" fill-opacity="1"><g transform="translate(696.709131, 428.919246)"><g><path d="M 1.796875 -2.421875 L -9.296875 -10.640625 L -10.75 -8.6875 L -13.5 -10.734375 L -12.046875 -12.6875 C -12.734375 -12.976562 -13.332031 -13.3125 -13.84375 -13.6875 C -14.726562 -14.332031 -15.332031 -15.085938 -15.65625 -15.953125 C -15.976562 -16.828125 -16.023438 -17.757812 -15.796875 -18.75 C -15.566406 -19.75 -15.066406 -20.769531 -14.296875 -21.8125 C -13.160156 -23.34375 -12.046875 -24.285156 -10.953125 -24.640625 L -9.015625 -21.9375 L -9.15625 -21.625 C -9.914062 -21.375 -10.59375 -20.84375 -11.1875 -20.03125 C -11.65625 -19.40625 -11.851562 -18.820312 -11.78125 -18.28125 C -11.707031 -17.75 -11.40625 -17.285156 -10.875 -16.890625 C -10.65625 -16.722656 -10.4375 -16.582031 -10.21875 -16.46875 C -10.007812 -16.363281 -9.757812 -16.265625 -9.46875 -16.171875 L -6.546875 -20.125 L -3.796875 -18.078125 L -6.71875 -14.125 L 4.375 -5.90625 Z M 1.796875 -2.421875 "/></g></g></g><g fill="#d9d8d2" fill-opacity="1"><g transform="translate(712.908077, 405.624177)"><g><path d="M 1.53125 -18.59375 L -3.8125 -8.90625 C -2.4375 -8.289062 -1.273438 -8.132812 -0.328125 -8.4375 C 0.617188 -8.75 1.398438 -9.457031 2.015625 -10.5625 C 2.492188 -11.425781 2.710938 -12.21875 2.671875 -12.9375 C 2.640625 -13.65625 2.390625 -14.359375 1.921875 -15.046875 L 2.078125 -15.328125 L 5.078125 -16.953125 C 5.859375 -15.867188 6.304688 -14.648438 6.421875 -13.296875 C 6.535156 -11.953125 6.132812 -10.453125 5.21875 -8.796875 C 4.351562 -7.234375 3.3125 -6.046875 2.09375 -5.234375 C 0.882812 -4.429688 -0.472656 -4.046875 -1.984375 -4.078125 C -3.503906 -4.109375 -5.109375 -4.585938 -6.796875 -5.515625 C -8.503906 -6.460938 -9.769531 -7.582031 -10.59375 -8.875 C -11.414062 -10.164062 -11.8125 -11.519531 -11.78125 -12.9375 C -11.75 -14.363281 -11.351562 -15.765625 -10.59375 -17.140625 C -9.414062 -19.273438 -7.945312 -20.597656 -6.1875 -21.109375 C -4.4375 -21.617188 -2.46875 -21.269531 -0.28125 -20.0625 C 0.507812 -19.625 1.109375 -19.257812 1.515625 -18.96875 Z M -2.71875 -16.6875 C -3.882812 -17.289062 -4.863281 -17.488281 -5.65625 -17.28125 C -6.457031 -17.070312 -7.125 -16.488281 -7.65625 -15.53125 C -8.707031 -13.613281 -8.226562 -11.878906 -6.21875 -10.328125 Z M -2.71875 -16.6875 "/></g></g></g></svg>